<svg xmlns="http://www.w3.org/2000/svg" data-name="Layer 1" viewBox="0 0 3400 2600"><defs><clipPath id="a"><path fill="none" d="M2787.6335,879.0244c-4.2852-25.6191-12.7872-63.5384-29.3061-108.9149-44.0847-121.0979-145.6585-295.6738-379.5004-434.0786,0,0-58.2206-39.6896-134.0218-80.577-76.4568-41.241-170.7996-83.7003-241.3812-87.8855,0,0-112.5475-68.2625-371.3503,40.5645,0,0-333.1527-31.7708-659.0931,113.989,0,0-173.1799,64.1204,235.695,420.8255,0,0-103.5631,406.1559,323.8192,605.6272,154.021,71.8859,327.1576,91.1303,494.4966,61.3353,207.2961-36.9096,489.71-141.7854,541.0454-438.142a736.11941,736.11941,0,0,0,4.1182-103.5512s28.0268,30.4993,81.9819,46.4824c27.2364,8.0685,61.0545,12.4523,101.2606,7.3179A37.24586,37.24586,0,0,0,2787.6335,879.0244Z"/></clipPath></defs><path fill="#fff" d="M1875.2539,1444.064c-124.1211,0-242.3828-25.8252-351.5039-76.7529C1295.3101,1260.69,1216.228,1095.314,1190.1147,975.358c-22.893-105.1734-10.3686-193.0445-4.2114-224.8779C992.2314,579.9747,901.9678,450.3482,917.5977,365.1212c6.8042-37.0972,32.6782-56.3233,47.4658-62.1094,230.8178-103.0884,465.188-118.4815,584.4116-118.4815,40.52,0,68.2544,1.7408,79.2798,2.5831,98.0566-40.7178,186.9629-61.3575,264.3213-61.3575,65.8398,0,103.208,15.0513,116.1816,21.4917,61.084,4.8487,143.5889,35.1123,245.3613,90.0098,72.8125,39.2749,128.7647,76.8872,135.293,81.311,238.1885,141.1597,342.3828,319.5972,387.8418,444.4678,17.5,48.0566,26.1182,87.7466,30.2686,112.5806a57.13,57.13,0,0,1-10.586,43.8818,58.57445,58.57445,0,0,1-39.4189,23.0274,290.85258,290.85258,0,0,1-36.7139,2.3754,256.97438,256.97438,0,0,1-73.042-10.3784,235.52689,235.52689,0,0,1-55.3515-24.4189c-.542,21.7285-1.9873,43.125-4.3262,63.9721q-.0732.6153-.1758,1.2232c-23.9209,138.0932-98.2861,249.1528-221.0303,330.0928-89.4726,59.0014-202.7783,101.0156-336.7627,124.8706A888.55937,888.55937,0,0,1,1875.2539,1444.064Z"/><path fill="#102770" d="M1893.0688,146.4322c75.4908,0,110.3541,21.1365,110.3541,21.1365,70.5834,4.1845,164.9267,46.6443,241.3818,87.8857,75.8008,40.8875,134.0234,80.5762,134.0234,80.5762,233.8428,138.4058,335.4151,312.9809,379.4971,434.0784,16.5234,45.3772,25.0244,83.2959,29.3066,108.916a37.24512,37.24512,0,0,1-32.2363,42.9919,268.92073,268.92073,0,0,1-34.0918,2.2083,235.485,235.485,0,0,1-67.168-9.5264c-53.955-15.9827-81.9824-46.4819-81.9824-46.4819a735.95351,735.95351,0,0,1-4.1162,103.551c-51.3379,296.3562-333.75,401.2329-541.0449,438.1421a865.90514,865.90514,0,0,1-151.7359,13.4778c-117.9223,0-235.0195-24.5276-342.7612-74.8133-427.3828-199.4714-323.8183-605.6274-323.8183-605.6274C799.7998,386.2418,972.981,322.1219,972.981,322.1219c227.0092-101.5173,457.4853-116.9202,576.5014-116.9177,51.8677.0012,82.5904,2.9284,82.5904,2.9284,114.8071-48.2763,200.8105-61.7004,260.996-61.7004m0-41.3501c-78.8818,0-168.8989,20.5371-267.7026,61.062-13.6523-.9241-39.9097-2.2888-75.8838-2.2888-120.8716-.0037-358.5644,15.6323-592.915,120.3101-10.3833,4.3945-49.5972,24.2834-59.3067,77.2265-17.0166,92.7869,70.1148,222.732,266.2793,396.9153-6.5869,40.3137-14.8559,123.9246,6.3746,221.4478,17.2802,79.3811,50.5175,151.7517,98.7915,215.1013,59.8266,78.5058,142.6928,142.832,246.3012,191.1877,111.8775,52.2168,233.0835,78.6939,360.249,78.6939a909.50083,909.50083,0,0,0,158.9844-14.1187c136.77-24.3518,252.6831-67.406,344.5215-127.9675,127.6953-84.2066,205.0855-199.8865,230.0171-343.8257q.2124-1.21575.3516-2.4426,1.831-16.3386,2.9541-33.075a261.667,261.667,0,0,0,30.3076,11.0376,277.61568,277.61568,0,0,0,78.9111,11.2305,311.77106,311.77106,0,0,0,39.3311-2.5427,79.3664,79.3664,0,0,0,53.3984-31.2024,77.63665,77.63665,0,0,0,14.3799-59.6302c-4.292-25.6811-13.1934-66.7028-31.2354-116.2402-46.5722-127.9419-153.125-310.6335-396.1865-454.8621-8.7915-5.9375-64.6118-43.2299-136.5552-82.0373-102.2754-55.1697-186.2597-86.1218-249.8413-92.0996-17.7002-7.9956-57.6391-21.8799-121.5259-21.8799Z"/><g clip-path="url(#a)"><path fill="#e3724b" d="M1169.0502 1024.0892a595.7915 595.7915 0 0012.3391 62.9374c74.608-40.7601 221.0732-94.5403 221.0732-94.5403C1347.5618 980.58 1221.635 1007.4788 1169.0502 1024.0892zM1200.7478 1148.4702a509.48067 509.48067 0 0022.8073 50.9783c58.8136-40.1729 168.1806-89.5385 168.1806-89.5385C1345.9276 1105.5293 1243.8228 1132.1786 1200.7478 1148.4702zM2936.0364 568.4978a488.205 488.205 0 01-525.2412 448.1199c-268.7863-21.2964-469.4164-256.4549-448.1199-525.2412 21.2964-268.7862 256.4549-469.4163 525.2412-448.1199C2756.7027 64.5531 2957.3328 299.7116 2936.0364 568.4978z"/><ellipse cx="1473.501" cy="191.278" fill="#e3724b" rx="324.718" ry="194.732" transform="rotate(-37.381 1473.5 191.278)"/><path fill="#e3724b" d="M2504.838 1211.7736c1.8669-4.9671 3.7697-9.8753 5.5461-14.9878q7.4634-21.486 13.8212-44.7091c-42.9685-23.5292-155.446-74.6146-204.5425-76.0235C2319.6628 1076.0532 2444.8559 1157.7248 2504.838 1211.7736zM2448.1179 1323.5071a504.71663 504.71663 0 0028.7604-48.7634c-36.9881-24.624-96.6608-66.9772-140.4606-73.4579C2336.4177 1201.2858 2399.9237 1269.5806 2448.1179 1323.5071z"/><rect width="113.091" height="158.327" x="2714.423" y="827.645" fill="#f3825b" transform="rotate(4.53 2770.966 906.808)"/></g><path fill="#ff83b6" d="M2544.2692,541.6811c17.1955,37.3354,47.8257,145.8543,38.4658,262.1675l120.5825,49.1922a10.02565,10.02565,0,0,0,13.5841-11.5269c-12.857-55.2653-58.7987-219.3042-166.7459-304.4812A3.86062,3.86062,0,0,0,2544.2692,541.6811Z"/><path fill="#102770" d="M2707.1558,869.3082a25.65976,25.65976,0,0,1-9.6949-1.9092l-120.5835-49.1919a15.50773,15.50773,0,0,1-9.5996-15.6006c9.7242-120.8349-24.3799-226.8335-37.0923-254.4385a19.36612,19.36612,0,0,1,29.5752-23.3081c109.8804,86.7017,157.0606,247.8711,172.2437,313.1397a25.54276,25.54276,0,0,1-24.8486,31.3086Zm-108.1739-75.5786L2699.2896,834.65c-12.793-51.0572-49.4239-172.1216-124.5484-253.5938C2590.0854,634.0274,2603.7354,712.9239,2598.9819,793.7296Z"/><path fill="#6d4c41" d="M2591.8289,583.6105a3.76251,3.76251,0,0,1,1.586-4.9019,321.18279,321.18279,0,0,0-43.259-41.676,3.86063,3.86063,0,0,0-5.8865,4.6484c17.1954,37.3354,47.8256,145.8544,38.4655,262.1675l48.8677,19.9358C2635.8249,716.002,2607.9349,618.5809,2591.8289,583.6105Z" opacity=".2"/><path fill="#ff83b6" d="M1388.7043,321.2247s-168.5571,162.8646-181.655,262.1275c0,0-114.8224-71.5062-161.0942-147.3417-16.0397-26.2876-4.2104-60.6659,24.4762-71.8636C1138.336,337.6404,1273.8841,294.8668,1388.7043,321.2247Z"/><path fill="#102770" d="M1207.0483,598.8565a15.49308,15.49308,0,0,1-8.1982-2.3437c-4.8145-2.9981-118.4912-74.3482-166.1328-152.4268a65.0593,65.0593,0,0,1,32.0752-94.3848c71.5405-27.9248,209.1943-70.7177,327.3804-43.5888a15.50577,15.50577,0,0,1,7.3071,26.2622c-1.648,1.5918-164.8194,160.2514-177.0581,253.0054a15.50274,15.50274,0,0,1-15.3736,13.4765Zm103.2251-270.4468c-89.7973,0-181.0278,29.4263-234.2016,50.1831a34.205,34.205,0,0,0-20.022,20.9717,33.66907,33.66907,0,0,0,3.1421,28.3692c32.959,54.0161,104.0869,106.9214,137.7246,130.0781,24.6997-80.3174,117.5684-182.876,159.9341-226.7212A362.985,362.985,0,0,0,1310.2734,328.4097Z"/><path fill="#102770" d="M1112.476,479.4423c-16.0397-26.2878-4.2103-60.6659,24.4764-71.8638,48.5205-18.94,131.5785-46.1699,216.9316-50.5659,20.5298-21.9644,34.8202-35.7878,34.8202-35.7878-114.82-26.3582-250.368,16.4153-318.2729,42.9219-28.6867,11.1979-40.5161,45.576-24.4764,71.8637,46.2722,75.8354,161.0945,147.3417,161.0945,147.3417.169-1.2804.4707-2.614.6906-3.9149C1173.85,552.3104,1135.0283,516.4036,1112.476,479.4423Z" opacity=".2"/><path fill="#102770" d="M1656.3646 281.7451s-91.1992-30.2787-194.5115 37.9333c0 0 .8049-65.0634 94.9713-84.2155C1556.8244 235.4629 1644.441 222.1188 1656.3646 281.7451zM2377.7489 418.706s-58.0199-70.7076-175.831-68.2967c0 0 33.7055-51.959 119.2287-19.5296C2321.1466 330.8797 2398.447 364.6559 2377.7489 418.706zM1776.6446 766.1831s3.8732-57.5312 108.3361-44.8493c0 0 88.0975 12.0285 81.1268 60.2946 0 0-18.6525 56.6259-98.3901 56.2792C1867.7174 837.9076 1786.4684 828.0438 1776.6446 766.1831z"/><path fill="#fff" d="M1862.9618,869.0578l3.5158-60.0902Z"/><path fill="#102770" d="M1862.9785,887.1475c-.3564,0-.7129-.0097-1.0742-.0317a18.08938,18.08938,0,0,1-17.002-19.1162l3.5157-60.0879a18.09,18.09,0,1,1,36.1181,2.1143l-3.5156,60.0878A18.08979,18.08979,0,0,1,1862.9785,887.1475Z"/><g opacity=".4"><path fill="#fff" d="M1831.5576,778.8199c-13.3203,0-22.8906-4.8901-24.3799-12.4561-1.958-9.9243,10.752-20.5053,28.9405-24.0942a59.8428,59.8428,0,0,1,11.5332-1.1597c13.3203,0,22.8955,4.8902,24.3896,12.4585,1.958,9.9219-10.7568,20.503-28.9453,24.0918A59.84679,59.84679,0,0,1,1831.5576,778.8199Z"/><path fill="#102770" d="M1847.6563,743.6966c11.5893-.0012,20.5786,3.9368,21.8481,10.3723,1.6528,8.3716-10.3955,17.7979-26.9067,21.0547a57.25574,57.25574,0,0,1-11.0376,1.1108c-11.5894,0-20.5787-3.9379-21.8482-10.3723-1.6528-8.3716,10.3955-17.7978,26.9068-21.0547a57.37732,57.37732,0,0,1,11.0376-1.1108m.0024-5.1685h0a62.43129,62.43129,0,0,0-12.041,1.2085c-8.7671,1.7286-16.7407,5.1416-22.4488,9.6094-6.6943,5.2381-9.7241,11.46-8.5278,17.5171,1.7676,8.9685,12.0825,14.5398,26.919,14.5398a62.424,62.424,0,0,0,12.0385-1.2085c8.7671-1.7297,16.7408-5.1416,22.4488-9.6094,6.6943-5.2392,9.7241-11.4599,8.5278-17.5171-1.7676-8.9685-12.0825-14.5398-26.9165-14.5398Z"/></g><circle cx="1576.21" cy="583.997" r="146.345" fill="#102770"/><ellipse cx="1628.724" cy="555.899" fill="#fff" rx="50.55" ry="39.176" transform="rotate(-85.843 1628.724 555.9)"/><ellipse cx="1508.526" cy="627.094" fill="#fff" rx="25.275" ry="19.588" transform="rotate(-88.099 1508.526 627.094)"/><circle cx="2188.158" cy="642.485" r="146.345" fill="#102770" transform="rotate(-45 2188.158 642.485)"/><path fill="#fff" d="M1863.1328,876.8683s-15.1774,78.9979,69.5424,85.3243c0,0,75.6844,2.2777,81.3844-74.0541Z"/><path fill="#102770" d="M1934.624,980.3116q-1.2744,0-2.4927-.0366c-.2685-.0098-.5346-.022-.8032-.044-31.1499-2.3242-54.6386-13.5547-69.8095-33.3789-23.9063-31.2378-16.4795-71.6894-16.1524-73.396a18.091,18.091,0,0,1,35.5493,6.7359c-.105.5932-4.5215,26.7773,9.4751,44.851,8.5742,11.0718,23.0884,17.4878,43.1446,19.0699,7.1093.1806,58.3081-1.4234,62.4853-57.3218a18.08982,18.08982,0,0,1,36.0791,2.6953C2026.7114,961.6422,1967.3999,980.3092,1934.624,980.3116Z"/><path fill="#fff" d="M1862.5424,876.8242s3.2764,80.376-81.4434,74.0496c0,0-75.1833-8.9881-69.4833-85.3199Z"/><path fill="#102770" d="M1790.4395,969.3228q-5.2149,0-10.6885-.4101c-.2661-.0196-.5347-.044-.7984-.0757-31.9482-3.8208-90.9057-30.603-85.3759-104.6314a18.08982,18.08982,0,1,1,36.0791,2.6954c-4.231,56.6748,47.9834,65.249,53.2421,65.9643,20.0904,1.4282,35.4029-2.7661,45.5323-12.4487,16.6308-15.896,16.04-42.6856,16.0327-42.9541a18.09075,18.09075,0,0,1,36.1548-1.3745c.0708,1.7358,1.4087,42.8442-26.875,70.1855C1837.9004,961.5885,1816.6357,969.3204,1790.4395,969.3228Z"/><ellipse cx="2138.709" cy="599.611" fill="#fff" rx="50.55" ry="39.176" transform="rotate(-75.639 2138.71 599.611)"/><ellipse cx="2253.514" cy="696.985" fill="#fff" rx="25.275" ry="19.588" transform="rotate(-67.126 2253.514 696.985)"/><path fill="#102770" d="M2028.9735,1409.5551c207.1098-37.2245,487.8915-142.3739,539.0632-437.7873a736.08791,736.08791,0,0,0,4.1184-103.5511s28.0266,30.4991,81.9819,46.4825c27.2363,8.0683,61.0545,12.4519,101.2604,7.3177a37.246,37.246,0,0,0,32.2361-42.9925c-4.2853-25.6193-12.7874-63.5384-29.3061-108.9152-44.0846-121.0977-145.6586-295.6736-379.5003-434.0783,0,0-58.2206-39.6895-134.022-80.5771-75.9045-40.9432-169.411-83.0427-239.8218-87.7441,82.2284,31.9028,411.3254,182.566,425.0954,555.0026a428.48155,428.48155,0,0,1-43.8234,205.5714c-85.9096,173.8153-333.2755,505.1069-937.648,374.3946a738.85364,738.85364,0,0,0,98.4931,52.5344C1698.206,1422.0732,1866.3426,1438.7852,2028.9735,1409.5551Z" opacity=".2"/><g opacity=".3"><path fill="#102770" d="M1986.4327,160.9771s5.0419,1.6114,13.9364,4.9652a126.96842,126.96842,0,0,0-14.0449-5.8053Z"/><path fill="#102770" d="M1999.458,168.3609c-8.7158-3.2861-13.7622-4.9048-13.811-4.9219l-1.565-.498-.8642-6.6406,3.9648,1.3989a129.37259,129.37259,0,0,1,14.336,5.9277Z"/></g><path fill="#e3724b" d="M567.8466,1980.849c-57.9904-118.4281-25.6582-262.9848,76.3245-349.8,118.2726-100.6859,274.424-98.182,374.59-21.0064a250.18963,250.18963,0,0,1,46.5604,46.6498c2.6133,3.3995,5.0823,6.8804,7.5035,10.3879l127.6267,370.8513,2.6241,7.5703c-9.7479,18.851-24.9777,36.1736-43.8622,50.4944-46.7583,35.4828-116.194,52.3002-181.8862,27.3885-32.0483-12.0515-63.1855-34.0466-90.382-68.5801-15.0174-18.9978-26.1973-40.7298-34.2941-63.5037-8.7172-24.3234-18.6753-49.2753-33.0054-71.319-14.2279-21.9746-32.9029-41.0616-58.8955-53.9336l58.8955,53.9336a244.72173,244.72173,0,0,0-41.7468,48.8583c-14.5753,22.523-25.4217,47.0564-33.4801,73.0557-11.2939,40.7979-50.1459,54.1648-92.3869,33.2419-24.8538-12.3117-50.9455-36.5825-73.3046-74.0975C574.7923,1994.3995,571.1244,1987.6709,567.8466,1980.849Z"/><path fill="#fff" d="M1072.8249,1667.0802c-2.421-3.5075-4.8899-6.9885-7.5033-10.388a250.20524,250.20524,0,0,0-46.5605-46.6498c-63.2365-48.7221-148.7848-67.6393-233.0308-49.6635-49.1984,10.4978-97.954,33.549-141.5591,70.6701a299.82545,299.82545,0,0,0-37.77,38.6004c-71.3077,87.2269-88.6286,208.9385-38.5547,311.1994,3.2778,6.8222,6.9459,13.5507,10.8811,20.1914a258.96887,258.96887,0,0,0,17.0064,25.1577c-.6742-1.3348-1.3988-2.657-2.0437-3.999-54.0041-110.2866-29.6427-243.209,56.3204-331.0804,22.2836-.183,49.9616-8.1456,76.9704-23.7389,29.427-16.9897,51.4384-39.1948,61.8611-59.9219,91.3738-26.918,186.8262-9.1787,255.7627,43.9348a250.15125,250.15125,0,0,1,33.5225,31.0949Z" opacity=".55"/><path fill="#fff" d="M557.2587,1940.0272c9.9436-42.8608,69.0118-83.1075,131.2285-82.4663,56.3166.5055,113.1273,29.6562,129.9634,67.534-18.1239,28.0063-31.6109,58.5127-41.6311,90.8417-22.3152,80.5782-131.0553,75.1676-206.0308-50.8023C565.8955,1956.8767,561.3346,1948.5099,557.2587,1940.0272Z"/><path fill="#102770" d="M830.838,1937.3044a210.53159,210.53159,0,0,0-43.7005,56.1374,257.06226,257.06226,0,0,0-14.8316,33.107c-2.113,5.6714-4.173,11.7163-5.9289,17.3334l-3.198,10.0659a85.66607,85.66607,0,0,1-5.0928,11.8087,77.81269,77.81269,0,0,1-16.3028,21.5397,71.84355,71.84355,0,0,1-23.6712,14.5251c-17.4652,6.5039-35.6864,5.9073-51.5265,2.0477a132.87457,132.87457,0,0,1-42.507-19.6289,187.50322,187.50322,0,0,1-33.3032-29.1754c-19.5694-21.5225-34.5804-45.5643-46.5534-71.1474a301.80912,301.80912,0,0,1-24.566-80.9034c-8.902-55.9179-1.6025-114.004,19.7534-166.2001a322.77367,322.77367,0,0,1,101.0968-133.0826,349.93019,349.93019,0,0,1,110.9115-58.7847,339.50152,339.50152,0,0,1,41.0297-9.8998,316.20231,316.20231,0,0,1,166.8921,15.0333c53.0902,20.0082,100.7281,56.1963,133.0048,103.6725l.0787.1164a24.01822,24.01822,0,0,1,2.7649,5.5401l129.1589,378.77.072.2106a22.228,22.228,0,0,1-1.3684,17.4591c-13.9746,26.5161-34.7985,47.334-58.042,63.2913a218.67959,218.67959,0,0,1-77.0446,32.9163,210.02432,210.02432,0,0,1-83.8965,1.0602,207.66825,207.66825,0,0,1-77.3169-32.3493c-23.2013-15.7162-42.7277-35.4098-59.2383-57.326a231.05947,231.05947,0,0,1-21.5472-35.5283q-4.5567-9.2514-8.3387-18.7646-1.90695-4.74615-3.6126-9.5468l-3.097-8.8645c-8.1878-23.1442-16.5838-45.3216-27.9455-65.4364a174.79309,174.79309,0,0,0-45.2173-53.1763l-.0668-.0528a6.9087,6.9087,0,0,1,6.0598-12.0999c26.175,6.9879,49.8688,24.6884,66.9697,46.2525,17.2863,21.6479,28.9019,46.362,38.1469,70.5511l3.3722,8.9466q1.5162,4.10925,3.1732,8.1445,3.31425,8.0676,7.2016,15.791a189.91644,189.91644,0,0,0,17.9736,29.0314c14.0442,18.2611,30.7886,34.7537,49.621,47.1817a165.14542,165.14542,0,0,0,61.7907,25.2035,166.86191,166.86191,0,0,0,66.6535-1.5301,174.909,174.909,0,0,0,61.2488-26.8491c18.2092-12.6993,33.7884-29.0899,43.1988-47.5412l-1.2964,17.6676-131.2896-378.0368,2.843,5.6546c-26.966-38.9124-66.1609-69.0534-110.8862-86.0163a268.87118,268.87118,0,0,0-141.8329-12.8291,292.24425,292.24425,0,0,0-35.1795,8.4337,302.8098,302.8098,0,0,0-95.8978,50.7504,275.58781,275.58781,0,0,0-86.7349,113.7717,272.09612,272.09612,0,0,0-17.5275,141.5197,255.99538,255.99538,0,0,0,20.2036,68.902c9.9206,21.8418,22.8332,42.742,38.341,60.0577a143.36644,143.36644,0,0,0,25.2994,22.6852,89.357,89.357,0,0,0,28.1094,13.5459c9.4348,2.3858,18.4973,2.3446,25.705-.2646,7.2195-2.5745,12.8232-7.6648,16.8921-15.2838a42.5223,42.5223,0,0,0,2.7231-6.1478l2.8076-8.6023c2.2095-6.8402,4.5245-13.1216,7.07-19.6646a299.26,299.26,0,0,1,17.8952-38.1091,252.18067,252.18067,0,0,1,53.3621-66.1511l.0311-.0275a20.32564,20.32564,0,0,1,27.1033,30.2951Z"/><path fill="#102770" d="M1095.2552,1783.1946s-34.1784,30.7605-59.2995,79.5075c-37.6246,73.0096-132.2971,94.0243-198.717,45.7085q-18.4071-13.38975-39.1871-29.594s77.5314,279.113,237.7629,237.7629c0,0,85.5946-56.5987,91.9005-54.1431,6.3059,2.4555-73.5745-152.0857-10.3749-266.0592Z" opacity=".3"/><path fill="#fff" d="M1124.8474,1773.4569c-38.2859,69.8892-40.0089,224.952,13.0557,292.1769l304.4413,135.474,177.2263-79.0295s11.826-308.0218,0-308.0218S1124.8474,1773.4569,1124.8474,1773.4569Z"/><path fill="#102770" d="M1442.3438,2221.7813a20.65222,20.65222,0,0,1-8.4058-1.7846L1129.4971,2084.523a20.67413,20.67413,0,0,1-7.8223-6.0791c-58.5644-74.1919-57.1484-237.9053-14.9585-314.9219a20.69142,20.69142,0,0,1,19.8633-10.6689c191.062,16.0645,480.105,40.1147,493.3081,40.5322h.0146a21.22382,21.22382,0,0,1,15.2076,6.6577c7.622,7.9224,12.6587,13.1543,9.4799,172.7832-1.4892,74.856-4.331,149.3018-4.3603,150.0464a20.66678,20.66678,0,0,1-12.2388,18.0884l-177.2265,79.0283A20.64834,20.64834,0,0,1,1442.3438,2221.7813Zm-291.1402-172.8589,291.1304,129.5508,157.0605-70.0342c4.187-113.8379,6.2696-235.542,3.4571-274.8169-74.458-5.5712-372.2583-30.5346-465.6055-38.3764C1108.4009,1862.6285,1109.4092,1990.3775,1151.2036,2048.9224Zm466.7896-214.2505c.5151.0391,1.0424.0586,1.5771.0586C1619.2749,1834.7305,1618.7451,1834.711,1617.9932,1834.6719Z"/><path fill="#fff" d="M1488.0427,2137.1389c-321.0145-180.237-479.0543-48.4709-486.385,89.8211-4.1214,77.7493,58.6893,142.7381,136.5478,142.738h434.5588c43.1036,0,84.1942-21.0224,107.2102-57.4667C1735.08,2224.9752,1620.7201,2162.7922,1488.0427,2137.1389Z"/><path fill="#fff" d="M1693.9527,2273.404c-30.0822-43.5208-107.6654-74.9987-192.7947-91.487-61.1982-34.3724-116.504-57.3731-165.9691-71.174-18.349,21.5023-81.4596,10.7511-90.8665-15.8681-149.3255-8.8901-224.5826,82.4935-229.5448,176.8751a134.85846,134.85846,0,0,0,.6203,21.9672,133.61629,133.61629,0,0,1-13.7488-66.7802c7.3395-138.2643,165.4003-270.016,486.3801-89.7814C1600.0878,2158.8128,1699.0697,2206.5203,1693.9527,2273.404Z" opacity=".55"/><path fill="#102770" d="M1572.7637,2390.3751H1138.2056a158.587,158.587,0,0,1-114.5801-49.2505,154.18464,154.18464,0,0,1-42.6148-115.2588c3.7574-70.874,42.7564-133.4131,104.3213-167.2949,57.2705-31.5259,186.5332-65.5908,409.9268,58.9135,55.8691,11.1084,180.7446,43.667,212.3755,116.792,8.5351,19.7315,13.6987,51.1866-10.1782,88.9942C1671.3159,2364.6622,1623.5352,2390.3751,1572.7637,2390.3751Zm-361.6651-320.3003c-40.1635,0-75.7812,8.186-105.83,24.7217-49.6851,27.3437-79.9244,75.9155-82.9639,133.2568a113.20368,113.20368,0,0,0,31.3232,84.6167,115.504,115.504,0,0,0,84.5777,36.355h434.5581c36.7138,0,71.0962-18.3301,89.7314-47.8345,11.5943-18.3594,13.9453-34.8779,7.1875-50.498-16.7041-38.6207-87.81-74.3531-185.5664-93.2569a20.67424,20.67424,0,0,1-6.1963-2.2705C1377.5366,2098.8028,1286.3428,2070.0748,1211.0986,2070.0748Z"/><path fill="#fff" d="M2669.9178,2065.6199l-304.4401,135.4733-177.2366-79.0306s-11.8366-308.0061,0-308.0061c4.3933,0,74.7918-5.6859,161.1619-12.767,17.8837-1.4989,36.4397-2.9977,55.254-4.5486,133.1473-11.0609,278.3376-23.2594,278.3376-23.2594,1.6023,2.8945,3.1014,5.996,4.5485,9.2006,10.6476,23.1042,17.884,53.2899,21.1918,85.853C2715.9713,1939.4506,2704.8069,2021.4788,2669.9178,2065.6199Z"/><path fill="#102770" d="M2365.4785,2221.7813a20.648,20.648,0,0,1-8.4204-1.792l-177.2266-79.0283a20.66686,20.66686,0,0,1-12.2387-18.0884c-.0293-.7446-2.8711-75.1904-4.3604-150.0464-3.1787-159.6289,1.8579-164.8608,9.48-172.7832a21.41365,21.41365,0,0,1,15.5396-6.6601c12.8857-.4151,301.9287-24.4653,492.9907-40.5298a20.64986,20.64986,0,0,1,19.8633,10.6689c42.1899,77.0166,43.6059,240.73-14.9585,314.9219a20.6749,20.6749,0,0,1-7.8223,6.0791l-304.4409,135.4737A20.66088,20.66088,0,0,1,2365.4785,2221.7813ZM2208.4277,2108.439l157.0606,70.0342,291.1304-129.5508c41.7944-58.5449,42.8027-186.2939,13.9575-253.6767-93.3472,7.8418-391.1475,32.8052-465.6055,38.3764C2202.1582,1872.8995,2204.2407,1994.6036,2208.4277,2108.439Zm-18.5986-273.7671c-.752.0391-1.2817.0586-1.5771.0586C2188.7866,1834.7305,2189.314,1834.711,2189.8291,1834.6719Z"/><path fill="#102770" d="M2708.7349 1868.5351c-25.4302 34.5272-59.5439 59.4407-100.222 70.8638-95.5189 26.8776-198.0152-28.7383-259.1099-138.1094 17.8837-1.4989 36.4397-2.9977 55.254-4.5486 55.9775 48.2764 123.7401 67.7627 188.2461 49.6203 37.7836-10.6476 69.9335-32.8732 94.64-63.6791C2698.1907 1805.7863 2705.4271 1835.972 2708.7349 1868.5351zM1101.7681 1868.5351c25.4302 34.5272 59.5439 59.4407 100.222 70.8638 95.5189 26.8776 198.0151-28.7383 259.1099-138.1094-17.8837-1.4989-36.4397-2.9977-55.2541-4.5486-55.9774 48.2764-123.7401 67.7627-188.2461 49.6203-37.7836-10.6476-69.9334-32.8732-94.6399-63.6791C1112.3122 1805.7863 1105.0759 1835.972 1101.7681 1868.5351z" opacity=".3"/><path fill="#fff" d="M2662.3195,2369.6981H2227.7819c-43.1072,0-84.1989-21.0369-107.2517-57.4766-9.7173-15.4031-14.1624-29.9791-14.1624-43.7796,0-1.1887.0518-2.3774.1035-3.5664.0517-1.1887.1549-2.3775.3101-3.5147.1032-.8786.2067-1.7058.3619-2.5844.1031-.7237.2066-1.4471.3618-2.1708a28.82455,28.82455,0,0,1,.6202-2.8945,75.51917,75.51917,0,0,1,14.0589-28.5317c.7237-.982,1.4988-1.9641,2.2226-2.8945,1.7575-2.119,3.5664-4.1349,5.4788-6.1508,35.1993-37.0599,105.8564-64.1441,182.6124-78.9785,12.095-6.771,23.9313-13.1288,35.5093-18.9695l.0517-.0518c258.5415-131.6481,403.1632-52.5144,440.9986,57.8902v.0517c.5685,1.7058,1.137,3.3598,1.654,5.0653.4133,1.3439.8269,2.6879,1.1887,4.0835.4136,1.344.7755,2.7393,1.137,4.0832.4654,1.8093.9307,3.67,1.344,5.5306.517,2.1191.9303,4.2385,1.3439,6.3575.0517.1552.0517.3619.1035.5171.3618,1.8607.6719,3.7731.982,5.6855.3619,2.2743.672,4.5485.9821,6.8745.2066,2.0673.465,4.135.6202,6.2026.2067,2.1708.3619,4.2899.465,6.461C2802.9616,2304.7267,2740.161,2369.6981,2662.3195,2369.6981Z"/><path fill="#fff" d="M2782.5966,2305.6053a134.15947,134.15947,0,0,0,3.2047-37.2151c-.1035-2.1708-.2584-4.2384-.4654-6.461-.1549-2.0155-.4132-4.1349-.6202-6.2022-.3101-2.2743-.6202-4.5486-.9821-6.8746-.3101-1.8606-.6202-3.773-.9821-5.6858-.0517-.1549-.0517-.3615-.1031-.5167-.4136-2.0677-.8272-4.2385-1.3439-6.3058-.4136-1.9127-.8786-3.7734-1.344-5.5823-.3618-1.3439-.7237-2.7396-1.1373-4.0835-.3615-1.3436-.7751-2.7393-1.1887-4.0832-.5167-1.7058-1.0852-3.3595-1.654-5.0136v-.1035c-18.5039-53.8583-62.387-100.3254-132.6302-118.3647-18.7109,19.2797-76.8077,16.7471-84.9744-7.7014-61.6633,3.2564-135.9901,23.673-223.394,68.176l-.0514.0517c-11.5783,5.8407-23.4146,12.1982-35.5096,18.9693-76.756,14.8343-147.4128,41.9188-182.6121,79.0305-1.9124,1.9642-3.7216,3.9797-5.4788,6.1508-.7237.8786-1.4992,1.9124-2.2226,2.8945-.8272,1.0335-1.654,2.1708-2.4812,3.2564.0517-.5171.1035-.9821.1552-1.4992.1032-.8786.2067-1.7058.3619-2.5844.1031-.7237.2066-1.3953.3618-2.1707a28.81861,28.81861,0,0,1,.6202-2.8945,75.52132,75.52132,0,0,1,14.0589-28.5317c.7237-.9821,1.4988-1.9641,2.2226-2.8945,1.7575-2.0673,3.5664-4.1349,5.4788-6.1508,35.1993-37.0599,105.8564-64.0924,182.6124-78.9267,12.095-6.7714,23.9313-13.1806,35.5093-19.0214l.0517-.0514c258.5415-131.6484,403.1632-52.5147,440.9986,57.8899v.0517c.5685,1.7058,1.137,3.4116,1.654,5.0656.4133,1.3436.8269,2.6875,1.1887,4.0832.4136,1.3957.7755,2.7393,1.137,4.0832.4654,1.8607.9307,3.6699,1.344,5.5306.517,2.1194.9303,4.2384,1.3439,6.3575.0517.1552.0517.3618.1035.5688.3618,1.8089.6719,3.7214.982,5.6338.3619,2.2742.672,4.5485.9821,6.8745.2066,2.0676.465,4.135.6202,6.2543.2067,2.1191.3619,4.2381.465,6.461A133.79862,133.79862,0,0,1,2782.5966,2305.6053Z" opacity=".55"/><path fill="#102770" d="M2527.8801 2260.7923h134.4395a137.1386 137.1386 0 00126.7379-84.716c.5686 1.7057 1.1372 3.3597 1.654 5.0654.4135 1.3439.827 2.6878 1.1888 4.0833.4135 1.3439.7754 2.7395 1.1372 4.0834.4652 1.809.9304 3.6698 1.3439 5.5305.5168 2.1192.9303 4.2384 1.3438 6.3576.0517.1551.0517.3618.1034.5169.3618 1.8607.6719 3.7732.9821 5.6856.3618 2.2743.6719 4.5485.982 6.8745.2068 2.0675.4652 4.135.6203 6.2025.2067 2.1709.3618 4.2901.4652 6.4609 4.0833 77.7899-58.7171 142.7612-136.5586 142.7612H2227.782c-43.1074 0-84.1991-21.0369-107.2517-57.4766-9.7173-15.4029-14.1624-29.9788-14.1624-43.7794 0-1.1888.0516-2.3777.1033-3.5665s.1551-2.3776.3102-3.5147c.1033-.8787.2067-1.7057.3618-2.5844.1033-.7236.2067-1.4473.3618-2.1709a28.90808 28.90808 0 01.6202-2.8945 75.52183 75.52183 0 0114.0591-28.5315c.7236-.9821 1.4989-1.9642 2.2225-2.8946 1.7574-2.1191 3.5665-4.135 5.4789-6.1508 35.1993-37.06 105.8562-64.1443 182.6123-78.9786 12.0949-6.7711 23.9313-13.1287 35.5093-18.9694-47.3458 51.1191-18.5558 132.5787 119.3984 142.6061zM1333.1176 2260.7923c137.9542-10.0274 166.7442-91.487 119.3984-142.6061 11.578 5.8407 23.4144 12.1983 35.5093 18.9694 76.7561 14.8343 147.413 41.9186 182.6123 78.9786 1.9124 2.0158 3.7215 4.0317 5.4789 6.1508.7236.9304 1.4989 1.9125 2.2225 2.8946a75.52183 75.52183 0 0114.0591 28.5315 28.90808 28.90808 0 01.6202 2.8945c.1551.7236.2585 1.4473.3618 2.1709.1551.8787.2585 1.7057.3618 2.5844.1551 1.1371.2585 2.3259.3102 3.5147s.1033 2.3777.1033 3.5665c0 13.8006-4.4451 28.3765-14.1624 43.7794-23.0526 36.4397-64.1443 57.4766-107.2517 57.4766H1138.2037c-77.8415 0-140.6419-64.9713-136.5586-142.7612.1034-2.1708.2585-4.29.4652-6.4609.1551-2.0675.4135-4.135.6203-6.2025.3101-2.326.6202-4.6002.982-6.8745.3102-1.9124.6203-3.8249.9821-5.6856.0517-.1551.0517-.3618.1034-.5169.4135-2.1192.827-4.2384 1.3438-6.3576.4135-1.8607.8787-3.7215 1.3439-5.5305.3618-1.3439.7237-2.7395 1.1372-4.0834.3618-1.3955.7753-2.7394 1.1888-4.0833.5168-1.7057 1.0854-3.3597 1.654-5.0654a137.1386 137.1386 0 00126.7379 84.716h194.9139z" opacity=".3"/><path fill="#102770" d="M2662.3169,2390.3751H2227.7588c-50.7739,0-98.5523-25.7129-124.69-67.1045-23.8769-37.8076-18.7133-69.2627-10.1782-88.9966,31.6309-73.1226,156.5039-105.6812,212.3755-116.7896,223.3838-124.5043,352.6489-90.437,409.9292-58.9135,61.5625,33.8842,100.5591,96.4233,104.3164,167.2949a154.18455,154.18455,0,0,1-42.6147,115.2588A158.58736,158.58736,0,0,1,2662.3169,2390.3751Zm-72.8906-320.3003c-75.2491,0-166.4307,28.7231-266.8238,85.0903a20.67266,20.67266,0,0,1-6.1962,2.2705c-97.7564,18.9038-168.8599,54.6362-185.564,93.2569-6.7578,15.6201-4.4068,32.1386,7.1875,50.498,18.6328,29.5044,53.0151,47.8345,89.729,47.8345h434.5581a115.504,115.504,0,0,0,84.5776-36.355,113.20376,113.20376,0,0,0,31.3233-84.6167c-3.0371-57.3413-33.2764-105.9107-82.9615-133.2568C2665.2148,2078.2633,2629.5825,2070.0748,2589.4263,2070.0748Zm-276.9458,67.063h0Z"/><circle cx="1890.008" cy="1680.456" r="603.397" fill="#ff5722"/><path fill="#fff" d="M1728.221,1347.5963c39.8164-82.8943,163.0027-106.4276,275.1444-52.563,112.1416,53.8647,170.7728,164.7297,130.9564,247.6241s-134.2229,30.3337-246.3645-23.5309C1775.8157,1465.2618,1688.4046,1430.4907,1728.221,1347.5963Z" opacity=".19"/><path fill="#fff" d="M2493.4045,1680.4439q0,16.43655-.8786,32.6148c-16.9019-318.137-280.1985-570.8377-602.5222-570.8377-322.3238,0-585.6204,252.7007-602.5223,570.8377q-.85275-16.20375-.8786-32.6148c0-333.2298,270.1708-603.4009,603.4009-603.4009C2223.2334,1077.043,2493.4045,1347.2141,2493.4045,1680.4439Z" opacity=".55"/><path fill="#102770" d="M2493.4045,1680.4439c0,333.2818-270.1711,603.4011-603.4008,603.4011-333.2301,0-603.4009-270.1193-603.4009-603.4011a600.63356,600.63356,0,0,1,5.2205-79.3921c38.8688,295.7048,291.8797,523.9571,598.1804,523.9571s559.3112-228.2523,598.1803-523.9571A600.68457,600.68457,0,0,1,2493.4045,1680.4439Z" opacity=".3"/><g opacity=".3"><path fill="#102770" d="M1788.8824 1696.0959c57.3261 5.8217 113.9045 23.5936 165.4163 51.1439a505.40719 505.40719 0 0173.4686 47.8307 548.36672 548.36672 0 0164.8127 59.2969 599.75763 599.75763 0 0199.9169 144.3197c25.8368 52.7457 44.5734 109.4239 52.1973 168.0817a21.02463 21.02463 0 01-41.4569 6.8762l-.0433-.2234a657.36285 657.36285 0 00-140.2912-292.5824 590.56959 590.56959 0 00-57.4377-58.8626 533.00229 533.00229 0 00-65.744-49.7177 485.10347 485.10347 0 00-152.7741-64.3112 6.01544 6.01544 0 011.9354-11.8518zM1858.9221 1499.6793c65.5152-1.4073 131.5357 11.7408 192.9785 36.1123 61.6455 24.1216 118.993 59.1678 169.8725 101.8647 50.8288 42.7517 95.7971 93.0456 131.0894 150.0328 35.2234 56.8177 61.3776 120.6572 70.0519 188.4559a21.01812 21.01812 0 01-41.5216 6.4582l-.0598-.3336c-10.8465-60.0659-35.0122-117.8873-66.9257-171.0553a663.00992 663.00992 0 00-118.1921-144.4295c-46.1499-42.3634-98.3972-78.4439-155.2954-105.5383-56.9531-26.8459-118.6749-44.4432-182.3334-49.5633a6.01163 6.01163 0 01.3357-12.0039zM1975.2521 1358.9665c27.9443-5.1524 56.6058-5.3253 84.848-2.9858 28.2977 2.3482 56.2213 7.8638 83.606 15.1117 54.765 14.7377 107.16 37.3872 156.4819 65.5801 49.1785 28.3821 95.8221 62.3563 135.4193 104.9553 4.9744 5.2815 9.7034 10.8635 14.4812 16.3593 4.6857 5.5989 9.071 11.5153 13.6078 17.2693 4.3341 5.952 8.4741 12.1002 12.6739 18.173 3.7781 6.4388 7.7533 12.7159 11.319 19.3086 14.1528 26.3311 24.6082 56.0926 26.2763 87.7762a21.01291 21.01291 0 01-41.8189 3.8327l-.1031-.8175c-2.9981-23.5746-11.6706-46.9486-23.9356-69.0683-12.2894-22.1442-28.2245-42.9027-45.708-62.4472-35.2856-38.9679-77.1747-73.1804-122.3126-102.3764-45.2204-29.0917-93.6621-53.966-144.6387-71.9013-50.8356-17.7861-104.5337-29.933-158.689-26.8561l-.0763.0043a6.01359 6.01359 0 01-1.4312-11.9179zM1828.7262 1801.0622c-18.3411 76.1583-21.2738 153.9293-10.7874 229.9351 5.2338 38.0033 13.5254 75.4898 23.6103 112.4979 10.0158 37.0569 22.6617 73.3551 35.6561 109.6533l.0836.2344a21.03251 21.03251 0 01-38.844 16.0199 643.46748 643.46748 0 01-40.6518-114.3555 656.098 656.098 0 01-18.783-120.2582 558.75656 558.75656 0 015.3034-121.5204 486.59424 486.59424 0 0133.0487-116.0891 6.02154 6.02154 0 0111.391 3.7756zM1806.4069 1423.2832c-51.2226 51.2577-89.1309 112.7897-117.5397 178.098a843.95729 843.95729 0 00-58.5614 205.2193 886.8742 886.8742 0 00-9.9957 106.4299 814.87943 814.87943 0 003.059 106.5198c6.6309 70.4547 22.5867 140.3952 53.5834 202.5833l.0812.1627a21.02052 21.02052 0 01-37.088 19.7641c-19.0961-33.5978-32.7417-69.6695-43.133-106.2623-10.4779-36.6293-16.7547-74.1415-20.6378-111.697-7.2064-75.2259-3.4076-150.9458 9.5972-224.9225a854.35314 854.35314 0 0127.0343-109.3274c11.7786-35.6777 25.6744-70.7567 43.0975-104.1437a556.64223 556.64223 0 0128.1964-48.8977 501.99939 501.99939 0 0133.0628-45.7393c23.6426-29.2312 50.9064-55.6932 81.5723-77.0262a6.02673 6.02673 0 017.7063 9.2056zM1560.1752 1460.0893c-18.421 19.5973-32.9846 41.8945-45.1917 65.5221a582.304 582.304 0 00-31.582 73.1189c-18.147 49.9698-30.9766 101.7967-40.2106 153.962-4.3408 26.1473-7.5195 52.4336-9.6368 78.7094a766.29282 766.29282 0 00-1.9391 78.7091c1.6504 52.1423 9.6399 103.9456 28.4961 150.7049l.1007.2497a21.02955 21.02955 0 01-38.233 17.4277c-13.3435-26.1356-22.2089-53.9991-28.1934-82.0502a476.27256 476.27256 0 01-9.8651-84.7858 625.86215 625.86215 0 013.1488-84.3857 719.87828 719.87828 0 0113.1531-82.8952 697.68881 697.68881 0 0153.7628-158.1601c12.4048-25.0135 26.347-49.3618 42.9712-71.9424 16.4966-22.5079 35.9906-43.5851 59.4623-58.868a3.016 3.016 0 013.8446 4.5914zM1928.2434 1230.8032c4.162-3.8972 8.2629-7.9469 12.5617-11.7723l13.3319-10.9413 13.9001-10.2672 14.4995-9.4133a403.17515 403.17515 0 0161.828-31.2782 419.12236 419.12236 0 0166.7188-20.7977c22.9437-4.8629 46.7975-7.4399 70.8789-4.9297a21.06217 21.06217 0 01-1.07 41.9811l-.462.0213c-20.5048 1.0803-41.2848 2.4257-62.2925 4.9202a467.51133 467.51133 0 00-62.937 11.5251 456.15473 456.15473 0 00-61.474 20.2303l-14.859 6.5945-14.6857 7.0824-14.339 7.8322-14.0136 8.5222-.3534.2148a6.01161 6.01161 0 01-7.2327-9.5244zM1661.38 1269.7066c3.371-5.8528 6.6718-11.7896 10.1471-17.6317l11.0577-17.1225 11.7884-16.6833 12.6428-16.0738a524.09953 524.09953 0 01122.5439-109.4629c23.4497-14.7971 48.6432-27.4603 75.6482-35.4376a21.05306 21.05306 0 0114.5099 39.4311l-.2264.098c-23.0396 10.2278-45.9992 20.7558-68.5803 32.6799a566.39872 566.39872 0 00-65.6989 40.1987 584.845 584.845 0 00-60.3876 49.0785l-14.0149 13.6522-13.6755 14.0721-13.1104 14.6614-12.6275 15.1645-.1862.2232a6.01233 6.01233 0 01-9.8303-6.8478z"/></g><path fill="#102770" d="M1890.0073,2304.5255c-344.1137,0-624.0698-279.9561-624.0698-624.0699,0-344.1137,279.9561-624.0698,624.0698-624.0698,344.1138,0,624.0698,279.9561,624.0698,624.0698C2514.0771,2024.5694,2234.1211,2304.5255,1890.0073,2304.5255Zm0-1206.792c-321.3135,0-582.7221,261.4087-582.7221,582.7221,0,321.3135,261.4086,582.7222,582.7221,582.7222s582.7222-261.4087,582.7222-582.7222C2472.7295,1359.1422,2211.3208,1097.7335,1890.0073,1097.7335Z"/><path fill="#fff" d="M2727.977,1496.5178c47.0769,167.2931-15.9983,316.3351-135.0739,349.8434-119.0756,33.5084-249.0602-61.2059-296.1371-228.4989s14.2456-315.6016,133.3212-349.1099S2680.9001,1329.2248,2727.977,1496.5178Z"/><path fill="#102770" d="M2592.9031,1846.3612c-119.0881,33.4935-249.0825-61.1982-296.1181-228.5109-.8789-3.0494-1.654-6.0474-2.4294-9.0971,61.9733,87.9724,153.3055,130.2528,239.0033,106.1148,116.7107-32.8218,179.6144-176.565,137.7476-339.7942,24.0863,34.062,43.7278,74.8953,56.8563,121.4659C2775.0501,1663.8006,2711.9912,1812.8674,2592.9031,1846.3612Z" opacity=".3"/><path fill="#fff" d="M2736.2327,1531.2218c-46.4671-135.5764-150.2558-216.726-252.3388-210.7301-5.789,29.7718-58.3552,45.5882-79.6505,23.9828-83.8888,48.7414-126.1178,164.4182-100.1705,296.7904q-3.9543-11.475-7.2879-23.4146c-47.0876-167.261,14.2141-315.6044,133.3022-349.0979,119.0881-33.4938,250.7883,60.4746,297.8756,227.7873C2731.2192,1508.1694,2734.0102,1519.7473,2736.2327,1531.2218Z" opacity=".55"/><path fill="#102770" d="M2544.2456,1873.776c-47.6196,0-95.5151-16.98-138.9038-49.8902-59.0942-44.8218-104.7217-116.001-128.479-200.4223-49.5117-175.9498,13.9526-336.9996,147.6245-374.6143,64.6533-18.1934,133.5352-3.3057,193.938,41.936,59.7559,44.751,105.73,115.8277,129.4531,200.1319,23.7305,84.331,21.6309,168.9672-5.918,238.3227-27.8686,70.1709-78.8183,118.833-143.457,137.0239A199.87586,199.87586,0,0,1,2544.2456,1873.776Zm-65.3271-591.0816a159.18376,159.18376,0,0,0-43.23,5.9595c-110.979,31.2304-162.146,170.3515-119.021,323.6084,21.333,75.8081,61.6992,139.2627,113.6621,178.6767,49.4141,37.4805,105.1587,50.0953,156.9726,35.5201,51.9483-14.6192,93.2251-54.5655,116.2305-112.483,24.2163-60.9716,25.8301-136.2109,4.541-211.8579h0c-21.2744-75.603-61.914-138.9038-114.436-178.2348C2557.3682,1296.7203,2517.8003,1282.6944,2478.9185,1282.6944Z"/><path fill="#102770" d="M2288.1415 1530.3897a203.99533 203.99533 0 0028.161-1.3121 207.23625 207.23625 0 0030.871-6.0745 200.26574 200.26574 0 0031.2494-11.9852 186.57409 186.57409 0 0030.0756-17.9294l.1709-.1246a5.34721 5.34721 0 017.4713 1.1674 5.40325 5.40325 0 01.6458 5.1357c-4.964 12.4248-12.9901 23.4843-22.2015 33.2853a146.27182 146.27182 0 01-31.9123 25.1624c-11.8628 6.9124-24.8724 12.6407-39.1461 15.3586-3.5229.786-7.2424 1.0771-10.871 1.5367a90.61124 90.61124 0 01-22.608-.9192 101.89475 101.89475 0 01-11.3165-3.0362 20.65678 20.65678 0 016.5887-40.3039zM2532.536 1679.2937c-1.6876 19.5486-11.0339 37.9442-23.9087 53.0121-13.0023 15.1165-29.9414 26.8162-48.7164 34.9484-18.7915 8.0388-40.0122 12.2598-61.4679 10.2992-21.3538-1.9446-42.6721-10.2222-58.8586-23.9137a20.75976 20.75976 0 0122.647-34.4394l.9253.4663c12.6661 6.3081 25.4743 10.2437 39.1071 11.0837a112.192 112.192 0 0041.6956-5.3839c13.9978-4.3733 27.3504-11.5048 40.3582-19.9015 13.111-8.4494 25.5512-18.403 38.8727-30.5899l.1337-.1222a5.51187 5.51187 0 019.212 4.5409z"/><path fill="#fff" d="M1072.5463,1496.5178c-47.0769,167.2931,15.9982,316.3351,135.0738,349.8434,119.0757,33.5084,249.0602-61.2059,296.1371-228.4989s-14.2455-315.6016-133.3212-349.1099C1251.3604,1235.2441,1119.6232,1329.2248,1072.5463,1496.5178Z"/><path fill="#fff" d="M1060.5913,1531.2218c46.4671-135.5764,150.2558-216.726,252.3388-210.7301,5.789,29.7718,58.3552,45.5882,79.6505,23.9828,83.8888,48.7414,126.1178,164.4182,100.1705,296.7904q3.95415-11.475,7.2878-23.4146c47.0877-167.261-14.214-315.6044-133.3021-349.0979-119.0881-33.4938-250.7883,60.4746-297.8756,227.7873C1065.6048,1508.1694,1062.8138,1519.7473,1060.5913,1531.2218Z" opacity=".55"/><path fill="#102770" d="M1256.2769,1873.776a199.79588,199.79588,0,0,1-54.2579-7.5123c-64.6386-18.1909-115.5883-66.853-143.457-137.0239-27.5488-69.3555-29.6484-153.9917-5.918-238.3227,23.7256-84.3067,69.6998-155.3809,129.4556-200.1319,60.4004-45.2368,129.2725-60.1318,193.938-41.936,64.5728,18.1714,115.2222,66.7383,142.6196,136.7554,26.9849,68.9575,28.7598,153.4326,5.0025,237.8589-23.7574,84.4213-69.3848,155.6005-128.4766,200.4223C1351.7969,1856.7935,1303.894,1873.776,1256.2769,1873.776Zm65.625-591.0523c-96.9458,0-192.4976,88.0737-229.4532,219.3945-21.289,75.647-19.6753,150.8863,4.541,211.8579,23.0054,57.9175,64.2823,97.8638,116.2305,112.483,51.8067,14.5727,107.5562,1.9628,156.9727-35.5201,51.9629-39.414,92.3291-102.8686,113.6621-178.6767,21.3354-75.8179,20.0195-150.9619-3.7036-211.5894-22.5635-57.6611-63.5157-97.4438-115.315-112.019A158.118,158.118,0,0,0,1321.9019,1282.7237Z"/><path fill="#102770" d="M1521.792,1570.6546a101.89475,101.89475,0,0,1-11.3165,3.0362,90.61179,90.61179,0,0,1-22.6081.9192c-3.6285-.4596-7.348-.7507-10.8709-1.5367-14.2737-2.7179-27.2828-8.4462-39.1462-15.3586a146.27124,146.27124,0,0,1-31.9122-25.1624c-9.2114-9.801-17.2369-20.8605-22.2015-33.2853a5.34736,5.34736,0,0,1,8.0877-6.3251l.2002.1466a186.60087,186.60087,0,0,0,30.0757,17.9294,200.28865,200.28865,0,0,0,31.2494,11.9852,207.25844,207.25844,0,0,0,30.8716,6.0745,203.991,203.991,0,0,0,28.1604,1.3121l2.7942-.0332a20.65336,20.65336,0,0,1,6.6162,40.2981Z"/><path fill="#102770" d="M1207.5346,1846.3612c119.0881,33.4935,249.0825-61.1982,296.1181-228.5109.8789-3.0494,1.654-6.0474,2.4295-9.0971-61.9734,87.9724-153.3056,130.2528-239.0034,106.1148-116.7107-32.8218-179.6144-176.565-137.7476-339.7942-24.0862,34.062-43.7278,74.8953-56.8563,121.4659C1025.3876,1663.8006,1088.4465,1812.8674,1207.5346,1846.3612Z" opacity=".3"/><path fill="#102770" d="M1277.3328,1674.875c13.3215,12.1869,25.7617,22.1405,38.8726,30.5899,13.0079,8.3967,26.3605,15.5282,40.3583,19.9015a112.19359,112.19359,0,0,0,41.6956,5.3839c13.6328-.84,26.441-4.7756,39.1076-11.0837l.9137-.4552a20.75708,20.75708,0,0,1,22.6587,34.4283c-16.1871,13.6915-37.5049,21.9691-58.8586,23.9137-21.4563,1.9606-42.6764-2.2604-61.4685-10.2992-18.7744-8.1322-35.7141-19.8319-48.7158-34.9484-12.8754-15.0679-22.2211-33.4635-23.9087-53.0121a5.51171,5.51171,0,0,1,9.1967-4.5546Z"/><path fill="#102770" d="M105.4379,2409.4554c0-33.4387,713.9089-60.5464,1594.5617-60.5464,880.6529,0,1594.5625,27.1077,1594.5625,60.5464,0,19.3299-238.5624,36.5438-609.9904,47.629-80.1469,21.6752-390.8964,37.8335-762.0233,37.8335-310.7875,0-579.2261-11.3312-705.3692-27.7447C572.5669,2459.4057,105.4379,2436.5029,105.4379,2409.4554Z" opacity=".3"/><path fill="#102770" d="M3138.7054,2375.7291c-239.7845,11.0287-479.5684,16.7987-719.353,20.7184q-359.67585,5.84835-719.3524,5.9259-359.67585.212-719.3524-5.8463c-239.7843-3.9044-479.5685-9.7027-719.3527-20.798,239.7842-11.0953,479.5684-16.8936,719.3527-20.7981q359.67585-5.79705,719.3524-5.8462,359.67585-.0645,719.3524,5.9259C2659.137,2358.9304,2898.9209,2364.7,3138.7054,2375.7291Z"/><path fill="#102770" d="M772.1242,1872.4347s-53.5181,54.5138-66.759,120.172c-8.1246,40.2882-52.7794,62.8977-89.1121,43.6861q-2.123-1.12245-4.2768-2.4134s70.8606,89.5854,128.4679,18.9489l76.8265-130.6577Z" opacity=".3"/></svg>