<svg xmlns="http://www.w3.org/2000/svg" data-name="Layer 1" viewBox="0 0 3000 3000"><path fill="#102770" d="M158.24591,2731.32025c0-61.8348,600.22852-111.9625,1340.64932-111.9625,740.4207,0,1340.6499,50.1277,1340.6499,111.9625,0,35.7449-200.5745,67.577-512.8577,88.0758-67.3846,40.0817-328.6514,69.9617-640.6813,69.9617-261.2988,0-486.9922-20.9536-593.0487-51.3055C550.99093,2823.68845,158.24591,2781.33665,158.24591,2731.32025Z" opacity=".3"/><path fill="#fff" d="M2276.23933,2270.69255c190.1305,20.4449,343.4167-95.4,346.7956-273.2958.8862-46.6561-9.6581-92.832-28.5959-135.481-68.8228-154.9924-65.2233-268.1042,12.5733-318.4738,19.2508-12.464,44.5683-7.7312,59.6829,9.5167,96.2151,109.7953,226.3645-49.7602,107.5138-141.0772-15.574-11.966-33.4433-20.6133-52.1169-26.6986-249.0054-81.1445-412.3184,188.0483-323.2776,439.1799,65.9386,178.2603,42.475,287.0548-106.9173,298.0027l-84.2132,62.4296Z"/><path fill="#102770" d="M2594.45123 1861.93735c18.9454 42.6084 29.4944 88.7995 28.5778 135.4412-3.3907 177.9222-156.6635 293.7646-346.7945 273.2999l-19.848-61.6885c167.019-2.3957 290.9899-39.9256 297.3573-239.9277 1.4845-46.6274-9.6324-92.8328-28.5765-135.4912-58.1239-130.8782-64.6119-231.8782-18.381-290.4613 25.1415-31.859 71.9289-34.0824 102.0222-6.8524q2.04225 1.848 4.0989 3.5517C2529.41593 1588.24835 2523.918 1703.14405 2594.45123 1861.93735zM2674.812 1561.53075c69.8784-5.9297 117.8731-110.564 30.1013-177.9755-2.4025-1.8635-4.8573-3.628-7.4145-5.2952q12.1545 2.868 24.5774 6.9433c18.6974 6.0896 36.5787 14.7088 52.1223 26.6682C2889.72243 1500.664 2769.98593 1653.89385 2674.812 1561.53075z" opacity=".3"/><path fill="#fefefe" d="M2820.40023,1483.35055a134.84624,134.84624,0,0,0-29.752-30.9863c-15.5437-11.9593-33.4237-20.6286-52.121-26.7182-32.3361-10.5468-63.2265-15.1539-92.2992-14.6619-19.3569,32.6063-63.0167,43.9216-94.3927,21.4958-134.3784,62.6174-200.4436,252.159-136.5701,432.3359,65.9234,178.2796,42.479,287.0552-106.9075,298.0136l-74.2603,55.0324-26.3972-33.0498,84.2065-62.4253c149.3865-10.9584,172.8323-119.7841,106.9075-298.0136-89.031-251.1571,74.2939-520.3396,323.262-439.1698,18.6974,6.0896,36.5787,14.7088,52.1223,26.6682C2802.19753,1433.35875,2816.342,1458.68645,2820.40023,1483.35055Z" opacity=".55"/><path fill="#102770" d="M2319.86723,2293.06615a428.22644,428.22644,0,0,1-45.7666-2.4878,20.00337,20.00337,0,0,1-13.4937-7.4097l-68.5547-85.8984a20.0032,20.0032,0,0,1,3.7207-28.5425l84.2115-62.4292a20.01162,20.01162,0,0,1,10.4492-3.8794c52.3852-3.8379,86.9971-19.9219,105.813-49.1724,27.7685-43.1591,22.3218-117.8344-16.189-221.9458-51.4648-145.144-23.457-306.643,69.6045-402.1264,72.2974-74.1822,173.855-97.1485,278.6255-63.0078,22.185,7.2314,41.7358,17.2754,58.1079,29.8559,42.9785,33.0225,62.334,78.5864,53.1006,125.0073-8.313,41.7969-38.6157,75.503-77.1997,85.8716-38.4522,10.3247-78.7085-4.4433-110.4444-40.5346-9.2797-10.5567-25.2539-12.2754-37.1435-4.0088-64.7559,44.9975-65.4614,148.5009-1.9898,291.4404,21.0279,47.356,31.2256,95.7983,30.3125,143.9795-1.6113,84.7851-36.1352,161.1206-97.2119,214.9438C2486.23443,2265.22675,2407.23053,2293.06615,2319.86723,2293.06615Zm-33.2715-41.46c90.874,7.8882,173.2519-16.4404,232.7759-68.8965,53.3203-46.9848,82.251-111.1963,83.667-185.6933.8032-42.2876-8.2398-85.0122-26.8775-126.9824-72.124-162.4268-66.5405-283.3594,15.7202-340.5225,28.606-19.8779,67.2998-15.3882,90.0098,10.4419,21.6187,24.5825,46.4795,34.6411,70.0269,28.3179,23.6328-6.3501,43.0615-28.4717,48.3471-55.044,3.6133-18.1763,3.4522-53.4497-38.2422-85.4858-12.7587-9.8047-28.2788-17.7246-46.1303-23.5425-91.0547-29.668-175.4273-10.8838-237.5855,52.8931-82.6684,84.8217-107.0386,229.729-60.6421,360.5859,43.6206,117.9248,47.649,202.1435,12.2217,257.2119-24.9438,38.7695-68.8794,61.272-130.6616,66.9385l-62.981,46.6894Z"/><path fill="#6b184e" d="M996.38823 1969.35765a19.91167 19.91167 0 01-13.3301-5.0977 332.93863 332.93863 0 00-30.6421-24.4751 19.99959 19.99959 0 1122.959-32.7539 372.39052 372.39052 0 0134.3579 27.4243 20 20 0 01-13.3447 34.9024zM792.665 2489.66035a20.31787 20.31787 0 1115.0684-33.2837 25.76734 25.76734 0 012.1216 3.0908 20.00372 20.00372 0 01-17.19 30.1929zm-16.1255-8.2422l.0171.022A.13007.13007 0 00776.53953 2481.41815zm-.0146-.0195l.0073.0098zm16.1206-11.7407l-17.2168 10.1782.0073.0122z"/><path fill="#fff" d="M2338.99563,2165.00765c-7.45,94.1998-39.7501,204.95-102.9001,321.9998,29.7,23.5001,47.5501,66.9501,38.3499,112.75-8.8998,44.0002-41.8499,79.15-84.1998,94.0503-120.65,42.3498-374.0002,43.1997-359.7-94.4501h-635c26.6998,141.6498-266.6501,146.6498-358.0002,95-102.9498-51.6001-109.65-166.6001-45.3998-225.4502-59.7-90.7998-104.75-234.5498-110.7501-319.5498-23.5501-185.95,110.2499-347.5501,282.5-225.95v-141.55c-278.5999-47.8-542.5-390-492.5-878.7,32.5-294.5501,317.5-321.3,410.05-101.1502l1247.8,584.2002c1.9999.1998,4.05.4498,6.0999.7498,109.1501,15.8502,243.6001,190.7501,46.0501,458.6502a302.80954,302.80954,0,0,1-27.9501,32.55C2277.59553,1866.50755,2353.19543,1985.80755,2338.99563,2165.00765Z"/><path fill="#f8c071" d="M1161.39553,2637.30745h33.2001c-5.4502,20.1502-19.1001,36.4002-38.1501,49.1501C1162.84543,2672.35755,1164.94563,2656.00745,1161.39553,2637.30745Z"/><path fill="#fefefe" d="M2160.09553 1865.55755c-2.45 3.5999-5 7.2-7.6999 10.8499q-2.7.2253-5.4001.4502A169.65792 169.65792 0 012160.09553 1865.55755zM2338.99563 2165.00765c-7.45 94.1998-39.7501 204.95-102.9001 321.9998 29.7 23.5001 47.5501 66.9501 38.3499 112.75-6.1499 30.5001-23.8998 56.8002-48.3499 75a120.698 120.698 0 005.7638-111.1771 117.7393 117.7393 0 01-.0051-98.4763c43.6282-94.847 66.8242-184.1672 72.9913-262.1466 14.2001-179.1998-61.4001-298.5-185.5499-286.8499a302.82269 302.82269 0 0027.9498-32.5501c1.7502-2.3999 3.5001-4.7998 5.1502-7.15C2273.54553 1868.70765 2352.99553 1988.40765 2338.99563 2165.00765z" opacity=".55"/><path fill="#102770" d="M2265.99543,2525.55755a120.28946,120.28946,0,0,1,8.45,74.1999c-8.8998,44.0002-41.8499,79.15-84.1998,94.0503-120.65,42.3498-374.0002,43.1997-359.7-94.4501h-635c26.6998,141.6498-266.6501,146.6498-358.0002,95-80.4498-40.3-102.0999-119.35-77.0999-180,12.6999,31.3998,37.9501,60.1999,77.0999,79.7998,91.3501,51.6501,384.7,46.6501,358.0002-95h635c-14.3002,137.6501,239.05,136.8002,359.7,94.4501C2223.84553,2581.75755,2251.54563,2557.20765,2265.99543,2525.55755Z" opacity=".3"/><path fill="#fefefe" d="M2135.34543,1442.90745c-2.0499-.3-4.1-.5499-6.0999-.7498l-1247.8-584.2002c-92.55-220.1498-377.55-193.3999-410.05,101.1502q-4.65,45.5247-5.75013,89.4498a1145.31276,1145.31276,0,0,1,5.75013-145.3998c32.5-294.5501,317.5-321.3,410.05-101.1502l1247.8,584.2002c1.9999.1998,4.05.4498,6.0999.7498,73.8,10.7,159.2001,94.2001,145.65,230C2269.94563,1514.35765,2198.39563,1452.05755,2135.34543,1442.90745Z" opacity=".55"/><path fill="#102770" d="M993.04833,2744.43575c-65.8203.0024-129.5459-12.6221-164.9048-32.4194-53.6035-27.024-88.6084-73.169-96.0644-126.6748a150.07335,150.07335,0,0,1,34.7436-119.0308c-58.8671-96.2744-99.4165-233.0786-105.3369-314.9902-14.27-114.0479,27.3096-221.3648,103.5572-267.1778,53.1469-31.9336,115.6518-30.4956,178.8525,3.3594v-89.1186c-141.4746-29.9829-274.2725-131.1817-366.4771-280.0049-74.0283-119.4898-155.96672-323.5718-125.9179-617.2559,19.22847-174.2773,119.1748-249.8218,206.3037-262.4585,98.9136-14.3677,191.98,43.7354,238.9697,148.4351l1237.9663,579.5996c1.1621.1416,2.334.2978,3.5034.4687,60.7203,8.8184,117.6954,56.9605,145.127,122.6465,25.0146,59.895,47.1191,187.3072-85.8789,367.6636q-.6702.9045-1.3477,1.8042c34.6851,5.1465,65.7544,20.6714,91.399,45.9473,55.0903,54.2968,80.4419,147.1142,71.3891,261.3574l.0025-.0025c-7.8418,99.1626-41.648,208.1812-97.9395,316.1597,29.1382,30.6885,42.0093,76.3941,33.0591,120.9546-10.0488,49.6753-47.2803,91.4233-97.1704,108.9771-91.023,31.9458-266.46,43.5937-345.6177-18.9087-24.6606-19.4703-38.5669-44.9024-40.9326-74.4092h-593.0811c-.6762,32.1777-16.2182,59.8681-45.7641,81.0156C1127.85553,2731.60615,1059.38873,2744.43335,993.04833,2744.43575Zm-145.3271-843.3911a118.78588,118.78588,0,0,0-62.0777,17.3852c-62.9956,37.8492-96.9165,129.6436-84.4067,228.4156.0464.3662.083.7348.1099,1.1035,5.5688,78.9062,48.2568,219.8535,107.5097,309.9731a19.99849,19.99849,0,0,1-3.2031,25.7349c-26.2988,24.0869-38.9941,60.0366-33.9575,96.1645,5.7153,41.0157,32.2827,75.3418,74.812,96.6553.2979.1514.5908.3076.8814.4712,60.5468,34.2359,228.7011,42.522,300.8178-9.1015,23.6548-16.9312,32.71-38.1226,27.6856-64.7852a19.99916,19.99916,0,0,1,19.6533-23.7036h635a19.99832,19.99832,0,0,1,19.8926,22.0654c-2.6294,25.3272,5.747,45.2637,25.6152,60.9497,64.4971,50.9278,225.2417,41.4575,307.5684,12.5635,36.6601-12.898,63.955-43.2251,71.2207-79.1431,7.0947-35.3149-5.4248-72.7417-31.1573-93.103a20.00025,20.00025,0,0,1-5.1928-25.1807c58.0517-107.5976,92.8271-216.2036,100.5639-314.0796l.0025-.0024c7.9858-100.7861-13.7354-184.5117-59.5948-229.7095-27.9199-27.5195-62.9516-39.5166-104.1503-35.6469a19.99934,19.99934,0,0,1-16.0816-33.982,284.46409,284.46409,0,0,0,26.106-30.4028c121.2524-164.4336,102.8735-276.3721,81.123-328.457-26.8847-64.375-78.208-93.2837-113.9892-98.479-1.7701-.2588-3.5132-.4712-5.2173-.6421a19.985,19.985,0,0,1-6.4917-1.7871L872.96533,820.11935a20.00775,20.00775,0,0,1-9.956-10.3613c-38.6182-91.8653-116.9214-143.4595-199.4629-131.5088-72.3242,10.4907-155.5615,75.6592-172.27053,227.102-22.5342,220.2393,20.12943,430.5249,120.14653,591.9605,89.7778,144.9072,219.4799,241.4355,355.8544,264.834a19.99923,19.99923,0,0,1,16.6187,19.7119V1923.408a19.99766,19.99766,0,0,1-31.5332,16.3379C915.89753,1914.00605,880.563,1901.04465,847.72123,1901.04465Z"/><circle cx="1524.501" cy="2241.772" r="513.324" fill="#22a7f0"/><path fill="#fff" d="M2037.82513,2241.76135q0,13.983-.7475,27.7462c-14.3788-270.6466-238.3714-485.625-512.5797-485.625s-498.2008,214.9784-512.5797,485.625q-.7254-13.785-.7474-27.7462c0-283.4863,229.8406-513.3272,513.3271-513.3272C1807.98423,1728.43415,2037.82513,1958.27505,2037.82513,2241.76135Z" opacity=".55"/><path fill="#102770" d="M2037.82513,2241.76135c0,283.5306-229.8409,513.3274-513.3272,513.3274-283.4865,0-513.3271-229.7968-513.3271-513.3274a510.95817,510.95817,0,0,1,4.4412-67.5407c33.0666,251.563,248.3088,445.7425,508.8859,445.7425,260.5772,0,475.8191-194.1795,508.886-445.7425A511.02619,511.02619,0,0,1,2037.82513,2241.76135Z" opacity=".3"/><g opacity=".3"><path fill="#102770" d="M1438.33893 2255.88835c48.6071 5.3656 96.3678 20.8826 139.8089 44.4953a423.00756 423.00756 0 0162.0215 40.7355 468.777 468.777 0 0154.6332 50.4156 512.69247 512.69247 0 0184.2273 122.3285c21.9317 44.61 37.5201 92.58 44.3701 142.0813a15.00354 15.00354 0 01-29.5972 4.881l-.0244-.1319a538.8388 538.8388 0 00-43.9978-132.6055 546.00807 546.00807 0 00-76.1609-117.6581 498.73834 498.73834 0 00-49.3689-50.1062 461.67038 461.67038 0 00-56.4099-42.2504 412.15444 412.15444 0 00-130.8832-53.7256 4.29158 4.29158 0 011.3813-8.4595zM1498.03313 2088.80285c55.6085-.7501 111.4789 10.7397 163.4424 31.6424 52.1185 20.7245 100.556 50.6098 143.5162 86.9104 42.9205 36.3459 80.8282 79.0375 110.6378 127.2528 29.7388 48.086 51.8524 101.9837 59.3811 159.1321a15.00144 15.00144 0 01-29.6417 4.5911l-.0385-.2197c-9.0783-51.6291-29.7729-101.2311-57.149-146.7121a561.409 561.409 0 00-101.4325-123.2532c-39.5844-36.0626-84.3811-66.6857-133.111-89.5324-48.7591-22.6691-101.5619-37.3346-155.8447-41.2433a4.28942 4.28942 0 01.2399-8.5681zM1597.12363 1969.08905c23.7098-4.1351 47.9828-4.1198 71.8921-1.9507 23.9618 2.1454 47.5562 7.1045 70.7154 13.3777 46.4093 12.5397 90.5798 32.2626 132.2778 56.2287 41.6309 24.0735 80.9894 53.0066 114.3726 89.0033 4.1955 4.4635 8.1695 9.1821 12.2033 13.8171 3.9514 4.7229 7.6435 9.7095 11.4679 14.5593 3.6499 5.0141 7.1302 10.1911 10.6696 15.3022 3.1787 5.4107 6.5301 10.6878 9.53 16.2231 5.8728 11.1633 11.2372 22.7185 14.9335 35.0989 4.1949 12.1496 6.2439 25.2228 7.2601 38.2934a14.99057 14.99057 0 01-29.8309 2.9346l-.0916-.7825c-2.4109-20.6219-9.9084-40.9546-20.523-60.039-10.5829-19.137-24.2957-36.9709-39.3213-53.7183-30.3211-33.3948-66.2793-62.4695-104.8859-87.3785a597.29794 597.29794 0 00-60.1501-33.9069c-20.7373-10.0494-41.9043-19.3634-63.7421-26.8231a443.18466 443.18466 0 00-66.8396-17.5409 284.8559 284.8559 0 00-68.8611-4.195l-.0531.0037a4.29023 4.29023 0 01-1.0236-8.5071zM1471.58963 2344.108a515.30587 515.30587 0 00-15.0421 97.9151 547.14237 547.14237 0 003.9776 98.222 733.80007 733.80007 0 0019.7547 96.236c8.6065 31.6479 19.1937 62.7576 30.6756 93.6066l.0574.1544a15.00619 15.00619 0 01-27.7234 11.4471 576.04609 576.04609 0 01-34.2413-96.9629 568.71773 568.71773 0 01-16.3092-101.7749 470.64909 470.64909 0 013.8812-102.9174 414.7276 414.7276 0 0126.8585-98.6969 4.29382 4.29382 0 018.1311 2.6928zM1452.85493 2022.35625c-44.2786 43.0396-77.146 95.4248-101.7255 151.0712a674.32763 674.32763 0 00-30.9406 85.9088 692.67349 692.67349 0 00-19.6716 89.2414c-9.3542 60.2154-11.7975 121.5893-6.0834 181.9812 5.7099 60.2447 19.4519 120.119 46.2824 173.3953l.0586.1166a15.00219 15.00219 0 01-26.4728 14.1059c-15.9894-28.4095-27.4854-58.888-36.2012-89.8475-8.7768-30.99-14.0997-62.7258-17.3529-94.5221-6.0943-63.681-2.9315-127.8314 7.9828-190.5273 11.0913-62.6221 29.8999-124.1718 58.8702-181.0394a468.64853 468.64853 0 0151.3581-80.4883c19.8285-24.9146 42.6782-47.5488 68.4204-65.9906a4.2969 4.2969 0 015.498 6.5735zM1243.64833 2053.97985c-16.0174 16.3763-28.7451 35.2618-39.4232 55.2856a485.81166 485.81166 0 00-27.6471 62.1234c-15.8862 42.5238-27.1668 86.7047-35.1367 131.2665q-5.70105 33.4845-8.4387 67.2467a638.7765 638.7765 0 00-1.7328 67.348c1.4257 44.6454 8.3355 89.1339 24.8974 129.3128l.0647.1562a15.00724 15.00724 0 01-27.2821 12.4616c-11.084-22.0429-18.479-45.5298-23.471-69.206a407.86674 407.86674 0 01-8.252-71.621 539.37118 539.37118 0 012.5958-71.3996 623.07323 623.07323 0 0110.9491-70.2344 614.20726 614.20726 0 0118.5193-68.4448 568.32344 568.32344 0 0126.2903-65.8185c10.3137-21.2817 21.9342-42.0056 35.7764-61.2835 13.7402-19.2249 29.9865-37.2388 49.6087-50.5359a2.14921 2.14921 0 012.7429 3.2812zM1557.54913 1859.87885a256.70819 256.70819 0 0146.4349-35.2191 336.51993 336.51993 0 0152.5958-25.7867 372.58534 372.58534 0 0156.4789-17.1241c19.386-3.9898 39.469-6.0571 59.7107-4.1931a15.02277 15.02277 0 01-.8258 29.9719l-.2686.0086c-17.6892.6476-35.5761 1.9171-53.5809 4.1864a376.56079 376.56079 0 00-53.8232 10.3735 396.9759 396.9759 0 00-52.2992 18.0329 309.63606 309.63606 0 00-49.0082 26.3946l-.0263.0177a4.30055 4.30055 0 01-5.3881-6.6626zM1330.68813 1892.79145a373.27764 373.27764 0 0139.3573-56.7517 435.62144 435.62144 0 0148.5339-49.7259 457.49886 457.49886 0 0155.9601-42.0142c19.8841-12.4048 41.178-22.9968 63.8715-29.9591a15.01871 15.01871 0 0110.3924 28.1317l-.1977.083c-19.8804 8.5254-39.5514 17.6624-58.8263 27.9907a459.37547 459.37547 0 00-55.9436 34.8249 507.48627 507.48627 0 00-51.0785 42.5073 459.07874 459.07874 0 00-44.9194 49.6417 4.29681 4.29681 0 01-7.1497-4.7284z"/></g><path fill="#fff" d="M1597.67863,2322.65235c-15.5398,76.6744-112.2249,121.7891-215.952,100.7663-103.7272-21.0227-175.2171-100.2219-159.6772-176.8964,15.5399-76.6744,104.3682-53.0262,208.0953-32.0034C1533.87193,2235.54155,1613.21853,2245.97785,1597.67863,2322.65235Z" opacity=".19"/><path fill="#102770" d="M1524.501 2775.095c-294.0747 0-533.3228-239.2481-533.3228-533.3228 0-294.0771 239.2481-533.3252 533.3228-533.3252 294.0771 0 533.3252 239.2481 533.3252 533.3252C2057.82623 2535.84685 1818.57813 2775.095 1524.501 2775.095zm0-1026.648c-272.0191 0-493.3228 221.3037-493.3228 493.3252 0 272.0191 221.3037 493.3228 493.3228 493.3228 272.0215 0 493.3252-221.3037 493.3252-493.3228C2017.82623 1969.75065 1796.52253 1748.447 1524.501 1748.447zM978.45423 2436.45485c-16.7578-.2155-32.9956-.0428-48.9966 2.149a313.39326 313.39326 0 00-46.7395 9.9316c-15.1751 4.5581-29.801 10.484-44.1217 16.7188-3.6059 1.524-7.0648 3.2995-10.6323 4.8688l-10.4205 5.1135c-3.3454 1.8371-6.8427 3.4875-10.0232 5.3454-3.2727 1.7176-6.4594 3.7153-8.4931 4.8365l-2.7038 1.4911a14.84916 14.84916 0 01-17.5598-23.6127 83.47745 83.47745 0 0111.7761-9.6411c3.8043-2.6569 7.6233-4.9597 11.5271-7.1887a187.4651 187.4651 0 0124.0417-11.2622 229.29579 229.29579 0 0150.9168-13.1086 238.94761 238.94761 0 0152.1966-1.3598 196.76711 196.76711 0 0150.1148 11.524 2.1653 2.1653 0 01-.7739 4.1962z"/><path fill="#fff" d="M2153.44543,1878.15765c-165.95,168.1501-493.8498,115.6501-436.8998-81.5002a.21965.21965,0,0,1,.0498-.1499c12.0001-41.4999,111.1001-173.5498,162.3001-227.1499l211.3501,267.5998Z"/><path fill="#102770" d="M1812.51063,1656.96135c-20.1343,24.0577-39.3652,48.8355-54.6594,75.6006-15.661,26.388-27.7112,54.9164-31.8353,83.6866-4.1614,28.6798.9985,57.207,17.0404,79.1101,7.7478,11.0821,18.081,20.4003,29.4751,28.3258a171.30636,171.30636,0,0,0,37.9608,18.7652c54.2663,18.8428,116.5588,21.0156,174.5282,6.8085,58.0914-13.8959,112.5744-43.1244,154.1907-85.1495l.0494-.0501a19.99984,19.99984,0,0,1,28.4222,28.1452l-.0024.003c-47.4341,47.8815-108.617,80.4431-173.2648,95.9326a397.93105,397.93105,0,0,1-99.2175,11.1151c-33.4631-.7122-67.4878-6.0931-99.3213-19.6197a209.357,209.357,0,0,1-45.1642-26.1688c-13.833-10.9626-26.535-24.0027-35.9662-39.488a134.39917,134.39917,0,0,1-11.8432-24.3664,131.3958,131.3958,0,0,1-6.3581-26.1609,141.12742,141.12742,0,0,1-1.1541-26.4673,171.76425,171.76425,0,0,1,3.7201-25.664,214.73247,214.73247,0,0,1,17.0306-47.3298,294.29139,294.29139,0,0,1,25.2368-42.0648,422.20131,422.20131,0,0,1,30.3687-37.6245c10.5822-12.0587,22.008-23.2538,33.5333-34.2468a5.00526,5.00526,0,0,1,7.2931,6.8341Z"/><path fill="#ff5722" d="M2081.96593,1287.35015c53.7494,2.3671,83.5963,57.8408,42.7629,104.5075-231.6667,248.3333-733.4527,276.6146-1086.3244,78.6229-94.5089-66.1229-48.6756-136.9563-6.5603-141.6812Z"/><path fill="#102770" d="M2124.74543,1391.85765c-231.6998,248.3499-733.45,276.6-1086.3498,78.5998-57.6501-40.35-63.0502-82.3999-48.9502-110.1999,7.75,17.3499,23.1,35.7999,48.9502,53.8999,352.8998,198.0002,854.65,169.7,1086.3498-78.5999a82.67522,82.67522,0,0,0,11.7001-17.0999C2148.19543,1339.00755,2146.74553,1366.70745,2124.74543,1391.85765Z" opacity=".3"/><path fill="#102770" d="M1554.02493,1618.75945c-178.5669,0-364.6387-43.4985-524.1821-133.0175a17.26645,17.26645,0,0,1-1.4698-.9229c-69.1259-48.3618-65.3955-97.5342-60.5835-116.4307,7.7198-30.3125,33.2569-53.7426,62.1045-56.9799.4175-.0489.8399-.0806,1.2598-.0953l1050.1221-41.4477c.4858-.022.9741-.0195,1.4599.0024,32.9517,1.4502,60.7959,19.5996,72.6636,47.3633,11.897,27.8247,5.354,60.0318-17.5024,86.1499-.1221.1392-.2466.2783-.3736.4151C2005.55573,1545.261,1786.12943,1618.75945,1554.02493,1618.75945Zm-506.2891-163.1103c166.5772,93.2422,377.229,138.9502,578.1079,125.4297,205.2149-13.8135,377.7588-85.1734,485.8887-200.9449,13.8452-15.9326,18.0322-33.8305,11.4844-49.1455-6.4551-15.1001-22.2559-25.0634-41.3355-26.1206l-1048.6279,41.3892c-12.0068,1.626-26.9775,12.8296-31.5478,30.769C995.37013,1401.90405,1012.14013,1430.52705,1047.73583,1455.64915Z"/><circle cx="1544.498" cy="1646.858" r="135" fill="#fdd835"/><path fill="#102770" d="M1679.49553,1646.85765a135,135,0,0,1-270,0,128.46357,128.46357,0,0,1,2.0001-22.9502,134.95835,134.95835,0,0,0,265.9998,0A128.46357,128.46357,0,0,1,1679.49553,1646.85765Z" opacity=".3"/><path fill="#fff" d="M1679.49553,1646.85765a131.04718,131.04718,0,0,1-1.8,21.85,134.96682,134.96682,0,0,0-266.4001,0,131.05783,131.05783,0,0,1-1.7999-21.85,135,135,0,0,1,270,0Z" opacity=".55"/><path fill="#102770" d="M1544.49853,1799.35765c-84.0893,0-152.5-68.4107-152.5-152.5,0-84.0894,68.4107-152.5,152.5-152.5,84.0894,0,152.5,68.4106,152.5,152.5C1696.99853,1730.947,1628.58793,1799.35765,1544.49853,1799.35765Zm0-270a117.5,117.5,0,1,0,117.5,117.5A117.63265,117.63265,0,0,0,1544.49853,1529.35765Z"/><path fill="#102770" d="M1707.02053,1668.52515H1380.563a15,15,0,1,1,0-30h326.4575a15,15,0,1,1,0,30Z"/><circle cx="1543.791" cy="1737.743" r="44.115" fill="#102770"/><path fill="#102770" d="M1716.01533 1870.17065l62.8155-47.0252a6.62719 6.62719 0 019.2535 9.3079l-47.3925 62.5384a17.67258 17.67258 0 11-28.1702-21.3476A18.3024 18.3024 0 011716.01533 1870.17065zM1835.13393 1963.12835l45.5072-60.2588a6.63229 6.63229 0 0111.5088 6.3092l-26.3251 70.7746a17.68651 17.68651 0 11-33.1537-12.3322A18.27923 18.27923 0 011835.13393 1963.12835zM853.06793 2694.98145l27.1899-80.5951a6.61723 6.61723 0 0112.8723 2.5616l-5.7355 84.8645a17.64636 17.64636 0 01-35.2124-2.3797A18.36236 18.36236 0 01853.06793 2694.98145zM1971.79223 2707.22505l27.19-80.5957a6.61729 6.61729 0 0112.8723 2.5617l-5.7355 84.8645a17.64636 17.64636 0 11-35.2124-2.3798A18.36508 18.36508 0 011971.79223 2707.22505zM1020.74673 2713.76315l.0977-85.0586a6.61751 6.61751 0 0113.0181-1.6724l21.5992 82.2699a17.64658 17.64658 0 01-34.1364 8.9618A18.3743 18.3743 0 011020.74673 2713.76315zM2146.33023 2700.76515l.0976-85.058a6.61756 6.61756 0 0113.0182-1.673l21.5985 82.2705a17.64625 17.64625 0 11-34.1357 8.9618A18.34647 18.34647 0 012146.33023 2700.76515zM599.98093 903.251a77.57052 77.57052 0 01154.7728 10.6828c-2.9499 42.7393-38.8453 58.4334-81.5846 55.4834C630.42973 966.46725 597.03093 945.99035 599.98093 903.251zM638.87163 774.46015c12.4632 16.9577 3.372 33.3958-13.5857 45.8591s-35.3604 16.2322-47.8236-.7255a38.10559 38.10559 0 1161.4093-45.1336zM742.74033 790.69105c-11.3457 21.0398-32.6401 19.7019-53.6799 8.3562-21.0398-11.3456-33.8578-28.4026-22.5121-49.4424a43.28192 43.28192 0 0176.192 41.0862zM812.02933 844.36435c.0848 17.6991-14.2315 24.3795-31.9306 24.4644-17.6992.0849-32.0789-6.4579-32.1638-24.1571a32.04757 32.04757 0 0164.0944-.3073z"/><path fill="#102770" d="M2181.39553 1845.60765a302.80954 302.80954 0 01-27.9501 32.55c-165.95 168.1501-493.8498 115.6501-436.8998-81.5002a.21965.21965 0 01.0498-.1499c61.85 119.6 232.0833 112.1196 360.6334 19.7193 81.4499-58.4997 153.9168-138.7192 146.6667-281.8692.65-81.3001-63.8501-133.15-99.1501-142.5 0 0 3.8501-1.7999 10.6-4.9002C2244.49553 1402.80765 2378.94553 1577.70755 2181.39553 1845.60765zM1007.66813 1443.84005c32.8941 157.0955 224.5607 317.4103 401.8298 293.9031l18.3186-23.0151-17.3619-83.7174-.9567-40.728-191.7556-42.0448z" opacity=".3"/><path fill="#102770" d="M2083.89553,1431.02435c0,80.8333-56.6667,204.9999-266.322,228.1413l-88.5317,104.7396-76.813-23.8561,27.2691-57.0972-.0024-89.2994,188.942-44.2214,169.3876-68.1312Z" opacity=".3"/><path fill="#fff" d="M922.26933,583.05945s-13.5058-410.6151,154.9631-449.8147c0,0,129.3353-47.9165,308.1646,255.6632Z"/><path fill="#102770" d="M922.272,603.05885a19.99981,19.99981,0,0,1-19.9927-19.3433c-.5713-17.4097-11.9287-426.3135,169.6069-469.7583,17.063-5.2319,153.8452-35.4981,330.7422,264.7998a19.99928,19.99928,0,0,1-9.4995,28.5962l-463.1274,194.1504A19.95861,19.95861,0,0,1,922.272,603.05885Zm175.6714-452.5318c-8.7769,0-13.5376,1.3892-13.7623,1.4722a19.87115,19.87115,0,0,1-2.4145.7251c-115.0708,26.7724-139.5361,275.5786-139.9048,400.4346l414.4898-173.7598C1229.22023,172.04075,1132.48443,150.52705,1097.94343,150.52705Z"/><path fill="#ff794e" d="M1019.63133,502.86505s-7.9429-241.49,91.1366-264.544c0,0,76.0643-28.1805,181.237,150.36Z"/><path fill="#102770" d="M1005.353,525.11445l-.7153-21.7554c-.8521-25.9155-5.21-253.4399,101.9604-279.4653,13.0323-4.2456,93.2666-21.1792,198.3326,157.1753l8.7207,14.8023Zm117.4927-273.3276a28.55045,28.55045,0,0,0-7.2412.73l-1.438.4126c-64.2334,14.9462-78.9575,153.4668-79.7461,227.4707l235.7593-98.833C1196.98633,263.574,1141.89353,251.78685,1122.84573,251.78685Z"/><path fill="#102770" d="M1098.39083,280.64355s67.3583-24.9292,162.9409,120.8965l30.6733-12.859c-105.1728-178.5406-181.2372-150.36-181.2372-150.36-42.5943,9.9111-65.399,60.1963-77.5688,114.3057C1046.76563,316.60385,1067.31133,287.87505,1098.39083,280.64355Z" opacity=".3"/><ellipse cx="1107.606" cy="351.872" fill="#fff" opacity=".2" rx="51.143" ry="26.841" transform="rotate(-41.499 1107.605 351.872)"/><path fill="#102770" d="M1008.789,168.32285s-28.6212,155.4516,35.3758,149.771l-19.1463,87.0288V481.708l-98.212,71.6843S921.83793,329.80355,1008.789,168.32285Z" opacity=".2"/><path fill="#fff" d="M2119.273,583.05945s13.5057-410.6151-154.9632-449.8147c0,0-129.3353-47.9165-308.1646,255.6632Z"/><path fill="#102770" d="M2119.27153,603.05885a19.95825,19.95825,0,0,1-7.7295-1.5552l-463.1299-194.1504a19.99928,19.99928,0,0,1-9.4995-28.5962c176.9092-300.3125,313.6963-270.022,330.7471-264.7998,181.5356,43.4448,170.1757,452.3486,169.6045,469.7583a20,20,0,0,1-19.9927,19.3433Zm-434.0821-223.6597,414.4922,173.7598c-.3686-124.856-24.8364-373.6622-139.9048-400.4346a19.88185,19.88185,0,0,1-2.4145-.7251C1956.60553,151.76485,1844.68653,119.28925,1685.18943,379.39915Z"/><path fill="#ff794e" d="M2021.91093,502.86505s7.943-241.49-91.1365-264.544c0,0-76.0644-28.1805-181.2371,150.36Z"/><path fill="#102770" d="M2036.188,525.11445l-308.2959-129.2431,8.7207-14.8023c105.061-178.3496,185.2905-161.4258,198.3349-157.1753,107.1705,26.0254,102.8077,253.5498,101.9556,279.4653Zm-264.8242-143.5473,235.7568,98.833c-.7886-74.0039-15.5103-212.5245-79.7437-227.4707l-1.8115-.5445C1925.27493,252.324,1862.29883,234.97045,1771.36383,381.56715Z"/><path fill="#102770" d="M1943.15143,280.64355s-67.3582-24.9292-162.9408,120.8965l-30.6733-12.859c105.1727-178.5406,181.2372-150.36,181.2372-150.36,42.5943,9.9111,65.3989,60.1963,77.5688,114.3057C1994.77673,316.60385,1974.23093,287.87505,1943.15143,280.64355Z" opacity=".3"/><ellipse cx="1933.937" cy="351.872" fill="#fff" opacity=".2" rx="26.841" ry="51.143" transform="rotate(-48.501 1933.937 351.872)"/><path fill="#102770" d="M2032.75323,168.32285s28.6212,155.4516-35.3758,149.771l19.1464,87.0288V481.708l98.2119,71.6843S2119.70443,329.80355,2032.75323,168.32285Z" opacity=".2"/><ellipse cx="1522.857" cy="904.951" fill="#fff" rx="727.624" ry="582.373"/><path fill="#102770" d="M1522.85793,1507.324c-412.2412,0-747.6245-270.2246-747.6245-602.3731,0-332.1484,335.3833-602.373,747.6245-602.373s747.6221,270.2246,747.6221,602.373C2270.48,1237.09935,1935.09913,1507.324,1522.85793,1507.324Zm0-1164.7461c-390.1855,0-707.6245,252.2803-707.6245,562.373,0,310.0928,317.439,562.3731,707.6245,562.3731,390.1831,0,707.6221-252.2803,707.6221-562.3731C2230.48,594.85815,1913.041,342.57785,1522.85793,342.57785Z"/><path fill="#ff5722" d="M1524.72033,927.59065s.6453,57.2582-94.6773,51.1291c0,0-22.6345,171.3553,121.0214,150.1131,0,0,78.6559-56.2422,53.6559-156.2422C1604.72033,972.59065,1549.72033,982.59065,1524.72033,927.59065Z"/><path fill="#102770" d="M1432.22033,1040.09065s95-60,180,10l-4.1434-62.0329-43.0841-16.5708-32.7725-26.3963s-3.9947-4.0716-6.9974-4.5358c-3.0026-.4642-61.8642,37.5604-61.8642,37.5604l-21.1384,11.9754-6.4796,30.0039Z" opacity=".4"/><path fill="#102770" d="M1527.71633,1145.33905a1.80965,1.80965,0,0,1-.3711-.0049c-31.2134,0-56.6626-10.6396-75.3027-31.621-41.5406-46.7603-32.4097-128.3106-31.9995-131.7603a15,15,0,0,1,29.7924,3.5229c-.1147.9937-7.8466,71.8384,24.6875,108.3716,12.8785,14.4629,30.2735,21.4917,53.1836,21.4917,2.9663-.0097,69.0699-1.7798,69.0699-133.5473a15,15,0,1,1,30,0c0,63.7817-14.4849,110.2783-43.0494,138.1958C1558.64163,1144.50415,1531.29783,1145.33905,1527.71633,1145.33905Z"/><path fill="#102770" d="M1526.13773,322.578c-.5494,0-1.0912.0243-1.6403.0255-.549-.0012-1.0912-.0255-1.6405-.0255-377.2288,0-687.3942,229.7633-723.9948,523.977h0l-.0007.0057q-1.79055,14.39415-2.7081,28.9811c-.0265.4235-.0356.8508-.0608,1.2747-.2633,4.4327-.4864,8.8739-.6255,13.3321q-.2322,7.3788-.2341,14.8023c0,321.6358,325.7684,582.3731,727.624,582.3731.6626,0,1.3196-.0186,1.9819-.0201.4349.0009.864.0201,1.2989.0201,401.8555,0,727.6239-260.7373,727.6239-582.3731C2253.76163,583.315,1927.99323,322.578,1526.13773,322.578Zm-679.9321,582.3729c0-308.3587,299.4545-560.6638,678.2918-580.973,378.8373,20.3092,678.2915,272.6143,678.2915,580.973q0,.6261-.0017,1.2521c-.2055,77.4563-29.103,152.1441-79.5032,210.9603-131.108,153.0011-351.1125,248.3694-600.4271,248.3694-243.0793,0-458.2894-90.4141-590.4158-236.9935-54.9159-60.9229-85.9964-140.1999-86.2335-222.22Q846.20568,905.63515,846.20563,904.95085Z" opacity=".3"/><ellipse cx="1522.857" cy="1240.702" fill="#102770" opacity=".3" rx="102.711" ry="22.03"/><path fill="#102770" d="M944.194 923.95485c19.7345-6.2134 39.469-9.4355 59.2035-11.7542a538.11355 538.11355 0 0159.2028-3.241 528.46123 528.46123 0 0159.2035 3.2007c19.7345 2.3102 39.469 5.5426 59.2035 11.7945-19.7345 6.2518-39.469 9.4848-59.2035 11.7944a528.60459 528.60459 0 01-59.2035 3.2013 537.96678 537.96678 0 01-59.2028-3.2416C983.663 933.39025 963.92853 930.16815 944.194 923.95485zM964.65423 1091.525c16.0449-11.9647 33.0456-21.0943 50.3344-29.3676a500.1285 500.1285 0 0153.053-21.3013 491.42278 491.42278 0 0155.1105-15.1959c18.7671-3.8874 37.829-6.9001 57.8552-7.052-16.0333 12.0007-33.0298 21.1407-50.3216 29.4061a491.41646 491.41646 0 01-53.0658 21.2622 500.319 500.319 0 01-55.1233 15.1575C1003.72643 1088.31335 984.66823 1091.33635 964.65423 1091.525zM2101.51943 923.95485c-19.7345 6.2133-39.469 9.4354-59.2029 11.7541a537.97136 537.97136 0 01-59.2035 3.2416 528.60459 528.60459 0 01-59.2035-3.2013c-19.7338-2.3096-39.4683-5.5426-59.2028-11.7944 19.7345-6.2519 39.469-9.4843 59.2028-11.7945a528.46123 528.46123 0 0159.2035-3.2007 538.11814 538.11814 0 0159.2035 3.241C2062.05043 914.51935 2081.78493 917.74145 2101.51943 923.95485zM2081.05923 1091.525c-20.0134-.1886-39.0723-3.2116-57.8418-7.091a500.32924 500.32924 0 01-55.1239-15.1575 491.51515 491.51515 0 01-53.0658-21.2622c-17.2913-8.2654-34.2883-17.4054-50.321-29.4061 20.0262.1519 39.0881 3.1646 57.8552 7.052a491.45806 491.45806 0 0155.1105 15.1959 500.17809 500.17809 0 0153.0529 21.3013C2048.01423 1070.43065 2065.01433 1079.56025 2081.05923 1091.525zM1485.80463 839.71855h74.0768a22.63851 22.63851 0 0122.1547 27.4708c-4.6657 21.0306-18.7738 46.4591-59.7232 46.4591 0 0-45.9892 4.7693-58.4993-45.7349A22.70733 22.70733 0 011485.80463 839.71855z"/><path fill="#102770" d="M1538.08623,889.37965l.1025,3.1109.2155,3.6249c.1361,2.4414.4724,4.8907.7617,7.3206a100.43247,100.43247,0,0,0,2.984,14.1467,65.12589,65.12589,0,0,0,12.3468,23.7488,57.51893,57.51893,0,0,0,21.6199,15.1995,98.9032,98.9032,0,0,0,28.9129,6.3709l1.8781.18.3387.0367.857-.0299c1.1419-.0147,2.3999-.1313,3.6438-.2289,2.481-.224,5.0543-.4645,7.5738-.8954,2.5379-.4034,5.0788-.8423,7.5672-1.4935a68.36928,68.36928,0,0,0,7.4328-2.0673c9.7486-3.2007,19.0473-7.7563,26.9068-14.2993,4.1125-3.114,7.4212-7.0209,10.9082-10.932,2.8002-4.353,6.0846-8.581,8.1463-13.5742,2.7063-4.7229,3.9905-10.0653,5.7245-15.3577,1.0492-2.6215,1.0559-5.4529,1.7236-8.197l1.5747-8.3893.0605-.3217a2.13161,2.13161,0,0,1,4.2254.3217c.1972,5.8453.9919,11.8524.5249,17.8424-.6585,5.9735-.9143,12.135-2.8045,18.064-.8753,2.9608-1.2885,6.1358-2.71,8.9465l-3.8428,8.6768c-3.2843,5.3985-6.5619,11.0156-11.0254,15.6842a95.67022,95.67022,0,0,1-30.8807,22.7478,90.16527,90.16527,0,0,1-8.8397,3.7384c-2.9791,1.1889-6.0285,2.1454-9.1046,3.0493-3.0793.9204-6.192,1.6864-9.4031,2.3273-1.6101.3015-3.2019.6146-4.9329.8367l-1.2939.1801-1.8176.1483-2.4421.0513c-13.009.3558-25.8685-.6177-39.0399-4.6771a89.12208,89.12208,0,0,1-19.0631-8.5785,82.062,82.062,0,0,1-16.6229-13.6097,86.15114,86.15114,0,0,1-19.646-36.853,104.617,104.617,0,0,1-3.1757-19.8291c-.1898-3.3117-.241-6.6162-.1397-9.9396.0403-1.6644.1574-3.3276.3088-5.0177.166-1.7944.307-3.1622.6458-5.5139a14.95237,14.95237,0,0,1,29.7436,1.6358Z"/><path fill="#102770" d="M1537.42823,885.92865c.3388,2.3517.4798,3.7195.6452,5.5139.1519,1.6901.2685,3.3533.3088,5.0177.1019,3.3234.05,6.6279-.1392,9.9396a104.57024,104.57024,0,0,1-3.1762,19.8291,86.15634,86.15634,0,0,1-19.6454,36.853,82.07976,82.07976,0,0,1-16.6236,13.6097,89.11767,89.11767,0,0,1-19.0631,8.5785c-13.1707,4.0594-26.0302,5.0329-39.0393,4.6771l-2.442-.0513-1.8182-.1483-1.294-.1801c-1.7309-.2221-3.3227-.5352-4.9322-.8367-3.2111-.6409-6.3245-1.4069-9.4031-2.3273-3.0768-.9039-6.1261-1.8604-9.1046-3.0493a90.09331,90.09331,0,0,1-8.8397-3.7384,95.67192,95.67192,0,0,1-30.8814-22.7478c-4.4629-4.6686-7.7405-10.2857-11.0248-15.6842l-3.8433-8.6768c-1.4216-2.8107-1.8342-5.9857-2.7094-8.9465-1.8909-5.929-2.1466-12.0905-2.8046-18.064-.4675-5.99.3278-11.9971.5243-17.8424a2.13213,2.13213,0,0,1,4.2261-.3229l.0598.3229,1.5747,8.3893c.6677,2.7441.6751,5.5755,1.7243,8.197,1.7334,5.2924,3.0175,10.6348,5.7245,15.3577,2.0611,4.9932,5.346,9.2212,8.1463,13.5742,3.4863,3.9111,6.7951,7.818,10.9076,10.932,7.8601,6.543,17.1582,11.0986,26.9074,14.2993a68.32118,68.32118,0,0,0,7.4322,2.0673c2.4884.6512,5.0293,1.0901,7.5678,1.4935,2.5189.4309,5.0927.6714,7.5732.8954,1.2439.0976,2.5024.2142,3.6444.2289l.8563.0299.3388-.0367,1.8786-.18a98.89915,98.89915,0,0,0,28.9124-6.3709,57.52277,57.52277,0,0,0,21.6205-15.1995,65.12789,65.12789,0,0,0,12.3462-23.7488,100.44658,100.44658,0,0,0,2.984-14.1467c.2899-2.4299.6256-4.8792.7617-7.3206l.2161-3.6249.1019-3.1109.0598-1.8103a14.95094,14.95094,0,0,1,29.7412-1.6407Z"/><ellipse cx="1304.628" cy="696.298" fill="#102770" rx="86.332" ry="103.119"/><ellipse cx="1326.354" cy="672.84" fill="#fff" rx="25.787" ry="37.5"/><circle cx="1269.618" cy="742.84" r="12.503" fill="#fff"/><ellipse cx="1741.085" cy="696.298" fill="#102770" rx="86.332" ry="103.119"/><path fill="#102770" fill-rule="evenodd" d="M2047.35313,547.73375c-.5991-22.4585-1.3141-24.9093-28.3933-34.288-21.4389-7.4832-140.0042-18.2279-228.9553-12.638-5.4996.2997-10.9205.6897-16.1857,1.2034-80.3698,7.3129-177.8106,42.453-250.0412,44.338-30.643.7349-156.0803-35.433-245.2899-43.1289-6.3382-.6046-12.8387-1.073-19.5404-1.4234-88.0859-4.6939-204.7729,6.409-226.3153,13.8001-27.7051,9.5944-28.5623,12.0453-30.5194,34.581-1.8918,22.4917,1.0397,41.8948,16.9537,47.6608,21.8595,7.865,21.1325,38.0209,33.1125,124.5132,10.77,78.7458,41.1136,140.9412,179.3698,151.9388,7.053.6113,13.917.8322,20.5732.9107,120.0869.169,164.4714-86.402,179.2724-115.3025,27.9062-54.357,22.1472-129.331,90.875-129.4616,68.6428-.1691,59.6594,73.4155,84.1922,127.7325,13.2339,29.2905,52.211,119.2282,176.8216,115.7056,4.7592-.1303,9.7515-.4285,14.8474-.8585,138.8858-11.6089,173.0902-74.0253,188.6645-152.8094,17.2-86.5912,18.2932-116.7005,40.6662-124.6506C2043.80393,589.66185,2047.82033,570.30945,2047.35313,547.73375Zm-717.6557,289.2709c-20.8343,10.5051-48.305,15.926-77.1655,16.2256-63.5214.5207-134.1864-23.5315-157.9654-72.6352-33.3789-68.9025-38.0462-208.1332,8.4641-237.3013,20.0729-12.5961,86.6681-21.2881,155.5533-18.1476,72.5167,3.3148,147.5961,19.748,173.3044,58.4574C1474.09473,647.13135,1398.26833,802.42375,1329.69743,837.00465Zm611.1661-58.3587c-26.066,47.9202-95.0735,72.2958-157.2558,73.3237-30.7203.4806-59.9588-4.8114-81.3712-15.8222-66.4459-34.2694-132.9175-189.1983-86.7651-252.8955,27.7688-38.4497,102.2891-55.2661,174.1562-59.1403,70.0741-3.8153,137.677,4.6091,157.2427,17.2973C1991.46233,570.27065,1978.44933,709.61185,1940.86353,778.646Z"/><ellipse cx="1719.359" cy="672.84" fill="#fff" rx="25.787" ry="37.5"/><circle cx="1776.096" cy="742.84" r="12.503" fill="#fff"/><path fill="#102770" d="M969.82753 1764.69755c6.933-.5737 14.6948.3229 21.9794 1.41 7.3987 1.0821 14.7833 2.8064 22.2748 4.3451 7.4975 1.6516 15.05 3.0737 22.7856 4.5495 7.7673 1.601 15.5902 2.7265 23.9856 4.4153l.1178.0232a2.68282 2.68282 0 01.9674 4.8572c-14.5062 9.7455-31.3824 14.9029-48.183 17.7758a126.29276 126.29276 0 01-25.4315 1.9068c-8.5718-.3955-16.6296-1.4978-25.3601-4.9628a17.745 17.745 0 015.0604-34.1748zM968.503 1905.86585a106.42324 106.42324 0 0119.5166 8.5138 96.923 96.923 0 018.9167 5.2789c2.9321 1.8207 5.8056 3.7482 8.5669 5.8441a167.48887 167.48887 0 0130.1703 28.8397 148.15334 148.15334 0 0121.7974 36.1444c5.0006 13.3094 7.5006 27.4622 6.3996 41.0175a2.56074 2.56074 0 01-4.8792.8618l-.0708-.155a136.50823 136.50823 0 00-19.4647-31.2335 192.865 192.865 0 00-25.968-24.1999c-9.386-7.2394-19.5453-13.4747-29.5075-19.9182-4.964-3.2556-10.0781-6.3336-15.0994-9.5203-4.9225-3.1072-10.3614-6.466-14.5929-9.4897l-1.3483-.9637a17.56425 17.56425 0 0115.5633-31.0199zM2068.561 2452.241c14.5191-4.7675 29.7272-8.5163 45.3205-9.7394a199.63833 199.63833 0 0147.2491 1.0968c15.7373 2.2968 31.4789 6.1383 46.3257 12.5366a149.129 149.129 0 0121.6144 11.1817 103.70135 103.70135 0 0119.9566 15.9802 14.99656 14.99656 0 01-18.9734 22.9596l-1.2902-.838c-4.7351-3.0585-10.7648-6.7737-16.5412-10.1129-5.9918-3.238-11.9677-6.5839-18.2153-9.5386a301.98255 301.98255 0 00-38.7653-15.7721 259.02684 259.02684 0 00-41.795-9.6289c-14.3811-2.5446-29.0704-2.9755-44.2169-3.8916l-.1227-.0073a2.16925 2.16925 0 01-.5463-4.2261z"/><path fill="#102770" d="M1043.98583 1784.07985s19.9097 105.2778 134.9097 70.2778c0 0-126.535 101.9025-117.0175 164.7012 0 0-55.3926-94.8952-117.9375-108.5482l17.455-108.653zM483.89553 994.35765s110 645 570 785C1053.89553 1779.35765 446.39553 1746.85765 483.89553 994.35765zM688.89553 2114.35765s135 330 280 315l-182.9282 29.861S661.39553 2216.85765 688.89553 2114.35765zM2323.89553 2134.35765s-100 295-240 315l156.4636 27.361S2351.39553 2236.85765 2323.89553 2134.35765z" opacity=".3"/></svg>