<svg xmlns="http://www.w3.org/2000/svg" data-name="Layer 1" viewBox="0 0 3000 3000"><defs><clipPath id="a"><path fill="none" d="M1676.53223,543.867a458.13975,458.13975,0,0,0-50.4723-65.9484c-63.9488-70.1028-182.0261-160.5102-380.0295-189.2275,0,0-50.7634-10.7112-113.8328-17.3119-63.615-6.6578-139.7499-9.1335-188.9815,7.7938,0,0-95.7604-14.9441-241.4855,131.6723,0,0-235.7452,71.7164-416.8356,262.2922,0,0-99.9513,92.1843,278.3993,220.4977,0,0,43.2886,305.5691,390.184,321.6365,125.0151,5.7904,248.2957-29.6188,353.8879-96.7945,130.8055-83.2158,293.7144-233.7577,245.6297-449.9305a542.01519,542.01519,0,0,0-26.2108-71.6617s27.6292,12.9138,68.8456,8.6786c20.806-2.1379,45.061-8.6288,70.9986-23.3905A27.424,27.424,0,0,0,1676.53223,543.867Z"/></clipPath><clipPath id="b"><path fill="none" d="M1023.69283,703.00465s-15.2765,53.8734-84.6451,101.2811c0,0,39.4982,115.5116,143.2242,152.2815,18.8054,6.6663,39.7177-.8574,50.6969-17.5171,21.3865-32.4513,48.5698-97.0392,27.4953-199.6812C1160.46413,739.369,1086.14333,755.20885,1023.69283,703.00465Z"/></clipPath></defs><path fill="#102770" d="M380.95843,2668.86775c0-41.0109,534.1436-74.2573,1193.0444-74.2573,658.9009,0,1193.0451,33.2464,1193.0451,74.2573,0,23.7072-178.4914,44.8193-456.3923,58.4148-59.9656,26.5835-292.4671,46.4009-570.1426,46.4009-232.53,0-433.3747-13.8971-527.7544-34.0275C730.46243,2730.12945,380.95843,2702.04025,380.95843,2668.86775Z" opacity=".3"/><circle cx="1621.952" cy="1967.532" r="685.415" fill="#e76e5f"/><path fill="#6b184e" d="M1621.95233,2674.20345c-389.6606,0-706.6723-317.0117-706.6723-706.6723,0-389.6607,317.0117-706.6724,706.6723-706.6724,389.6607,0,706.6724,317.0117,706.6724,706.6724C2328.62473,2357.19175,2011.613,2674.20345,1621.95233,2674.20345Zm0-1370.8301c-366.2182,0-664.1577,297.9395-664.1577,664.1578,0,366.2182,297.9395,664.1577,664.1577,664.1577,366.2183,0,664.1577-297.9395,664.1577-664.1577C2286.11,1601.31285,1988.17063,1303.37335,1621.95233,1303.37335Z"/><path fill="#6b184e" d="M1423.51243 1846.63755c-139.4092 0-293.8452-22.5635-458.0786-77.9077l13.5742-40.2881c446.4526 150.4443 816.1841 52.0386 997.1484-77.9419 73.5254-52.8101 117.4194-112.3364 117.4194-159.2285h42.5147c0 61.4526-49.2529 132.0752-135.1318 193.7573C1879.10083 1772.55555 1676.01733 1846.63755 1423.51243 1846.63755zM1266.757 2555.44375l-34.4824-24.8682c120.1123-166.5234 269.7607-292.1924 444.7876-373.5181 178.5498-82.9638 336.1963-96.4013 414.2773-97.0288 106.6309-.8667 190.9009 19.4702 214.9976 51.7749l-34.0772 25.4199c-8.3935-11.2524-65.5957-35.6762-180.5786-34.6826C1974.11783 2103.48325 1567.18673 2138.93005 1266.757 2555.44375z"/><path fill="#6b184e" d="M1850.36543,2628.40755l-39.5215-15.6738c66.0181-166.4673,59.5337-446.0107-16.9189-729.5361-75.6446-280.5249-200.166-498.0201-324.9732-567.6075l20.7032-37.1338c134.475,74.9805,266.7919,302.461,345.3173,593.6719C1914.88443,2168.48085,1920.63883,2451.203,1850.36543,2628.40755Z"/><path fill="#ff6ca8" d="M2307.367,1967.53165c0,204.7039-89.7575,388.4169-232.0192,513.9922a682.59219,682.59219,0,0,1-453.4102,171.4372c-378.5329,0-685.3765-306.8969-685.3765-685.4294a681.94494,681.94494,0,0,1,76.4719-314.8682c113.9903-220.1156,343.8839-370.5615,608.9046-370.5615C2000.47013,1282.102,2307.367,1588.99875,2307.367,1967.53165Z"/><path fill="#102770" d="M1621.93763,1282.102c-181.4279,0-346.3815,70.52-468.9808,185.5732-3.5076,3.348-7.0149,6.696-10.4693,10.0436-3.2416,3.1888-6.43,6.3772-9.6187,9.6191-.5845.5845-1.169,1.2222-1.7538,1.8067-2.3383,2.3914-4.6233,4.7297-6.8552,7.174-1.9663,2.0727-3.9325,4.1453-5.8455,6.2179-2.4447,2.6039-4.8362,5.2611-7.1745,7.865-5.0485,5.6862-10.0436,11.4257-14.8797,17.218a2.4538,2.4538,0,0,1-.3721.3721c-1.5942,1.9662-3.1884,3.8793-4.7826,5.8458-1.9134,2.2851-3.7732,4.5702-5.5802,6.9085q-9.1668,11.47875-17.8557,23.4356c-1.2222,1.6474-2.4444,3.348-3.6669,5.0486-1.9662,2.6571-3.826,5.3674-5.7394,8.1306q-17.1381,24.71145-32.0978,51.0168c-1.7006,2.9227-3.348,5.8987-4.9954,8.8746-2.8164,5.1018-5.5799,10.2565-8.237,15.4114a681.94494,681.94494,0,0,0-76.4719,314.8682c0,378.5325,306.8436,685.4294,685.3765,685.4294a682.59219,682.59219,0,0,0,453.4102-171.4372q21.5223-19.05165,41.3977-39.8035c2.9228-3.0292,5.7924-6.0583,8.6623-9.1403q5.3406-5.7396,10.522-11.6382c2.8167-3.1355,5.527-6.324,8.1842-9.5659,1.0625-1.1158,1.9662-2.2319,2.8695-3.3476,2.0195-2.3383,3.9857-4.6766,5.8455-7.0681,2.4979-2.9759,4.8894-5.9519,7.2276-8.981a22.59759,22.59759,0,0,0,2.0723-2.6571c2.4447-3.0824,4.8362-6.1115,7.1213-9.2468,2.285-2.923,4.4637-5.899,6.6428-8.9278a37.82291,37.82291,0,0,0,2.4975-3.4544c2.551-3.4544,4.9954-6.9616,7.44-10.4692.8502-1.2222,1.7006-2.4443,2.4976-3.7197,2.7103-3.8264,5.2613-7.7057,7.8121-11.6382.372-.4784.6376-.9565.9565-1.4349,2.8695-4.4109,5.6862-8.8215,8.3966-13.2856a3.01285,3.01285,0,0,0,.4249-.6909c2.551-4.092,5.0485-8.237,7.44-12.3822,1.435-2.3383,2.7635-4.6766,4.0389-7.0145,1.4349-2.3915,2.7635-4.783,4.092-7.2276,1.0626-1.8599,2.1255-3.7201,3.0821-5.5799,2.1258-3.8793,4.1984-7.8118,6.2707-11.7974,2.6043-5.0486,5.155-10.1504,7.6525-15.2519a682.2184,682.2184,0,0,0,68.8726-299.6695C2307.367,1588.99875,2000.47013,1282.102,1621.93763,1282.102Zm561.7139,912.241c-25.7207,108.7822-106.7627,196.0949-213.6318,228.7776a688.54232,688.54232,0,0,1-441.5064-13.6576c21.5758-112.449-100.2795-163.3594-183.9786-103.9996-158.736-125.5221-260.5569-319.8103-260.5569-537.9062v-2.0195c.4252-147.0446,112.9806-270.2285,259.2283-285.5867,13.2856-1.3817,26.9964-2.2322,41.2385-2.4978,36.2431,215.0139,273.7361,379.6486,419.8242,139.1265,99.5887,2.8167,184.882,34.1708,249.7689,106.4974-27.262,153.103,18.3341,257.7934,150.8707,304.6646C2204.696,2081.256,2197.25633,2136.89615,2183.65153,2194.343Z" opacity=".3"/><path fill="#6b184e" d="M2303.80653,2037.62635c-.6909,7.2805-1.5942,14.5078-2.551,21.6818Q2302.69073,2048.54715,2303.80653,2037.62635Z" opacity=".3"/><path fill="#fff" d="M2113.83613 1528.61325c0 176.5385-492.1512 475.8361-1141.1779 257.7933 3.8261-7.5464 8.1306-17.5372 10.9473-24.286 623.7841 204.5447 1100.1518-68.1285 1128.8488-244.8799C2113.35773 1524.52115 2113.83613 1528.61325 2113.83613 1528.61325zM2298.53873 2148.12255l-.8814 4.0213c-97.0406-66.7771-650.1575-97.3554-1030.2871 397.9861a131.92083 131.92083 0 00-16.1197-6.9292c399.4806-528.4228 995.1354-468.1425 1047.2362-395.1325z" opacity=".45"/><path fill="#fff" d="M1554.25533,2229.28555c-18.8191-78.0669,74.5365-167.5349,208.5154-199.8322,133.9789-32.2974,257.8461,4.8062,276.6651,82.8731,18.8191,78.067-89.8995,110.2178-223.8784,142.5151C1681.57853,2287.139,1573.07433,2307.35245,1554.25533,2229.28555Z" opacity=".2"/><path fill="#102770" d="M1621.93773,2672.96075c-388.9453,0-705.376-316.455-705.376-705.4296a704.82321,704.82321,0,0,1,705.376-705.4297c185.4638,0,360.6079,71.4013,493.1689,201.0522a703.44516,703.44516,0,0,1,210.8936,459.8218c.9082,15.2783,1.3672,30.249,1.3672,44.5557C2327.36743,2356.50575,2010.91233,2672.96075,1621.93773,2672.96075Zm0-1370.8593a664.81869,664.81869,0,0,0-665.376,665.4297c0,366.9189,298.4863,665.4296,665.376,665.4296,366.9189,0,665.4297-298.5107,665.4297-665.4296,0-13.5181-.4346-27.6905-1.294-42.1241a663.47114,663.47114,0,0,0-198.9331-433.6548C1962.09643,1369.45245,1796.884,1302.10145,1621.93773,1302.10145Z"/><path fill="#102770" d="M1423.57583 1842.89485c-139.0185 0-293.103-22.5146-456.9433-77.7246l11.1767-33.1689c447.7979 150.9033 818.8501 52.0508 1000.5396-78.4497 74.5044-53.5157 118.9844-114.1797 118.9844-162.2803h35c0 60.227-48.6841 129.7363-133.5669 190.708C1877.40893 1769.14485 1675.17253 1842.89485 1423.57583 1842.89485zM1263.71013 2553.24645l-28.3862-20.4736c119.729-165.9937 268.8843-291.2574 443.3227-372.3096 177.9053-82.6636 334.9463-96.0547 412.7247-96.6773 105.2685-.8618 188.5473 18.8843 211.9531 50.2637l-28.0542 20.9277c-11.5943-15.5493-76.0791-37.0971-183.6182-36.1914C1973.64183 2099.73085 1565.17253 2135.29965 1263.71013 2553.24645z"/><path fill="#102770" d="M1846.87173,2627.02085l-32.5341-12.9004c66.2988-167.185,59.8681-447.6318-16.7847-731.9018-75.8984-281.4673-201.1108-499.8462-326.7725-569.9097l17.0459-30.5713c133.6206,74.5044,265.2491,301.1035,343.5181,591.3696C1911.05393,2168.70545,1916.85713,2450.54385,1846.87173,2627.02085Z"/><path fill="#ff9800" d="M2466.58143,1438.44685c0,.0532-.0532.1593-.0532.2125-12.7011,109.7922-39.5379,231.541-83.2739,367.7448q-8.3703,26.0664-17.5904,52.8766c-9.9904,29.1219-31.4601,53.3548-59.6255,64.9398a81.63433,81.63433,0,0,1-8.5026,3.1355c-79.1822,24.5517-173.8818-47.8812-152.8374-195.4575,4.145-29.2815,12.8604-61.4857,27.1557-96.5063-34.0112-46.2339-58.0313-100.2263-70.7324-157.9391-.5313-.5313-1.0629-1.0629-1.6474-1.5942-123.3966-119.889-291.8046-193.757-477.5367-193.757-253.8077,0-475.3048,137.9044-593.7592,342.9275a671.84231,671.84231,0,0,0-37.1464,74.2396c-27.6341,22.2138-55.1086,38.3157-81.839,49.3162a248.74024,248.74024,0,0,1-63.1863,17.0588c-118.6136,15.5175-208.7963-67.0655-204.4915-148.9048,2.338-44.5865,32.6824-89.0134,101.7674-117.1787,6.696-2.7635,13.8172-5.3143,21.2569-7.7589.5316-.1593,1.1161-.3721,1.7006-.5313,94.3276-35.2334,170.321-173.4034,170.321-261.0882l593.3872-502.1416c172.0748-52.1326,378.4261-25.9335,521.6979,46.8184-226.7052-395.5382,285.3743-636.0603,406.3262-269.4848,12.4351,37.7309-4.2516,79.8731-40.5476,95.9218-24.4989,10.8412-54.9493,9.2467-82.849-12.8603-10.9473-8.6623-19.7688-19.716-26.7304-31.8854l-51.2825-89.9699c-17.3776,3.1352-32.2042,12.0631-43.8956,24.3921-33.2139,35.1273-32.3634,90.342-.744,126.9571C2385.64553,819.12625,2510.90193,1056.93805,2466.58143,1438.44685Z"/><path fill="#fff" d="M1621.93773,1282.10205c165.9961,0,325.2575,58.4549,443.811,156.5814,27.97-47.5494,32.1826-108.3493,45-175,0,0-285-295-780-30,0,0-220.636,79.8065-266.1737,334.9396C1188.90793,1395.11715,1392.17943,1282.10205,1621.93773,1282.10205Z"/><path fill="#fde6e6" d="M2265.86283 482.84185a173.71746 173.71746 0 007.8118-155.7601c76.3126 12.8072 147.9483 68.1817 184.2978 178.2924 12.4351 37.7309-4.2516 79.8731-40.5476 95.9218-24.4989 10.8412-54.9493 9.2467-82.849-12.8603-10.9473-8.6623-19.7688-19.716-26.7304-31.8854zM900.26483 1664.93935a165.16673 165.16673 0 01-27.3681 91.2984 257.56845 257.56845 0 01-26.89 9.4063c-118.6136 15.5175-208.7963-67.0655-204.4915-148.9048 2.338-44.5865 32.6824-89.0134 101.7674-117.1787C830.70173 1504.07745 900.26483 1576.40405 900.26483 1664.93935zM2383.25433 1806.40415q-8.3703 26.0664-17.5904 52.8766c-9.9904 29.1219-31.4601 53.3548-59.6255 64.9398a81.63433 81.63433 0 01-8.5026 3.1355c-79.1822 24.5517-173.8818-47.8812-152.8374-195.4575a175.3599 175.3599 0 01238.5559 74.5056z"/><path fill="#102770" d="M2470.992,1394.55125c-1.2222,14.4017-2.6571,29.0687-4.4106,43.8956,0,.0532-.0532.1593-.0532.2125-14.3485,123.8215-46.6059,262.8419-100.8643,420.6214-9.9904,29.1219-31.4601,53.3548-59.6255,64.9398a81.63433,81.63433,0,0,1-8.5026,3.1355c-81.2016,25.1362-178.6116-51.5481-151.0307-206.6173l-4.7826-14.5081,15.0922-83.5395-54.0988-104.212-12.1163-177.1234,12.1163-66.4279c6.3239-24.5517,55.1085-30.61,71.8485,38.9534-23.542,120.3672,2.4443,203.0566,51.4949,268.2091a65.45232,65.45232,0,0,1,8.237,65.365c-26.3587,61.3264-41.8762,141.8368,24.2329,159.6929l.2124.0528a104.42455,104.42455,0,0,0,54.3648-2.0723,81.62761,81.62761,0,0,0,8.5027-3.1355c28.1653-11.585,49.635-35.8179,59.6258-64.9398C2424.38643,1611.63745,2453.61473,1498.07235,2470.992,1394.55125Z" opacity=".3"/><path fill="#fff" d="M2275.10763 696.04475c149.1721 308.7719 180.1574 640.7824 123.0706 990.1102l63.1951-207.5345 14.1928-297.3293-69.8859-292.5483zM2021.40823 712.73555c-142.7401-357.4352 322.0955-554.3274 436.5642-207.3614a81.863 81.863 0 013.4009 14.8266C2335.63873 232.16975 1937.97473 396.80445 2021.40823 712.73555zM2154.47643 860.36475c-75.2493-46.34-175.7416-83.2208-279.5815-101.0236-45.0114 38.3689-121.6429 29.7067-151.562-11.4786-74.9837 2.1258-145.9818 17.0588-204.1195 48.6253l19.6628-63.1863 173.5094-32.4698 236.0052 32.9479 136.5225 61.5921z" opacity=".55"/><path fill="#102770" d="M2266.63493,1952.038c-36.1133,0-71.6186-15.7129-98.2031-44.7119-26.3086-28.6939-79.8291-111.6138-19.1846-269.1773-30.7714-44.353-53.5595-96.0376-66.311-150.4736-124.5312-119.7144-288.0054-185.5737-460.9985-185.5737a664.77219,664.77219,0,0,0-612.5049,405.0024,20.02434,20.02434,0,0,1-5.8692,7.7539c-94.7314,76.1548-202.9638,93.8501-289.5288,47.3364-61.4624-33.0273-97.6391-92.5366-92.1606-151.6113,3.3594-36.2549,25.7422-102.3681,137.8052-138.2104,84.5385-31.9239,156.8823-159.69,156.8823-242.19a19.99648,19.99648,0,0,1,7.0801-15.2661l593.3862-502.1411a19.96672,19.96672,0,0,1,7.1216-3.8745c150.1513-45.4907,334.2285-35.2759,484.331,24.5654-49.2456-113.6938-45.0146-224.9609,13.4449-311.5234,56.2695-83.3155,153.8671-128.6914,248.5644-115.5518,95.1563,13.1812,170.4151,83.4229,206.4746,192.7173,16.0279,48.6328-6.0913,100.4248-51.4502,120.4785-34.1797,15.127-71.8554,9.4898-103.3593-15.4785-12.2974-9.729-22.9566-22.3926-31.67-37.6294l-43.4155-76.1694a63.29884,63.29884,0,0,0-19.8901,14.4262c-25.3662,26.8262-25.4273,70.8155-.1197,100.1221,140.0269,162.1729,217.356,312.815,250.7325,488.4424,41.2915,217.2656,10.8007,469.9487-93.2154,772.4854-12.0971,35.2514-37.854,63.2421-70.6885,76.831a100.122,100.122,0,0,1-10.3442,3.8159A124.5615,124.5615,0,0,1,2266.63493,1952.038Zm-644.6972-689.9365c185.4638,0,360.6079,71.4013,493.1689,201.0522a20.012,20.012,0,0,1,5.5493,10c12.0948,54.9707,35.3711,106.9727,67.3096,150.3882a19.99988,19.99988,0,0,1,2.4048,19.4092c-40.52,99.2676-37.6978,187.9931,7.5439,237.3437,25.1074,27.3828,61.0059,38.1006,93.6963,27.959a60.92635,60.92635,0,0,0,6.3355-2.3218c.1611-.0708.3222-.1416.4858-.2075,22.312-9.1772,39.9219-28.4717,48.313-52.9321a.03553.03553,0,0,0,.0049-.0147c226.5039-658.7939,61.7822-976.5405-149.9634-1221.7773-39.1992-45.3931-38.6206-111.499,1.3501-153.7671,15.3003-16.1352,34.27-26.6162,54.8779-30.3345a20.00156,20.00156,0,0,1,20.9253,9.7779l51.2818,89.9682c6.1523,10.7593,13.4814,19.5508,21.7651,26.106,26.6675,21.1328,50.5054,15.4931,62.3462,10.2563,26.0229-11.5063,39.043-42.8564,29.646-71.372-31.5552-95.6324-93.3423-154.4532-173.9771-165.6226-79.7094-11.0303-162.1289,27.5439-209.9267,98.3179-58.3789,86.4404-53.3033,203.2885,13.9233,320.581a19.99973,19.99973,0,0,1-26.4062,27.7783c-145.6299-73.9501-347.1509-92.5537-502.9151-46.6821l-583.3716,493.667c-5.0854,95.6275-84.8217,233.6353-183.0688,270.332q-.4614.1722-.9302.3223c-67.0898,21.355-106.3696,58.2715-110.603,103.9478-3.9917,43.0444,23.9819,87.2754,71.2646,112.6806,70.8252,38.0542,160.8692,22.9712,241.6846-40.2246A704.7205,704.7205,0,0,1,1621.93773,1262.10145Z"/><path fill="#102770" d="M2081.591 1481.76235a281.03523 281.03523 0 01-11.5589-64.1266c-.8654-10.8502-.8496-21.7437-.7788-32.6008.4175-10.8643 1.1255-21.6977 2.3316-32.468a357.39 357.39 0 0113.341-63.3308 290.05092 290.05092 0 0125.1636-59.0418 5.10148 5.10148 0 019.491 3.1313l-.0049.0328c-2.4499 20.8241-4.8328 41.1326-6.3428 61.3391-1.4258 20.2061-2.3095 40.2234-2.0532 60.141.0562 9.9518.2808 19.8717.8545 29.7623.1514 4.9453.5505 9.8803.8081 14.8141.3601 4.9294.8789 9.8431 1.1475 14.7731 1.7248 19.6817 4.2236 39.2127 6.6626 58.9562l.0219.1853a20.07187 20.07187 0 01-39.0832 8.4328zM2253.007 446.89905a93.975 93.975 0 0134.9475 9.9975 112.14809 112.14809 0 0126.4807 19.09 101.67 101.67 0 00-29.9878.6 62.89274 62.89274 0 00-24.3286 9.6751 21.78281 21.78281 0 11-10.5701-39.651z"/><path fill="#ff9800" d="M1802.99353,1497.96635c-85.6125,186.4761-272.1419,164.3159-321.0861-69.5103-13.9764-66.9063-10.2944-193.1645,3.8413-294.7726l348.6517-21.7429C1860.17433,1284.01535,1842.10613,1412.77905,1802.99353,1497.96635Z"/><path fill="#fde6e6" d="M1802.99353,1497.96635c-85.6125,186.4761-272.1419,164.3159-321.0861-69.5103a175.41076,175.41076,0,0,1,321.0861,69.5103Z"/><path fill="#102770" d="M1474.09573,1220.24455c38.5281,337.5597,332.1926,322.4143,368.5949-38.9534C1892.857,1754.32475,1421.53783,1771.70205,1474.09573,1220.24455Z" opacity=".3"/><path fill="#102770" d="M1486.18823 1176.66765c-1.8604 23.397-3.5206 46.7645-3.7897 70.1225-.5738 23.3382-.2381 46.6312 1.1773 69.77 2.9041 46.218 9.6589 92.0775 23.2886 135.154 6.7908 21.5306 15.7587 41.9984 25.39 61.6454 9.7443 19.5649 21.9092 37.8578 36.9056 52.5645 14.8065 14.8344 32.2473 26.4471 51.1755 32.1848 18.8483 6.1029 39.0082 5.8473 58.0963.2703 19.1101-5.6991 37.0203-16.8119 52.522-31.1636a222.36271 222.36271 0 0039.8486-50.8557c22.3731-38.0631 35.9229-81.7697 45.1074-126.261 4.7034-22.2977 8.1311-44.9805 10.9803-67.8375 2.7966-22.8755 4.0222-46.0111 4.8608-69.2055 1.4624-46.4389-.5029-93.2242-4.2249-140.0854l-.0024-.0275a6.96608 6.96608 0 0113.7512-2.0323 947.051 947.051 0 0119.6399 141.7682c2.1765 47.8895 1.4612 96.4799-6.593 144.6774a479.75544 479.75544 0 01-18.2861 71.2474 379.46585 379.46585 0 01-30.6043 68.0475 257.20575 257.20575 0 01-47.3462 59.9566c-19.0466 17.6165-42.0898 32.3079-68.2898 40.1233a146.09354 146.09354 0 01-40.6237 5.9095 134.91567 134.91567 0 01-40.6757-6.324c-26.3202-8.0349-49.1791-23.6374-67.5983-42.0861a93.94344 93.94344 0 01-6.7505-7.0807l-6.4605-7.296c-3.8929-5.1206-8.1842-10.0273-11.6584-15.3862l-5.484-7.8855-5.0268-8.1119c-3.4644-5.3636-6.4026-10.945-9.4434-16.4954-12.0056-22.2915-19.5312-46.3008-25.3399-70.2182a509.333 509.333 0 01-11.6218-72.3433 594.331 594.331 0 01-2.3168-72.3581c.8905-48.0812 7.022-95.5798 15.6213-142.3001a6.9583 6.9583 0 0113.7823 1.7778zM2165.18473 892.173a215.21188 215.21188 0 00-53.8623-59.118c-21.2146-16.1774-44.9853-29.1338-69.5605-40.8095l-.0318-.0148a20.05675 20.05675 0 1117.2144-36.232 21.95962 21.95962 0 012.5867 1.4737c24.0051 16.1461 47.5293 33.8741 68.136 55.0954a236.74854 236.74854 0 0148.8562 72.745 7.52056 7.52056 0 01-13.3387 6.8602z"/><path fill="#102770" d="M1538.97443 1555.31875c5.7196-1.4391 10.9161-2.2229 16.3171-4.2613a48.77274 48.77274 0 0016.0785-9.3944 90.26907 90.26907 0 0014.2652-16.1812c4.4647-6.1575 8.2281-13.083 12.16-20.1685l.1141-.2059a3.81295 3.81295 0 017.1375 2.1197 121.07381 121.07381 0 01-1.247 12.6447l-1.0339 6.3758-1.5814 6.3292a89.47247 89.47247 0 01-10.9241 24.8583 67.41168 67.41168 0 01-21.0852 20.919 47.78233 47.78233 0 01-30.2008 6.9646 15.04569 15.04569 0 01-1.9202-29.5209zM1699.58783 1526.31985c.6104 7.6409.9497 15.332.8936 23.0478-.2051 7.6976-.3333 15.4982-1.2183 23.2906a185.935 185.935 0 01-3.7769 23.5902 73.66028 73.66028 0 01-3.5827 11.8857 55.85224 55.85224 0 01-2.8552 5.8475c-.5188.9808-1.2073 1.9528-1.8238 2.9359-.7946 1.1137-1.2561 1.7429-2.6941 3.4924a15.00019 15.00019 0 11-24.2822-17.6181c-.376.2172.1032-.764.2576-1.2544l.8447-1.9775c.6018-1.371 1.294-2.7863 1.9922-4.2293 1.4416-2.8937 3.0444-5.8475 4.6753-8.8942 3.2129-6.1043 6.1389-12.6112 8.9014-19.2871 2.7636-6.6689 5.4492-13.5204 7.9223-20.4897 1.1389-3.5086 2.4292-7.0102 3.6829-10.5401 1.1633-3.5479 2.3303-7.112 3.6157-10.6813l.0391-.1097a3.82333 3.82333 0 017.4084.9913zM835.77093 1678.06035a59.95647 59.95647 0 11-38.6118-113.5264c31.3495-10.6624 49.1024 11.6532 59.7648 43.0026C867.58633 1638.88605 867.12043 1667.39805 835.77093 1678.06035zM740.68673 1601.379c.5204 10.5653-2.9782 19.3233-13.5435 19.8437a19.1534 19.1534 0 01-1.8847-38.2604C735.82383 1582.44185 740.16633 1590.81365 740.68673 1601.379zM793.41553 1690.22125c9.2492 5.1331 14.8424 12.7265 9.7093 21.9757a19.1534 19.1534 0 11-33.4944-18.5886C774.76353 1684.35915 784.16633 1685.08815 793.41553 1690.22125zM747.22413 1654.633c7.764 11.5978 10.3343 23.4925.2995 30.2102s-24.4637 2.7616-32.2277-8.8362c-7.7641-11.5979-5.9233-26.4456 4.1116-33.1633C729.44233 1636.126 739.46 1643.03505 747.22413 1654.633zM2206.72653 1829.38655a93.13742 93.13742 0 00-7.1839 15.1804 150.17249 150.17249 0 00-4.801 15.1289c-1.2488 4.9718-2.2168 9.7866-2.926 14.079-.7947 4.313-1.0095 7.9382-1.8066 10.5817l-1.908 6.3301a14.38963 14.38963 0 01-27.1265 1.2185c-3.6609-9.0968-2.8967-17.78-1.1499-25.1626a60.275 60.275 0 019.2432-19.7833 69.69688 69.69688 0 0114.5532-15.2266c5.6043-4.2101 12.085-7.8632 19.419-8.8776a4.00957 4.00957 0 013.9856 6.0349zM2271.143 1857.04805c1.7407 6.4448 3.2519 12.6571 4.7156 18.8585 1.4758 6.1886 2.8112 12.302 4.049 18.3262 1.3965 6.0114 2.5208 11.9296 3.4974 17.614.8593 5.6528 1.8371 11.203 1.9128 15.5559l.0537 3.1331a14.9862 14.9862 0 01-28.1103 7.4896c-4.2676-7.746-5.5005-14.926-6.3343-21.9765a91.55105 91.55105 0 01.4334-20.7571 119.533 119.533 0 014.0625-20.1712 76.42386 76.42386 0 018.3471-19.4458 4.03635 4.03635 0 017.3011 1.1052z"/><path fill="#102770" d="M1835.87843 1122.17315s169.8703 26.5103 273.1839 128.2178l-18.2933 116.9326-.1802 82.0706-233.6029-123.5558zM1480.74873 1173.68345l-11.2764 123.3515-102.7242 28.8565-176.9106 109.5263-117.7635 122.8649-50.9104 79.129a685.34767 685.34767 0 00-30.1316 61.8574q-9.4062 7.5729-18.8123 14.1892c-173.8286 123.0775-336.4439 12.5416-330.7045-96.719l.0529-.1596c30.4161 77.465 154.2084 93.3962 253.9571 55.1283 73.3833-28.153 91.7129-125.2952 32.6701-177.1764-31.1436-27.3661-69.4425-42.0607-103.4455-39.4511l54.2052-62.5486 59.0943-163.6783 194.3943-41.5041 233.7201-145.2912 179.585-123.3748S1360.74873 1133.68345 1480.74873 1173.68345z" opacity=".3"/><ellipse cx="1375.934" cy="2173.815" fill="#102770" opacity=".3" rx="32.328" ry="28.343"/><ellipse cx="2028.106" cy="2220.126" fill="#102770" opacity=".3" rx="17.478" ry="15.225"/><ellipse cx="1629.432" cy="2005.87" fill="#102770" opacity=".3" rx="12.067" ry="10.883"/><ellipse cx="1710.864" cy="2325.381" fill="#102770" opacity=".3" rx="12.067" ry="10.883"/><ellipse cx="1328.617" cy="1931.924" fill="#102770" opacity=".3" rx="15.011" ry="13.539"/><ellipse cx="1972.47" cy="1888.131" fill="#102770" opacity=".3" rx="10.542" ry="9.508"/><path fill="#ff9800" d="M980.01143,1235.88555c-9.1211,0-18.3643-.2124-27.4561-.6347-187.3779-8.6792-288.7011-100.2027-340.708-175.4517-43.8672-63.4717-60.6103-125.3271-66.0693-151.0229-179.7217-62.1485-277.6758-125.9986-291.2207-189.8511-6.1719-29.1064,7.0166-51.0815,16.2012-59.9463,170.3662-179.0747,384.4482-254.0747,420.2783-265.7251,122.0166-121.3232,211.25-134.5093,244.1601-134.5093,2.1973,0,4.087.0635,5.6592.149,26.4356-8.3472,61.1084-12.5782,103.1739-12.5782a876.7656,876.7656,0,0,1,90.249,5.1734c60.3027,6.311,108.8525,16.1743,115.2392,17.4975,203.0371,29.607,324.8682,122.6099,391.3184,195.4541a478.80285,478.80285,0,0,1,52.6807,68.8697,46.80144,46.80144,0,0,1,5.6591,36.5478,47.9171,47.9171,0,0,1-22.6562,29.6973c-25.3223,14.414-51.8506,23.1299-78.8428,25.9033a183.05205,183.05205,0,0,1-18.6133.957h-.0049a178.6248,178.6248,0,0,1-19.1259-1.018c4.6093,12.5781,8.7207,25.1587,12.29,37.6513.1123.3833.21.7666.293,1.1548,22.7051,102.0703,2.9492,199.7803-58.7158,290.4175-44.7608,65.7861-110.6006,126.5918-195.6983,180.7324C1214.71843,1201.12245,1097.80923,1235.88555,980.01143,1235.88555Z"/><path fill="#102770" d="M1044.03,266.31655a861.75987,861.75987,0,0,1,88.1689,5.0622c63.0664,6.6016,113.833,17.312,113.833,17.312,198.0029,28.7171,316.0791,119.1248,380.0293,189.2273a457.9959,457.9959,0,0,1,50.4688,65.9485,27.421,27.421,0,0,1-9.9024,38.3069c-25.9375,14.762-50.1904,21.2524-70.9961,23.3899a162.08829,162.08829,0,0,1-16.5723.8533c-31.8798,0-52.2753-9.5313-52.2753-9.5313a541.33659,541.33659,0,0,1,26.2109,71.6614c48.0859,216.1731-114.8242,366.7151-245.6299,449.9304-98.1152,62.4194-211.4844,97.4084-327.3437,97.4084q-13.2423,0-26.543-.614c-346.8945-16.0669-390.1856-321.6357-390.1856-321.6357-378.3496-128.3142-278.3984-220.4981-278.3984-220.4981,181.0889-190.5761,416.8359-262.2924,416.8359-262.2924,121.0547-121.792,207.627-132.1009,233.4717-132.1009a58.01161,58.01161,0,0,1,8.0127.4285c27.5-9.4556,63.3936-12.8564,100.8155-12.8564m0-40c-42.9932,0-77.7247,4.082-105.8106,12.4621q-1.42815-.033-3.0176-.0342c-35.0781,0-129.2773,13.523-254.9023,137.002-47.9004,16.1182-256.5137,93.5217-423.7403,269.1418-14.8535,14.4983-28.999,43.1336-21.5625,78.1873,15.0196,70.8154,111.211,136.6467,293.8135,200.9643a458.34321,458.34321,0,0,0,66.5821,147.1314c54.58,78.9673,160.6835,175,356.2353,184.0576,9.4092.4358,18.96.6567,28.3936.6567,121.6015,0,242.2168-35.8447,348.8134-103.6596,87.4073-55.6055,155.2002-118.3045,201.4991-186.3538,64.8974-95.3833,85.6591-198.3398,61.7089-306.0107q-.26355-1.1628-.5859-2.3084-1.61865-5.6616-3.3789-11.3403c3.8867-.1746,7.7783-.4614,11.6406-.8594,29.7705-3.0578,58.9405-12.6184,86.6944-28.4155a68.033,68.033,0,0,0,32.1533-42.1619,66.66158,66.66158,0,0,0-8.0664-52.0288,498.806,498.806,0,0,0-54.8877-71.7846c-68.5889-75.188-194.0869-171.1329-402.6221-201.681-8.6377-1.7761-57.0654-11.4514-116.626-17.6855a897.13,897.13,0,0,0-92.3339-5.2795Z"/><path fill="#fff" d="M582.56513 563.36115a12.503 12.503 0 00-11.9092-4.6508c-88.3593 14.6923-170.2929 82.5537-211.2646 121.6992a48.97953 48.97953 0 004.7119 74.9072c54.5215 39.9658 152.1631 56.7383 156.2939 57.4316a12.34181 12.34181 0 002.0704.1734 12.5028 12.5028 0 0012.0849-15.7031c-17.5586-66.2207 48.9356-219.6289 49.6094-221.1695A12.50225 12.50225 0 00582.56513 563.36115zM1618.04363 535.893c-28.6963-40.2808-106.1816-137.0288-205.6152-165.3711a15.34568 15.34568 0 00-14.6436 25.9912c.0049 0 .0049.0024.0049.0049 16.3379 15.1806 69.0869 77.6001 96.2598 162.3901a12.49931 12.49931 0 0011.9043 8.6841h.039l95.8838-.293a19.88194 19.88194 0 0016.167-31.4062z" opacity=".55"/><path fill="#fff" d="M1676.53243 543.86685a458.14594 458.14594 0 00-50.4724-65.9482c-63.949-70.1028-182.0264-160.5102-380.0293-189.2276 0 0-50.7636-10.711-113.833-17.312-44.9475-4.704-96.106-7.2827-139.6485-2.4426-18.0841 2.0102-34.8864 5.2692-49.3335 10.2365 0 0-58.3953-9.1086-153.3752 56.7126-26.6504 18.4693-56.1804 42.8342-88.1104 74.9598 0 0-235.7446 71.7163-416.8347 262.2921 0 0-21.4196 19.7922-6.8371 53.7821-1.3245-21.6208 11.8371-33.7821 11.8371-33.7821 181.0901-190.5758 416.8347-262.2921 416.8347-262.2921 39.3311-39.5719 74.9805-67.2968 106.1316-86.8009 24.2517 4.8722 56.2 2.4842 89.1602-8.3737 31.3977-10.343 57.5635-26.3129 74.3317-43.6502 47.3895-8.7488 108.3587-6.1343 160.8441-.6415 63.0694 6.601 113.833 17.312 113.833 17.312 198.0029 28.7174 316.0803 119.1248 380.0293 189.2276a459.674 459.674 0 0149.2908 64.0924A27.03561 27.03561 0 001676.53243 543.86685zM570.50463 925.28565c-1.604-7.4198-2.2107-11.6504-2.2107-11.6504-.3199-.1084-.6214-.2155-.94-.3238C568.22793 916.89115 569.27533 920.90665 570.50463 925.28565zM1555.27933 679.64905c-.7037-3.6826-1.4556-7.3807-2.2833-11.1023q-6.9672-24.3609-17.1509-50.0418c-2.6074-.9558-4.06-1.6199-4.06-1.6199A545.42578 545.42578 0 011555.27933 679.64905z" opacity=".55"/><g clip-path="url(#a)"><path fill="#fff" d="M1078.00613,595.14685a447.09731,447.09731,0,0,1,32.0117,43.1593,28.16488,28.16488,0,0,0,28.6905,12.4089c75.7302-14.0372,361.4498-52.6275,435.9241,146.6188,0,0-18.4103,330.8295-360.791,369.8849,0,0-421.2667,155.3383-551.137-1.4417-26.5685-32.0736-30.96-77.3557-13.0766-118.4008,31.5078-72.3152,105.1549-202.0061,255.6299-298.2084a27.89269,27.89269,0,0,0,12.6341-27.0994c-1.8886-14.5623-4.2878-36.9021-5.2753-62.2942C909.15983,570.88985,1020.67853,527.13265,1078.00613,595.14685Z"/><path fill="#102770" d="M1607.61763 757.98045a438.68278 438.68278 0 013.4437 47.097c-60.8994-14.4796-175.3638-24.2691-175.3638-24.2691C1472.38343 761.70235 1567.04533 756.38215 1607.61763 757.98045zM1609.22943 852.47515a375.13765 375.13765 0 01-6.3114 40.6332c-49.567-17.1262-136.8246-30.9761-136.8246-30.9761C1497.78063 850.13525 1575.47373 849.25865 1609.22943 852.47515zM604.41333 1083.51875a438.66765 438.66765 0 0031.1134 35.5238c32.4552-53.5263 105.8633-141.8957 105.8633-141.8957C702.026 989.84965 631.76563 1053.51015 604.41333 1083.51875zM670.55883 1151.02145a375.123 375.123 0 0033.3616 24.0395c22.6131-47.3164 74.0255-119.1666 74.0255-119.1666C747.15343 1070.03025 691.97243 1124.72975 670.55883 1151.02145z"/></g><path fill="#ff83b6" d="M567.70913,556.04125s-69.1357,158.1237-50.2406,229.3817c0,0-98.2184-16.5153-150.9738-55.1862a36.484,36.484,0,0,1-3.4703-55.7901C401.83353,637.37165,482.14283,570.26675,567.70913,556.04125Z"/><path fill="#102770" d="M517.46753,797.92175a12.39116,12.39116,0,0,1-2.0728-.1734c-4.1284-.6933-101.77-17.4658-156.2891-57.4316a48.97905,48.97905,0,0,1-4.7168-74.9072c40.9766-39.1455,122.9078-107.0069,211.2696-121.6992a12.501,12.501,0,0,1,13.5034,17.3388c-.6738,1.5406-67.1704,154.9488-49.6118,221.1695a12.5,12.5,0,0,1-12.0825,15.7031Zm29.5727-224.4898c-73.1348,20.293-140.1123,76.3599-175.3809,110.0537a24.09506,24.09506,0,0,0-7.4218,19.0357,23.69848,23.69848,0,0,0,9.6484,17.6318c36.8213,26.9947,98.4961,42.959,128.3838,49.4873C497.33073,708.70545,530.30923,615.88315,547.04023,573.432Z"/><path fill="#6b184e" d="M411.34983,734.26625a36.484,36.484,0,0,1-3.4704-55.79c30.6657-29.2951,87.2767-77.2457,151.8836-103.1368,4.7766-12.0405,7.9459-19.2981,7.9459-19.2981-85.5663,14.2254-165.8752,81.3301-204.6848,118.4051a36.48408,36.48408,0,0,0,3.4704,55.7901c52.7554,38.6709,150.9741,55.1862,150.9741,55.1862-.5489-2.0705-1.0077-4.2296-1.4119-6.4408C483.4,770.188,440.463,755.60725,411.34983,734.26625Z" opacity=".3"/><path fill="#102770" d="M737.46633 449.71745s-70.5814 4.9373-121.8136 80.3307c0 0-17.6827-44.5271 41.0686-83.953C656.72133 446.09515 712.64033 412.45905 737.46633 449.71745zM1273.21353 314.33275s-59.3179-31.8875-138.8597 2.7646c0 0 8.3912-44.823 75.7104-46.7054C1210.06423 270.392 1272.162 271.73055 1273.21353 314.33275zM636.49693 718.49555s62.1963-130.165 205.0488-85.7072c0 0-19.2059-62.7201-108.0518-49.9011a117.79523 117.79523 0 00-67.5004 34.7669C644.10533 640.44535 621.44823 676.29125 636.49693 718.49555zM1336.61593 523.73005s-113.5031-89.0412-221.7863 14.1969c0 0-10.6244-64.7287 74.6816-92.6713a117.79573 117.79573 0 0175.9185 1.1986C1295.159 457.164 1331.37113 479.23105 1336.61593 523.73005z"/><path fill="#707070" d="M1096.57393,973.12685a55.39217,55.39217,0,0,1-18.4082-3.1397c-109.292-38.3765-150.6738-156.167-152.3828-161.1645a14.01887,14.01887,0,0,1,5.3564-16.1133c63.7696-43.584,78.9356-93.1006,79.0821-93.5962a14.05855,14.05855,0,0,1,22.4658-6.8677c34.9609,29.2261,74.0136,35.3613,100.6201,35.3613a133.14512,133.14512,0,0,0,24.2725-1.9604,14.05591,14.05591,0,0,1,16.621,10.9033c22.6124,110.1416-9.0039,179.3067-29.8632,210.73A57.30715,57.30715,0,0,1,1096.57393,973.12685Z"/><path fill="#102770" d="M1023.693,703.00475c38.8672,32.4914,82.3291,38.6243,109.6143,38.6243,16.5576,0,27.1582-2.2596,27.1582-2.2596,21.1768,103.1458-6.377,167.8626-27.8125,200.1563a43.53224,43.53224,0,0,1-36.0791,19.5801,41.49388,41.49388,0,0,1-13.7647-2.3487c-104.1259-36.5612-143.7597-152.4719-143.7597-152.4719,69.3652-47.4072,84.6435-101.2805,84.6435-101.2805m-.288-28.2617a26.82336,26.82336,0,0,0-8.1739,1.2707,27.55512,27.55512,0,0,0-18.4863,19.22c-1.0693,3.374-15.6104,46.3196-73.5205,85.8972a28.04623,28.04623,0,0,0-10.7129,32.2278c1.8018,5.2588,45.3662,129.2566,161.0059,169.8596a69.44889,69.44889,0,0,0,23.0566,3.9319,71.292,71.292,0,0,0,59.4482-32.1179c22.0606-33.2385,55.5469-106.1926,31.9141-221.3025a28.04023,28.04023,0,0,0-33.3154-21.7896h0a122.54367,122.54367,0,0,1-21.3135,1.6431c-24.2822,0-59.8926-5.5676-91.626-32.0959a28.59561,28.59561,0,0,0-18.2763-6.7444Z"/><path fill="#102770" d="M930.04443 815.30985c-4.3885 1.9945-7.898 3.1629-11.7981 4.5208-3.8099 1.2649-7.5989 2.4502-11.4069 3.4977-7.6074 2.1163-15.2087 3.9226-22.843 5.3476a285.7687 285.7687 0 01-45.647 4.8511 277.94382 277.94382 0 0040.3528-19.231c6.3653-3.679 12.5116-7.6556 18.4235-11.7994 2.962-2.0621 5.8337-4.2208 8.6309-6.3961a94.38916 94.38916 0 007.6313-6.5161 15.67723 15.67723 0 1117.7136 25.2498zM1168.834 710.85185a94.43567 94.43567 0 0010.0293-.3214c3.5333-.2756 7.1094-.6134 10.6879-1.0837 7.1612-.9173 14.3823-2.1161 21.5662-3.6828a277.959 277.959 0 0042.7819-12.9557 285.7502 285.7502 0 01-37.0129 27.1517c-6.6034 4.0873-13.4393 7.8705-20.4883 11.4288-3.5211 1.7897-7.1203 3.4652-10.7886 5.0955-3.7976 1.6226-7.1789 3.1218-11.7663 4.6026l-1.0474.3381a15.67719 15.67719 0 11-9.6319-29.8383A15.94705 15.94705 0 011168.834 710.85185z"/><g clip-path="url(#b)"><path fill="#ff5722" d="M890.861,969.726l-19.9902-30.6006,70.0586-40.7983c8.1738-11.8946,39.5507-51.8409,92.4023-51.8409a114.00928,114.00928,0,0,1,35.5762,5.9327c13.1933-16.3379,44.9414-48.313,91.2744-48.313a110.353,110.353,0,0,1,44.4873,9.8071l10.0049,4.3945-41.5967,241.3892-181.0059,29.751Z"/><path fill="#102770" d="M1160.18233,818.07555c11.9434,0,24.9268,2.5037,38.8672,8.6267l-38.0518,220.8215-163.374,26.8531-95.5371-113.0115-11.4746-17.5672,60.1953-35.0573s28.96-48.2801,82.5244-48.2837c12.251-.0012,25.7813,2.5244,40.5566,8.7305,0,0,32.378-51.1121,86.294-51.1121m0-27.9419c-45.7129,0-78.6182,27.3804-95.9424,46.3757a124.65424,124.65424,0,0,0-30.9033-3.9941c-55.7617.0036-90.2295,39.1968-101.9922,55.2258l-54.7949,31.9116-25.4151,14.8023,16.084,24.624,11.4746,17.5671.9424,1.4429,1.1133,1.3159,95.5371,113.0115,10.2295,12.1033,15.6397-2.5708,163.374-26.853,19.6289-3.2264,3.374-19.6008,38.0518-220.8215,3.7158-21.5381-20.0098-8.7891a124.26067,124.26067,0,0,0-50.1074-10.9863Z"/><path fill="#102770" d="M973.99173,895.87455s81.8554-32.333,111.2236-3.5946c0,0,27.3961-56.0195,88.207-58.4409l-5.3762-26.3829s-30.4052-14.2036-93.8563,45.3661c0,0-75.5025-20.996-118.0522,26.4964Z" opacity=".4"/></g><path fill="#102770" d="M914.06213,636.566s-16.3459-48.8066,74.1943-73.8237c0,0,76.8089-19.9972,87.4506,22.2135,0,0,3.8383,53.0798-62.1014,79.8803C1013.60563,664.83605,943.18543,684.29375,914.06213,636.566Z"/><path fill="#707070" d="M1017.03743,689.17055l-16.9191-49.0829Z"/><path fill="#102770" d="M1017.03783,709.17665a20.00965,20.00965,0,0,1-18.9087-13.4864l-16.919-49.0844a20.00076,20.00076,0,1,1,37.8174-13.0371l16.919,49.0844a20.0117,20.0117,0,0,1-18.9087,26.5235Z"/><ellipse cx="960.639" cy="611.839" fill="#fff" opacity=".4" rx="25.717" ry="13.039" transform="rotate(-33.527 960.63 611.84)"/><path fill="#ff83b6" d="M1416.30263,382.36125c22.1698,20.6034,73.4327,85.9111,99.6504,167.7312l95.888-.2923a7.38188,7.38188,0,0,0,6.0196-11.6549c-24.2396-34.0275-101.4847-132.8484-198.8523-160.5986A2.84266,2.84266,0,0,0,1416.30263,382.36125Z"/><path fill="#102770" d="M1515.95383,562.59215a12.50065,12.50065,0,0,1-11.9043-8.6865c-27.1655-84.7779-79.9195-147.2046-96.2573-162.3902a15.34252,15.34252,0,0,1,14.6337-25.9936c99.4556,28.3471,176.9239,125.0928,205.6153,165.3735a19.87977,19.87977,0,0,1-16.1646,31.4038l-95.8838.293Zm-64.1699-158.9966c24.7168,31.814,54.4287,79.9048,73.1665,133.9697l76.8481-.2343C1578.444,505.96865,1522.26483,437.98525,1451.78393,403.59555Z"/><path fill="#102770" d="M1617.86053 538.14515c-24.2395-34.0274-101.4844-132.8482-198.8525-160.5985a2.84242 2.84242 0 00-2.7051 4.8145c9.3481 8.6877 23.8849 25.3979 39.5203 47.8698 60.6543 30.647 110.1251 84.0421 138.5809 119.6222l17.4371-.0531A7.382 7.382 0 001617.86053 538.14515zM1312.36483 978.47805c-105.9435 67.3996-229.5163 102.7392-354.9387 96.744-280.5977-13.4125-358.7278-183.7654-378.2296-247.6252a50.58328 50.58328 0 00-31.4713-32.8334c-152.3267-54.1023-219.7432-101.3644-247.4098-137.4228q-7.76565 7.765-15.42 15.7968s-99.9518 92.1845 278.3985 220.4978c0 0 43.2892 305.5688 390.1843 321.6363 125.0153 5.7904 248.2959-29.6188 353.8879-96.7944 116.7792-74.2926 259.1297-202.2516 254.104-382.6599C1527.39223 869.42105 1408.68093 917.20315 1312.36483 978.47805z" opacity=".2"/></svg>