<svg xmlns="http://www.w3.org/2000/svg" viewBox="0 0 100 100"><path d="M81.824 73.941c-.547-.238-1.566-1.634-2.325-3.558-.572-1.449-2.277-5.733-7.005-6.054a1.973 1.973 0 0 0-.309-.031c-.043 0-.082.006-.125.007-.043-.001-.082-.007-.125-.007a1.96 1.96 0 0 0-.309.031c-4.728.321-6.433 4.606-7.005 6.054-.76 1.925-1.779 3.32-2.325 3.558-3.834 1.668-6.134 5.708-5.593 9.823.502 3.817 3.267 6.557 7.216 7.149.457.068.919.103 1.38.103a9.537 9.537 0 0 0 3.698-.75c.511-.214.978-.466 1.39-.688.639-.345 1.161-.615 1.674-.696.513.081 1.033.35 1.673.695.412.222.88.475 1.39.689a9.54 9.54 0 0 0 3.698.75c.462 0 .924-.034 1.382-.103 3.947-.592 6.712-3.331 7.215-7.148.539-4.116-1.761-8.156-5.595-9.824zm1.627 9.301c-.127.963-.755 3.251-3.842 3.714a5.56 5.56 0 0 1-2.938-.379c-.361-.152-.701-.339-1.04-.522-.763-.411-1.688-.889-2.807-1.096a1.92 1.92 0 0 0-.726-.109c-.014.001-.025.005-.039.005-.014-.001-.025-.005-.039-.005a1.921 1.921 0 0 0-.733.11c-1.117.208-2.04.685-2.802 1.096-.339.183-.679.37-1.039.521a5.55 5.55 0 0 1-2.936.379c-3.088-.463-3.716-2.752-3.843-3.715-.254-1.927.646-4.512 3.223-5.633 2.287-.995 3.77-4.034 4.45-5.757.972-2.461 2.059-3.494 3.719-3.544 1.66.051 2.747 1.083 3.719 3.544.547 1.387 2.075 4.724 4.45 5.757 2.576 1.121 3.476 3.707 3.223 5.634zM61.878 67.734c0-4.194-2.904-7.606-6.474-7.606s-6.474 3.412-6.474 7.606 2.904 7.606 6.474 7.606 6.474-3.411 6.474-7.606zm-6.474 3.607c-1.341 0-2.474-1.651-2.474-3.606 0-1.955 1.133-3.606 2.474-3.606s2.474 1.651 2.474 3.606c0 1.954-1.133 3.606-2.474 3.606z"/><path d="M64.727 63.462c3.569 0 6.474-3.412 6.474-7.606s-2.904-7.606-6.474-7.606-6.474 3.412-6.474 7.606 2.904 7.606 6.474 7.606zm0-11.212c1.341 0 2.474 1.651 2.474 3.606 0 1.955-1.133 3.606-2.474 3.606s-2.474-1.651-2.474-3.606c0-1.955 1.133-3.606 2.474-3.606zm23.799 7.878c-3.569 0-6.474 3.412-6.474 7.606s2.904 7.606 6.474 7.606S95 71.929 95 67.734c0-4.193-2.904-7.606-6.474-7.606zm0 11.213c-1.341 0-2.474-1.651-2.474-3.606 0-1.955 1.133-3.606 2.474-3.606S91 65.78 91 67.734c0 1.955-1.133 3.607-2.474 3.607z"/><path d="M79.204 63.462c3.569 0 6.474-3.412 6.474-7.606s-2.904-7.606-6.474-7.606-6.474 3.412-6.474 7.606 2.905 7.606 6.474 7.606zm0-11.212c1.341 0 2.474 1.651 2.474 3.606 0 1.955-1.133 3.606-2.474 3.606s-2.474-1.651-2.474-3.606c0-1.955 1.133-3.606 2.474-3.606zm-41.31-17.573c-.546-.238-1.565-1.633-2.325-3.558-.572-1.449-2.277-5.733-7.005-6.054a1.973 1.973 0 0 0-.309-.031c-.043 0-.082.006-.125.007-.043-.001-.082-.007-.125-.007a1.96 1.96 0 0 0-.309.031c-4.728.321-6.433 4.606-7.005 6.055-.759 1.923-1.777 3.319-2.324 3.557-3.835 1.668-6.135 5.708-5.593 9.823.502 3.817 3.266 6.556 7.215 7.148.458.068.919.103 1.381.103a9.544 9.544 0 0 0 3.698-.75c.511-.214.978-.466 1.39-.689.639-.345 1.161-.614 1.673-.695.512.081 1.034.35 1.673.695.412.223.879.475 1.389.689 1.184.497 2.44.75 3.699.75.461 0 .923-.034 1.381-.103 3.948-.592 6.713-3.332 7.215-7.149.539-4.114-1.76-8.153-5.594-9.822zm1.627 9.301c-.127.963-.755 3.252-3.842 3.715a5.554 5.554 0 0 1-2.938-.379c-.36-.151-.7-.338-1.039-.521-.759-.41-1.678-.885-2.788-1.094a1.922 1.922 0 0 0-.746-.112c-.014.001-.025.005-.039.005-.014-.001-.025-.005-.039-.005a1.984 1.984 0 0 0-.692.104c-1.135.203-2.072.685-2.843 1.101-.339.183-.679.37-1.04.521a5.56 5.56 0 0 1-2.937.379c-3.088-.463-3.716-2.751-3.842-3.714-.254-1.928.646-4.513 3.224-5.634 2.373-1.034 3.901-4.371 4.448-5.757.972-2.461 2.059-3.494 3.719-3.544 1.66.051 2.747 1.083 3.719 3.545.681 1.723 2.163 4.761 4.45 5.756 2.578 1.122 3.478 3.707 3.225 5.634zM17.947 28.471c0-4.194-2.904-7.606-6.474-7.606S5 24.277 5 28.471s2.904 7.606 6.474 7.606 6.473-3.412 6.473-7.606zm-6.473 3.606C10.133 32.077 9 30.426 9 28.471c0-1.955 1.133-3.606 2.474-3.606s2.474 1.651 2.474 3.606c-.001 1.955-1.134 3.606-2.474 3.606z"/><path d="M20.796 24.198c3.569 0 6.474-3.412 6.474-7.606s-2.904-7.606-6.474-7.606-6.474 3.412-6.474 7.606 2.905 7.606 6.474 7.606zm0-11.212c1.341 0 2.474 1.651 2.474 3.606 0 1.955-1.133 3.606-2.474 3.606s-2.474-1.651-2.474-3.606c0-1.955 1.133-3.606 2.474-3.606zm23.8 7.879c-3.569 0-6.474 3.412-6.474 7.606s2.904 7.606 6.474 7.606 6.474-3.412 6.474-7.606c-.001-4.194-2.905-7.606-6.474-7.606zm0 11.212c-1.341 0-2.474-1.651-2.474-3.606 0-1.955 1.133-3.606 2.474-3.606s2.474 1.651 2.474 3.606c-.001 1.955-1.133 3.606-2.474 3.606z"/><path d="M35.273 24.198c3.569 0 6.474-3.412 6.474-7.606s-2.904-7.606-6.474-7.606-6.473 3.412-6.473 7.606 2.904 7.606 6.473 7.606zm0-11.212c1.341 0 2.474 1.651 2.474 3.606 0 1.955-1.133 3.606-2.474 3.606S32.8 18.547 32.8 16.592c0-1.955 1.133-3.606 2.473-3.606z"/></svg>