<svg xmlns="http://www.w3.org/2000/svg" fill-rule="evenodd" stroke-linejoin="round" stroke-miterlimit="2" clip-rule="evenodd" viewBox="0 0 4000 3000"><g><rect width="4000" height="3000" fill="none"/><g transform="translate(65.535)"><path fill="#afcde9" fill-rule="nonzero" d="M868.394,-794.415C473.466,-1538.98 1471.36,-2010.86 1799.65,-758.701C2099.1,383.427 1286.71,656.11 1286.71,656.11C1397.5,-175.528 -820.226,267.607 -442.181,-772.657C-289.821,-1191.9 429.546,-1226.46 868.394,-794.415" transform="rotate(42.212 -1220.303 1859.15)"/><g transform="translate(345.599 1176.87)"><path fill="#fff" fill-rule="nonzero" d="M-13.06,-4.898C-13.06,-4.898 -143.927,98.792 -77.335,126.218C-29.557,145.896 -13.06,81.452 -13.06,81.452C-13.06,81.452 9.899,123.381 32.101,109.609C80.137,79.813 -13.06,-4.898 -13.06,-4.898" transform="scale(.70382 -.70382) rotate(9.913 4723.841 13034.19)"/><path fill="#4e2162" d="M-17.561,-10.394L-17.529,-10.421L-17.49,-10.451L-17.472,-10.466L-17.434,-10.495L-17.248,-10.638L-17.191,-10.678L-17.18,-10.686L-17.143,-10.711L-16.958,-10.839L-16.898,-10.876L-16.88,-10.888L-16.826,-10.921L-16.661,-11.024L-16.602,-11.056L-16.574,-11.073L-16.493,-11.117L-16.356,-11.193L-16.303,-11.219L-16.261,-11.242L-16.151,-11.294L-16.045,-11.346L-16,-11.365L-15.942,-11.393L-15.806,-11.449L-15.728,-11.483L-15.692,-11.497L-15.619,-11.527L-15.461,-11.583L-15.406,-11.604L-15.378,-11.613L-15.291,-11.644L-15.119,-11.696L-15.079,-11.709L-15.057,-11.715L-14.959,-11.745L-14.781,-11.789L-14.748,-11.798L-14.729,-11.802L-14.624,-11.829L-14.447,-11.864L-14.414,-11.871L-14.394,-11.874L-14.286,-11.896L-14.116,-11.921L-14.078,-11.928L-14.052,-11.931L-13.947,-11.946L-13.789,-11.962L-13.739,-11.968L-13.705,-11.971L-13.606,-11.981L-13.464,-11.988L-13.399,-11.993L-13.352,-11.994L-13.265,-11.998L-13.141,-11.999L-13.058,-12.001L-12.998,-11.999L-12.923,-12L-12.82,-11.995L-12.717,-11.993L-12.642,-11.987L-12.582,-11.985L-12.499,-11.977L-12.376,-11.968L-12.289,-11.958L-12.243,-11.953L-12.178,-11.944L-12.037,-11.927L-11.939,-11.911L-11.905,-11.906L-11.856,-11.897L-11.699,-11.87L-11.595,-11.848L-11.57,-11.843L-11.532,-11.834L-11.364,-11.797L-11.258,-11.768L-11.238,-11.763L-11.206,-11.754L-11.032,-11.707L-10.929,-11.674L-10.91,-11.668L-10.877,-11.657L-10.703,-11.601L-10.607,-11.564L-10.586,-11.557L-10.546,-11.541L-10.379,-11.478L-10.294,-11.441L-10.267,-11.43L-10.213,-11.405L-10.06,-11.339L-9.988,-11.303L-9.954,-11.288L-9.878,-11.249L-9.746,-11.183L-9.69,-11.152L-9.647,-11.129L-9.544,-11.07L-9.438,-11.011L-9.397,-10.985L-9.347,-10.956L-9.215,-10.87L-9.137,-10.822L-9.11,-10.803L-9.054,-10.766L-8.895,-10.652L-8.844,-10.616L-8.827,-10.603L-8.77,-10.562L-8.593,-10.421L-8.559,-10.394L-8.548,-10.385L-8.494,-10.342L-8.318,-10.186L-8.282,-10.155L-8.266,-10.14L-8.228,-10.106L-8.194,-10.074C-5.933,-7.986 39.248,34.044 50.314,69.626C56.022,87.982 53.419,104.746 35.846,115.646C24.155,122.898 12.194,119.187 2.183,111.201C-2.987,107.076 -7.571,101.828 -11.162,97.103C-13.613,102.716 -17.034,109.307 -21.569,115.439C-33.354,131.372 -52.158,144.271 -80.041,132.787C-92.471,127.668 -99.098,120.128 -101.85,111.493C-104.505,103.163 -103.455,93.474 -99.433,83.21C-83.666,42.979 -20.268,-8.222 -17.561,-10.394ZM-13.408,4.561C-3.949,13.742 18.34,36.652 30.689,59.777C39.704,76.659 44.137,93.783 28.356,103.572C22.277,107.343 16.25,104.247 11.043,100.094C0.659,91.809 -6.829,78.04 -6.829,78.04C-8.23,75.481 -11.053,74.039 -13.947,74.404C-16.842,74.768 -19.219,76.864 -19.943,79.69C-19.943,79.69 -23.731,94.467 -32.993,106.99C-41.401,118.359 -54.734,127.844 -74.63,119.649C-80.797,117.11 -84.917,113.91 -87.133,109.915C-89.646,105.385 -89.575,100.032 -88.116,94.265C-86.339,87.242 -82.492,79.721 -77.525,72.094C-59.196,43.949 -25.773,14.856 -13.408,4.561Z" transform="scale(.70382 -.70382) rotate(9.913 4723.841 13034.19)"/></g><g transform="matrix(-1 0 0 1 4161.84 770.868)"><path fill="#fff" fill-rule="nonzero" d="M-13.06,-4.898C-13.06,-4.898 -143.927,98.792 -77.335,126.218C-29.557,145.896 -13.06,81.452 -13.06,81.452C-13.06,81.452 9.899,123.381 32.101,109.609C80.137,79.813 -13.06,-4.898 -13.06,-4.898" transform="scale(.70382 -.70382) rotate(9.913 4723.841 13034.19)"/><path fill="#4e2162" d="M-17.561,-10.394L-17.529,-10.421L-17.49,-10.451L-17.472,-10.466L-17.434,-10.495L-17.248,-10.638L-17.191,-10.678L-17.18,-10.686L-17.143,-10.711L-16.958,-10.839L-16.898,-10.876L-16.88,-10.888L-16.826,-10.921L-16.661,-11.024L-16.602,-11.056L-16.574,-11.073L-16.493,-11.117L-16.356,-11.193L-16.303,-11.219L-16.261,-11.242L-16.151,-11.294L-16.045,-11.346L-16,-11.365L-15.942,-11.393L-15.806,-11.449L-15.728,-11.483L-15.692,-11.497L-15.619,-11.527L-15.461,-11.583L-15.406,-11.604L-15.378,-11.613L-15.291,-11.644L-15.119,-11.696L-15.079,-11.709L-15.057,-11.715L-14.959,-11.745L-14.781,-11.789L-14.748,-11.798L-14.729,-11.802L-14.624,-11.829L-14.447,-11.864L-14.414,-11.871L-14.394,-11.874L-14.286,-11.896L-14.116,-11.921L-14.078,-11.928L-14.052,-11.931L-13.947,-11.946L-13.789,-11.962L-13.739,-11.968L-13.705,-11.971L-13.606,-11.981L-13.464,-11.988L-13.399,-11.993L-13.352,-11.994L-13.265,-11.998L-13.141,-11.999L-13.058,-12.001L-12.998,-11.999L-12.923,-12L-12.82,-11.995L-12.717,-11.993L-12.642,-11.987L-12.582,-11.985L-12.499,-11.977L-12.376,-11.968L-12.289,-11.958L-12.243,-11.953L-12.178,-11.944L-12.037,-11.927L-11.939,-11.911L-11.905,-11.906L-11.856,-11.897L-11.699,-11.87L-11.595,-11.848L-11.57,-11.843L-11.532,-11.834L-11.364,-11.797L-11.258,-11.768L-11.238,-11.763L-11.206,-11.754L-11.032,-11.707L-10.929,-11.674L-10.91,-11.668L-10.877,-11.657L-10.703,-11.601L-10.607,-11.564L-10.586,-11.557L-10.546,-11.541L-10.379,-11.478L-10.294,-11.441L-10.267,-11.43L-10.213,-11.405L-10.06,-11.339L-9.988,-11.303L-9.954,-11.288L-9.878,-11.249L-9.746,-11.183L-9.69,-11.152L-9.647,-11.129L-9.544,-11.07L-9.438,-11.011L-9.397,-10.985L-9.347,-10.956L-9.215,-10.87L-9.137,-10.822L-9.11,-10.803L-9.054,-10.766L-8.895,-10.652L-8.844,-10.616L-8.827,-10.603L-8.77,-10.562L-8.593,-10.421L-8.559,-10.394L-8.548,-10.385L-8.494,-10.342L-8.318,-10.186L-8.282,-10.155L-8.266,-10.14L-8.228,-10.106L-8.194,-10.074C-5.933,-7.986 39.248,34.044 50.314,69.626C56.022,87.982 53.419,104.746 35.846,115.646C24.155,122.898 12.194,119.187 2.183,111.201C-2.987,107.076 -7.571,101.828 -11.162,97.103C-13.613,102.716 -17.034,109.307 -21.569,115.439C-33.354,131.372 -52.158,144.271 -80.041,132.787C-92.471,127.668 -99.098,120.128 -101.85,111.493C-104.505,103.163 -103.455,93.474 -99.433,83.21C-83.666,42.979 -20.268,-8.222 -17.561,-10.394ZM-13.408,4.561C-3.949,13.742 18.34,36.652 30.689,59.777C39.704,76.659 44.137,93.783 28.356,103.572C22.277,107.343 16.25,104.247 11.043,100.094C0.659,91.809 -6.829,78.04 -6.829,78.04C-8.23,75.481 -11.053,74.039 -13.947,74.404C-16.842,74.768 -19.219,76.864 -19.943,79.69C-19.943,79.69 -23.731,94.467 -32.993,106.99C-41.401,118.359 -54.734,127.844 -74.63,119.649C-80.797,117.11 -84.917,113.91 -87.133,109.915C-89.646,105.385 -89.575,100.032 -88.116,94.265C-86.339,87.242 -82.492,79.721 -77.525,72.094C-59.196,43.949 -25.773,14.856 -13.408,4.561Z" transform="scale(.70382 -.70382) rotate(9.913 4723.841 13034.19)"/></g><path fill="#afcde9" fill-rule="nonzero" d="M-13.06,-4.898C-13.06,-4.898 -143.927,98.792 -77.335,126.218C-29.557,145.896 -13.06,81.452 -13.06,81.452C-13.06,81.452 9.899,123.381 32.101,109.609C80.137,79.813 -13.06,-4.898 -13.06,-4.898" transform="matrix(-.84516 -.1477 .1477 -.84516 1227.55 2244.13)"/><path fill="#afcde9" fill-rule="nonzero" d="M-13.06,-4.898C-13.06,-4.898 -143.927,98.792 -77.335,126.218C-29.557,145.896 -13.06,81.452 -13.06,81.452C-13.06,81.452 9.899,123.381 32.101,109.609C80.137,79.813 -13.06,-4.898 -13.06,-4.898" transform="matrix(.84516 -.1477 -.1477 -.84516 2172.22 764.127)"/></g><g transform="translate(65.535)"><path fill="#d84861" fill-rule="nonzero" d="M9975.71,1549.71C9975.67,1550.4 9946.38,1982.41 9735.03,1944.65C9523.51,1906.85 9555.37,1481.02 9662.06,1517.57C9768.74,1554.11 9587.38,1744.18 9735.03,1845.59C9882.69,1947 9875.43,1505.91 9871.51,1445.83C9867.59,1385.75 9747.41,1086.28 9939.18,853.682C10112.7,643.262 10367,646.691 10405.2,623.901C10436.6,605.13 10437,526.334 10500.4,484.53C10563.9,442.726 10824.8,396.508 10824.8,396.508L10768.4,497.015C10768.4,497.015 10788.2,514.04 10802.4,543.028C10802.9,542.956 10873.3,532.171 10945.3,575.854L10816.4,646.749C10816.4,646.749 10755.6,697.868 10760.3,772.548C10760.3,772.548 10699.5,829.885 10627.5,812.124C10608,808.134 10588.3,799.714 10561.6,774.334L10546.5,852.615L10546.1,853.135C10559.2,859.545 10571.8,868.208 10583,879.839C10640.2,939.089 10549.6,1076.6 10492.5,1077.15C10443.3,1135.62 10393.4,1193.09 10341.3,1247.77C10343.5,1257.69 10351.9,1302.26 10340.8,1363.77C10328.3,1433.8 10223.6,1471.25 10226.9,1519.19C10230.2,1567.14 10338.1,1662.27 10292.4,1706.47C10246.7,1750.68 10109.7,1569.27 10109.7,1569.27C10113.4,1557.93 10109.5,1550.54 10100.9,1545.94C10123.3,1620.32 10236.3,1767.11 10188.7,1820.42C10127.5,1888.98 9980.24,1647.78 9975.71,1549.71Z" transform="translate(-9000)"/><path fill="#c22945" fill-rule="nonzero" d="M10135.1 702.569C10135.1 702.569 10245.9 853.388 10260.8 847.353 10275.7 841.318 10244.5 662.003 10244.5 662.003 10206.7 671.673 10170.1 684.898 10135.1 702.569zM10766.2 496.109C10756.6 496.109 10773.2 590.141 10791.6 593.189 10797.3 594.139 10802.3 544.299 10802.3 544.299 10791.2 514.229 10778.7 501.158 10766.2 496.109zM9836.52 1264.12C9836.52 1264.12 10001.4 1307.74 10005.7 1279.14 10010.1 1250.55 9833.82 1112.11 9833.82 1112.11 9828.52 1159.33 9829.83 1210.23 9836.52 1264.12zM9880.46 944.67C9880.46 944.67 10061.9 1079.81 10098.7 1043.07 10135.4 1006.33 10005.8 785.733 10005.8 785.733 9956.8 821.839 9913.47 871.227 9880.46 944.67z" transform="translate(-9000)"/><path fill="#f6c9aa" d="M10424,600C10424,600 10417.2,613.632 10402,624C10447.2,692.391 10498.5,750.943 10557,798L10563,772C10502.9,724.789 10458.7,665.879 10424,600Z" transform="translate(-9000)"/><path fill="none" d="M10428.4,597.668C10427.5,596.008 10425.8,594.978 10423.9,595C10422.1,595.023 10420.4,596.094 10419.5,597.774C10419.5,597.774 10413.2,610.305 10399.2,619.867C10396.9,621.406 10396.3,624.475 10397.8,626.756C10443.3,695.599 10495,754.527 10553.9,801.896C10555.2,802.975 10557,803.288 10558.6,802.725C10560.3,802.162 10561.5,800.801 10561.9,799.124L10567.9,773.124C10568.3,771.236 10567.6,769.266 10566.1,768.069C10506.6,721.302 10462.8,662.927 10428.4,597.668ZM10423.6,609.889C10457.6,672.429 10500.3,728.464 10557.4,773.958C10557.4,773.958 10553.9,789.051 10553.9,789.051C10499.5,744.119 10451.4,689.037 10408.8,625.212C10415.5,619.951 10420.4,614.281 10423.6,609.889L10423.6,609.889Z" transform="translate(-9000)"/><path fill="#4e2162" d="M0.925,-216.087C0.925,-216.087 92.559,-233.519 147.964,-176.058C149.879,-174.072 153.047,-174.014 155.034,-175.93C157.02,-177.845 157.078,-181.013 155.162,-183C96.307,-244.039 -0.925,-225.915 -0.925,-225.915C-3.637,-225.404 -5.424,-222.788 -4.914,-220.076C-4.403,-217.364 -1.787,-215.577 0.925,-216.087Z" transform="translate(1431.48 1059.37)"/><path fill="#4e2162" d="M-6.25,18.975C-6.25,18.975 25.395,25.511 51.159,24.859C61.303,24.602 70.509,23.394 75.953,19.725C78.242,18.183 81.351,18.79 82.893,21.078C84.435,23.367 83.829,26.477 81.541,28.019C74.898,32.494 63.789,34.543 51.412,34.856C24.63,35.534 -8.269,28.769 -8.269,28.769C-10.971,28.212 -12.714,25.566 -12.157,22.863C-11.6,20.16 -8.953,18.418 -6.25,18.975Z" transform="scale(1 -1) rotate(33.704 2362.053 1941.549)"/><path fill="#4e2162" d="M-1.523,-98.692C-1.523,-98.692 -28.486,-90.082 -54.368,-72.641C-72.005,-60.755 -89.046,-44.766 -97.213,-24.803C-99.558,-19.071 -96.639,-13.082 -89.787,-8.303C-78.668,-0.549 -57.059,4.855 -57.059,4.855C-54.38,5.515 -51.669,3.875 -51.009,1.195C-50.349,-1.484 -51.989,-4.195 -54.669,-4.855C-54.669,-4.855 -74.099,-9.554 -84.066,-16.506C-85.412,-17.444 -86.564,-18.403 -87.359,-19.432C-87.766,-19.959 -88.193,-20.439 -87.957,-21.017C-80.529,-39.176 -64.823,-53.537 -48.78,-64.348C-24.139,-80.952 1.523,-89.166 1.523,-89.166C4.151,-90.007 5.603,-92.823 4.763,-95.452C3.922,-98.08 1.106,-99.532 -1.523,-98.692Z" transform="translate(1798.15 512.023)"/><path fill="#4e2162" fill-rule="nonzero" d="M10762,747.026C10762,747.026 10751.7,746.797 10743.4,752.328C10735.2,757.858 10728.2,771.797 10733.3,794.836C10743.4,794.381 10752,788.519 10760.5,775.264C10760.2,767.622 10761.7,757.373 10762,747.026Z" transform="matrix(1.16815 0 0 1.13285 -10809.5 -105.245)"/><path fill="#4e2162" d="M-75.674,38.721L25.261,38.722C28.02,38.721 30.261,40.962 30.261,43.721C30.261,46.481 28.02,48.721 25.261,48.721L-75.674,48.721C-78.433,48.722 -80.674,46.481 -80.674,43.722C-80.674,40.962 -78.433,38.722 -75.674,38.721Z" transform="scale(-1 1) rotate(-60.036 -248.86 1799.566)"/><path fill="#4e2162" d="M-63.444,9.678L3.396,9.678C6.155,9.677 8.396,11.918 8.396,14.677C8.396,17.437 6.155,19.677 3.396,19.678L-63.444,19.677C-66.203,19.678 -68.444,17.437 -68.444,14.678C-68.444,11.918 -66.203,9.678 -63.444,9.678Z" transform="scale(-1 1) rotate(-26.052 777.72 3808.78)"/><path fill="#4e2162" d="M-6.43,-19.688L33.548,-19.688C36.308,-19.688 38.548,-17.447 38.548,-14.688C38.548,-11.928 36.308,-9.688 33.548,-9.687L-6.43,-9.687C-9.19,-9.687 -11.43,-11.928 -11.43,-14.687C-11.43,-17.447 -9.19,-19.687 -6.43,-19.688Z" transform="scale(1 -1) rotate(-47.288 126.061 -2311.452)"/><path fill="#4e2162" d="M-17.745,-13.346L3.925,-13.346C6.684,-13.346 8.925,-11.105 8.925,-8.346C8.925,-5.586 6.684,-3.346 3.925,-3.346L-17.745,-3.346C-20.504,-3.345 -22.745,-5.586 -22.745,-8.345C-22.745,-11.105 -20.504,-13.345 -17.745,-13.346Z" transform="scale(-1 1) rotate(50.376 -1608.637 -1499.772)"/><path fill="#4e2162" d="M-74.713-790.287C-80.93-786.875-87.591-780.024-94.279-770.607-104.883-755.677-115.309-734.423-123.488-709.36-155.376-611.644-152.997-455.872 9.534-388.951 20.762-384.328 25.41-374.973 24.779-361.768 23.983-345.123 14.032-321.488.179-294.567-1.084-292.113-4.101-291.146-6.555-292.409-9.009-293.671-9.976-296.688-8.713-299.142 4.323-324.475 14.041-346.583 14.79-362.245 15.189-370.58 12.813-376.786 5.726-379.704-163.172-449.247-166.132-610.919-132.995-712.462-118.544-756.745-96.94-789.495-79.524-799.054-77.105-800.381-74.063-799.495-72.735-797.076-71.408-794.657-72.294-791.615-74.713-790.287zM135.738-336.293C139.456-394.141 111.251-433.978 98.586-465.804 92.991-479.865 90.336-492.53 93.463-504.431 95.599-512.56 100.392-520.411 109.02-528.085 111.082-529.919 114.245-529.734 116.079-527.672 117.913-525.61 117.728-522.447 115.666-520.613 108.8-514.506 104.834-508.358 103.134-501.889 100.507-491.892 103.177-481.314 107.878-469.501 120.953-436.645 149.556-395.372 145.718-335.652 145.541-332.898 143.161-330.806 140.407-330.983 137.653-331.16 135.561-333.54 135.738-336.293z" transform="scale(-1 1) rotate(-1.032 104307.293 62610.543)"/><path fill="#4e2162" d="M-37.773,25.269L24.256,25.269C27.015,25.269 29.256,27.509 29.256,30.269C29.256,33.029 27.015,35.269 24.256,35.269L-37.773,35.269C-40.532,35.269 -42.773,33.029 -42.773,30.269C-42.773,27.509 -40.532,25.269 -37.773,25.269Z" transform="scale(-1 1) rotate(-77.413 517.781 1639.223)"/><path fill="#4e2162" d="M-33.252,17.082L14.663,17.081C17.423,17.082 19.663,19.322 19.663,22.082C19.663,24.841 17.423,27.082 14.663,27.082L-33.252,27.082C-36.012,27.081 -38.252,24.841 -38.252,22.081C-38.252,19.322 -36.012,17.081 -33.252,17.082Z" transform="scale(-1 1) rotate(-67.173 723.371 1788.949)"/><path fill="#4e2162" d="M-23.316,46.068C-23.316,46.068 58.355,35.766 115.658,46.107C118.373,46.598 120.18,49.2 119.69,51.916C119.2,54.632 116.597,56.439 113.882,55.949C57.829,45.833 -22.06,55.988 -22.06,55.988C-24.797,56.335 -27.301,54.394 -27.648,51.656C-27.995,48.918 -26.053,46.414 -23.316,46.068Z" transform="scale(1 -1) rotate(47.941 2172.306 803.78)"/><path fill="#4e2162" d="M-52.108,-52.895L44.023,-52.895C46.782,-52.895 49.023,-50.655 49.023,-47.895C49.023,-45.135 46.782,-42.895 44.023,-42.895L-52.108,-42.895C-54.867,-42.895 -57.108,-45.135 -57.108,-47.895C-57.108,-50.655 -54.867,-52.895 -52.108,-52.895Z" transform="scale(-1 1) rotate(85.175 -1195.453 -431.288)"/><path fill="#4e2162" d="M10570.7,793.188L10565.4,779.78L10556.1,783.404L10561.3,796.812L10570.7,793.188Z" transform="translate(-9000)"/><ellipse cx="10572.5" cy="802.5" fill="#f7971f" rx="8.5" ry="9.5" transform="matrix(.88994 -.3063 .65087 1.89113 -8359.24 2532.65)"/><path fill="none" d="M10572.5,790.5C10569.7,790.5 10566.8,791.122 10564.5,792.485C10561.2,794.37 10558.7,798.128 10558.7,802.5C10558.7,806.872 10561.2,810.63 10564.5,812.515C10566.8,813.878 10569.7,814.5 10572.5,814.5C10575.3,814.5 10578.2,813.878 10580.5,812.515C10583.8,810.63 10586.3,806.872 10586.3,802.5C10586.3,798.128 10583.8,794.37 10580.5,792.485C10578.2,791.122 10575.3,790.5 10572.5,790.5ZM10572.5,795.847C10572.9,796.105 10573.3,796.445 10573.6,796.754C10574.9,798.224 10575.7,800.259 10575.7,802.5C10575.7,804.741 10574.9,806.776 10573.6,808.246C10573.3,808.555 10572.9,808.895 10572.5,809.153C10572.1,808.895 10571.7,808.555 10571.4,808.246C10570.1,806.776 10569.3,804.741 10569.3,802.5C10569.3,800.259 10570.1,798.224 10571.4,796.754C10571.7,796.445 10572.1,796.105 10572.5,795.847Z" transform="matrix(.88994 -.3063 .65087 1.89113 -8359.24 2532.65)"/><path fill="#4e2162" d="M-39.525,21.144C-39.525,21.144 -3.142,10.713 19.77,21.41C22.27,22.577 23.353,25.555 22.185,28.056C21.018,30.556 18.04,31.638 15.54,30.471C-4.648,21.046 -36.704,30.737 -36.704,30.737C-39.352,31.516 -42.133,29.998 -42.912,27.351C-43.69,24.703 -42.173,21.922 -39.525,21.144Z" transform="scale(-1 1) rotate(-68.478 569.369 1787.664)"/><path fill="#4e2162" d="M10804.1,569.924C10804.1,569.924 10807.7,589.256 10807.2,610.6C10806.8,624.335 10804.8,638.965 10798.7,649.472C10797.3,651.853 10798.1,654.919 10800.5,656.314C10802.9,657.709 10805.9,656.909 10807.3,654.528C10814.2,642.704 10816.8,626.308 10817.2,610.851C10817.7,588.406 10813.9,568.076 10813.9,568.076C10813.4,565.364 10810.8,563.576 10808.1,564.086C10805.4,564.596 10803.6,567.212 10804.1,569.924Z" transform="translate(-9000)"/></g><g transform="translate(65.535)"><path fill="#4e2162" d="M10194,943C10194,943 10257,1026.5 10273,1049C10301.8,1089.5 10339.3,1210.6 10422,1211C10462.8,1211.2 10406,1061 10406,1061L10194,943Z" transform="translate(-9065.53)"/><path fill="#fff" fill-rule="nonzero" d="M11393.4,1476.64C11393.4,1476.64 11365.3,1523.02 11331.4,1523.85C11297.6,1524.69 11296.2,1511.51 11280.9,1517.57C11265.7,1523.62 11282.1,1559.8 11270.7,1578.45C11259.3,1597.1 11223,1674.27 11248.2,1708.71C11273.3,1743.15 11324.5,1739.61 11346.1,1777.91C11367.8,1816.21 11381.2,1884.27 11381.2,1884.27C11436.9,1892.25 11585.6,1940.46 11585.6,1940.46C11585.6,1940.46 11534.7,1895.57 11528.5,1863.52C11519.9,1819.65 11532.7,1788.5 11530.4,1747.71C11529.6,1734.87 11512.4,1720.49 11512.4,1720.49C11512.4,1720.49 11531.6,1690.99 11526,1672.84C11519.1,1650.5 11497.2,1641.36 11487,1643.21C11448.6,1615.64 11448.8,1576.04 11470.9,1523.59L11393.4,1476.64Z" transform="translate(-9000)"/><path fill="#f7971f" fill-rule="nonzero" d="M11510.5,1719.86C11513.5,1715.31 11516.4,1710.22 11519,1704.54C11546.3,1646.69 11485.8,1645.15 11485.8,1645.15C11419.7,1600.01 11467,1524.7 11467,1524.7C11467,1524.7 11367.3,1467.2 11364.2,1449.3C11361,1431.39 11404.4,1377.05 11425.7,1374.1C11434.4,1372.89 11446.9,1382.16 11455.1,1379.46C11463.3,1376.76 11586.5,1330.84 11673.2,1399.17C11759.9,1467.51 11781,1589.8 11765.2,1679.77C11749.4,1769.74 11925.3,1808.4 11936,1898.52C11948,1999.25 11882.1,2065.19 11953.5,2147.61C12024.9,2230.02 12146.4,2444.31 12080.2,2485.52C12013.9,2526.72 11964.7,2498.09 11964.7,2498.09C11964.7,2498.09 11865.6,2220.29 11765.8,2088.92C11701.2,2003.93 11576.2,1934.88 11576.2,1934.88C11531.9,1894.78 11509.2,1872.26 11531,1752.85C11533.4,1739.32 11518.7,1720.93 11510.5,1719.87L11510.5,1719.86L11510.5,1719.86Z" transform="translate(-9000)"/><path fill="#4e2162" d="M11669.1 1403.88C11754 1470.8 11774.3 1590.66 11758.8 1678.77 11758.3 1682.1 11760.6 1685.25 11764.1 1685.8 11767.7 1686.36 11771 1684.1 11771.6 1680.77 11787.7 1588.94 11765.9 1464.22 11677.3 1394.47 11674.6 1392.31 11670.5 1392.67 11668.3 1395.27 11666 1397.86 11666.4 1401.72 11669.1 1403.88zM11929.6 1899.2C11935.5 1948.97 11922.1 1990.14 11916.1 2029.05 11909.8 2070.03 11911.4 2108.6 11948.5 2151.49 11998 2208.6 12071.9 2329.64 12089.2 2411.14 12092.8 2427.94 12093.9 2442.98 12091.8 2455.31 12089.8 2466.38 12085.1 2475.12 12076.6 2480.4 12073.7 2482.26 12072.8 2486.05 12074.8 2488.87 12076.7 2491.69 12080.7 2492.48 12083.7 2490.63 12095.1 2483.55 12101.9 2472.14 12104.5 2457.33 12106.9 2443.77 12105.8 2427.21 12101.9 2408.72 12084.2 2325.57 12009 2201.99 11958.5 2143.72 11924.2 2104.19 11923 2068.59 11928.9 2030.81 11935 1990.97 11948.5 1948.8 11942.4 1897.83 11942 1894.48 11938.8 1892.06 11935.3 1892.44 11931.8 1892.82 11929.2 1895.85 11929.6 1899.2z" transform="matrix(.77491 0 0 .81756 -6401.59 353.463)"/><path fill="#4e2162" d="M11669.1,1403.88C11754,1470.8 11774.3,1590.66 11758.8,1678.77C11754.6,1703.03 11763.1,1723.89 11778.6,1742.97C11793.4,1761.02 11814.6,1777.48 11836.7,1793.9C11858.1,1809.8 11880.4,1825.69 11897.9,1843.18C11914.6,1859.87 11927.1,1877.97 11929.6,1899.2C11933.1,1928.47 11929.8,1954.73 11925.4,1979.31C11924.8,1982.63 11927.1,1985.8 11930.6,1986.37C11934.2,1986.94 11937.5,1984.7 11938.1,1981.38C11942.7,1955.75 11946.1,1928.35 11942.4,1897.83C11939.6,1874 11926,1853.48 11907.3,1834.76C11889.3,1816.85 11866.6,1800.55 11844.7,1784.27C11823.4,1768.52 11803,1752.81 11788.8,1735.49C11775.5,1719.2 11767.9,1701.49 11771.6,1680.77C11787.7,1588.94 11765.9,1464.22 11677.3,1394.47C11674.6,1392.31 11670.5,1392.67 11668.3,1395.27C11666,1397.86 11666.4,1401.72 11669.1,1403.88Z" transform="matrix(.77491 0 0 .81756 -6476.59 468.463)"/><path fill="#ca55b0" fill-rule="nonzero" d="M11194.6,2392.83L10799,2254.73L10975,1820.93L10974.2,1820.08L10975.2,1820.43L10975.2,1820.42L10975.2,1820.43C11219.1,1903.88 11531,1829.47 11731.6,2040.63C11958.2,2278.99 12099.3,3000 12099.3,3000L11450.4,3000C11450.4,3000 11362,2800.43 11334.8,2765.99C11290.6,2710.03 11184,2619.45 11175,2518.85C11170.1,2463.7 11194.6,2392.83 11194.6,2392.83Z" transform="translate(-9000)"/><path fill="#8b2d77" fill-rule="nonzero" d="M11194.6,2392.83L11276.1,2423.97C11364,2614.81 11728.3,2517.02 11513.7,1912C11485.8,1833.38 11668.2,1973.9 11731.6,2040.63C11958.2,2278.99 12099.3,3000 12099.3,3000L11450.4,3000C11450.4,3000 11362,2800.43 11334.8,2765.99C11290.6,2710.03 11184,2619.45 11175,2518.85C11170.1,2463.7 11194.6,2392.83 11194.6,2392.83Z" transform="translate(-9000)"/><path fill="#4e2162" d="M11426.3,1477.54C11426.3,1477.54 11461.9,1466.76 11477.8,1425.25C11478.5,1423.31 11477.4,1421.17 11475.3,1420.48C11473.3,1419.79 11471,1420.81 11470.2,1422.75C11455.8,1460.43 11423.7,1470.46 11423.7,1470.46C11421.6,1471.11 11420.5,1473.22 11421.2,1475.17C11421.9,1477.13 11424.2,1478.19 11426.3,1477.54Z" transform="matrix(1.2449 0 0 1.34 -11810 -483.16)"/><path fill="#4e2162" d="M11426.3,1477.54C11426.3,1477.54 11461.9,1466.76 11477.8,1425.25C11478.5,1423.31 11477.4,1421.17 11475.3,1420.48C11473.3,1419.79 11471,1420.81 11470.2,1422.75C11455.8,1460.43 11423.7,1470.46 11423.7,1470.46C11421.6,1471.11 11420.5,1473.22 11421.2,1475.17C11421.9,1477.13 11424.2,1478.19 11426.3,1477.54Z" transform="matrix(1.2449 0 0 1.34 -11758 -450.16)"/><path fill="#4e2162" d="M11588.4,1961.87C11588.4,1961.87 11641.3,2093.13 11648,2245.01C11652.4,2345.73 11636.6,2455.62 11571,2541.97C11569.3,2544.17 11569.8,2547.31 11572,2548.98C11574.2,2550.65 11577.3,2550.22 11579,2548.03C11646,2459.76 11662.5,2347.52 11658,2244.56C11651.2,2090.91 11597.6,1958.13 11597.6,1958.13C11596.6,1955.57 11593.7,1954.33 11591.1,1955.36C11588.6,1956.39 11587.3,1959.31 11588.4,1961.87Z" transform="translate(-9000)"/><path fill="#4e2162" fill-rule="nonzero" d="M0,-77.192L49.364,-48.612C49.364,-48.612 30.625,0 -15.008,-40.148" transform="translate(2263.3 1669.38)"/><path fill="#fff" fill-rule="nonzero" d="M11261.3,1592.19L11298.7,1614.77C11298.7,1614.77 11274.9,1633.38 11254.3,1608.24L11261.3,1592.19Z" transform="translate(-9000)"/><path fill="#fff" fill-rule="nonzero" d="M-1117.99,1069.12C-1151.59,1058.03 -1183.95,1044.05 -1214.59,1026.02C-1436.01,895.768 -1611.06,310.054 -1611.06,310.054C-1614.21,251.948 -1706.78,98.346 -1732.05,58.384C-1757.32,18.421 -1841.69,0 -1864.73,10.536C-1887.77,21.072 -1817.93,41.62 -1803.28,56.038C-1788.63,70.457 -1774.05,119.276 -1774.05,119.276C-1774.05,119.276 -1821.2,70.736 -1854.54,58.761C-1887.89,46.786 -1945.72,37.772 -1949.72,53.271C-1953.71,68.771 -1898.33,82.34 -1875.28,103.201C-1852.24,124.063 -1844,157.724 -1844,157.724C-1844,157.724 -1890.07,137.049 -1925.69,129.589C-1961.31,122.129 -2005.89,118.448 -1986.5,153.095C-1986.5,153.095 -2000.06,176.868 -1970,198.355C-1939.93,219.842 -1867.72,254.318 -1853.25,293.878C-1838.78,333.438 -1810.95,398.274 -1757.8,411.688C-1757.8,411.688 -1683.01,879.373 -1524.59,1158.93C-1409.4,1362.2 -1267.02,1402.01 -1267.02,1402.01" transform="translate(3099.3 753.375)"/><path fill="#4e2162" d="M-4.978,-28.766C32.311,-28.393 112.312,-28.766 112.312,-28.766C115.071,-28.779 117.322,-26.549 117.335,-23.789C117.348,-21.03 115.118,-18.779 112.358,-18.766C112.358,-18.766 32.257,-18.393 -5.078,-18.766C-7.837,-18.794 -10.055,-21.057 -10.028,-23.816C-10,-26.575 -7.737,-28.793 -4.978,-28.766Z" transform="scale(1 -1) rotate(-23.891 -1532.25 -3106.959)"/><path fill="#4e2162" d="M-4.275,-410.223C-4.275,-410.223 -14.023,-394.17 -28.852,-381.151C-38.262,-372.888 -49.733,-365.716 -62.133,-365.41C-81.458,-364.935 -89.64,-369.298 -96.24,-371.588C-101.967,-373.575 -106.775,-374.349 -114.346,-371.348C-118.87,-369.556 -121.652,-366.097 -123.128,-361.304C-124.261,-357.625 -124.567,-353.018 -124.442,-347.901C-124.278,-341.184 -123.404,-333.478 -123.424,-326.061C-123.442,-319.568 -124.072,-313.293 -127.046,-308.425C-134.036,-296.989 -150.168,-264.021 -156.401,-231.87C-160.757,-209.404 -160.078,-187.37 -149.307,-172.611C-136.2,-154.651 -116.439,-146.39 -96.997,-137.831C-79.335,-130.055 -61.918,-122.043 -51.661,-103.898C-30.315,-66.14 -17.104,0.97 -17.104,0.97C-16.569,3.677 -13.936,5.44 -11.229,4.905C-8.522,4.37 -6.759,1.737 -7.294,-0.97C-7.294,-0.97 -20.995,-69.974 -42.955,-108.82C-54.351,-128.977 -73.346,-138.345 -92.968,-146.983C-110.809,-154.838 -129.201,-162.025 -141.229,-178.507C-150.567,-191.301 -150.36,-210.491 -146.584,-229.966C-140.621,-260.724 -125.2,-292.27 -118.514,-303.211C-115.375,-308.347 -113.973,-314.614 -113.566,-321.312C-113.025,-330.206 -114.244,-339.904 -114.445,-348.145C-114.54,-352.04 -114.434,-355.559 -113.571,-358.36C-113.051,-360.049 -112.256,-361.42 -110.662,-362.052C-110.662,-362.052 -110.662,-362.052 -110.662,-362.052C-104.515,-364.488 -101.191,-362.792 -95.981,-360.835C-89.123,-358.259 -79.81,-354.972 -61.887,-355.414C-61.887,-355.414 -61.887,-355.414 -61.887,-355.414C-47.195,-355.776 -33.404,-363.846 -22.254,-373.636C-6.242,-387.693 4.275,-405.035 4.275,-405.035C5.706,-407.394 4.953,-410.472 2.594,-411.904C0.235,-413.335 -2.843,-412.582 -4.275,-410.223Z" transform="translate(2393.45 1884.27)"/><path fill="#4e2162" d="M-1863.96,15.83C-1863.58,15.586 -1863.09,15.28 -1862.65,15.083C-1854.02,11.136 -1836.21,11.917 -1816.41,16.204C-1785.98,22.794 -1750.83,38.042 -1736.28,61.056C-1718.65,88.929 -1668.16,172.28 -1638.38,239.643C-1625.87,267.932 -1616.97,293.305 -1616.05,310.324C-1616.03,310.718 -1615.96,311.108 -1615.85,311.486C-1615.85,311.486 -1529.88,599.111 -1402.19,816.464C-1347.09,910.242 -1284.15,990.906 -1217.13,1030.33C-1187.06,1048.02 -1155.36,1061.86 -1122.46,1072.9C-1119.84,1073.78 -1117.01,1072.37 -1116.13,1069.75C-1115.25,1067.13 -1116.66,1064.3 -1119.28,1063.42C-1151.52,1052.6 -1182.59,1039.05 -1212.06,1021.71C-1277.89,982.985 -1339.45,903.515 -1393.56,811.398C-1517.45,600.519 -1601.88,323.19 -1606.1,309.176C-1607.24,291.339 -1616.27,264.926 -1629.23,235.6C-1659.23,167.749 -1710.07,83.786 -1727.82,55.712C-1743.59,30.77 -1781.32,13.573 -1814.29,6.431C-1836.77,1.563 -1857.01,1.507 -1866.81,5.989C-1871.55,8.155 -1873.56,11.016 -1874.15,13.628C-1874.6,15.626 -1874.34,17.737 -1873.22,19.904C-1872.19,21.886 -1870.25,24.06 -1867.46,26.229C-1859.14,32.716 -1842.11,40.203 -1827.51,47.332C-1818.6,51.686 -1810.63,55.817 -1806.79,59.602C-1802.71,63.617 -1798.71,70.553 -1795.01,78.229C-1791.32,85.871 -1787.98,94.25 -1785.3,101.532C-1802.28,85.922 -1830.6,62.049 -1852.85,54.055C-1876.83,45.446 -1913.14,38.417 -1934.16,40.38C-1940.38,40.96 -1945.39,42.371 -1948.75,44.48C-1951.84,46.427 -1953.77,48.983 -1954.56,52.023C-1954.56,52.023 -1954.56,52.023 -1954.56,52.023C-1955.36,55.153 -1954.86,58.258 -1953.06,61.321C-1951.14,64.566 -1947.48,67.897 -1942.48,71.143C-1926.29,81.649 -1894.6,92.461 -1878.64,106.908C-1864.43,119.766 -1856.15,137.733 -1852.07,148.83C-1867.78,142.29 -1898.92,130.087 -1924.67,124.695C-1943.15,120.823 -1963.98,118.066 -1977.65,120.638C-1986.15,122.237 -1992.14,125.992 -1994.74,131.684C-1997.02,136.705 -1996.85,143.784 -1992.07,153.265C-1993.6,157.116 -1995.79,164.843 -1993.67,174.24C-1991.75,182.765 -1986.29,192.855 -1972.9,202.423C-1954.9,215.292 -1921.74,232.821 -1894.98,253.322C-1877.95,266.366 -1863.46,280.519 -1857.94,295.596C-1849.1,319.763 -1835.31,353.166 -1814.05,378.995C-1800.15,395.884 -1783.06,409.535 -1762.22,415.665C-1755.32,457.18 -1680.08,894.696 -1528.94,1161.39C-1412.51,1366.84 -1268.36,1406.83 -1268.36,1406.83C-1265.7,1407.57 -1262.94,1406.02 -1262.2,1403.36C-1261.46,1400.7 -1263.01,1397.94 -1265.67,1397.2C-1265.67,1397.2 -1406.28,1357.55 -1520.24,1156.46C-1678.31,877.542 -1752.87,410.898 -1752.87,410.898C-1753.18,408.925 -1754.64,407.329 -1756.58,406.84C-1776.79,401.738 -1793.09,388.721 -1806.33,372.64C-1826.83,347.732 -1840.03,315.465 -1848.55,292.16C-1854.62,275.589 -1870.18,259.721 -1888.9,245.383C-1915.76,224.81 -1949.02,207.202 -1967.09,194.287C-1977.76,186.665 -1982.38,178.835 -1983.91,172.043C-1986.04,162.612 -1982.15,155.573 -1982.15,155.573C-1981.28,154.05 -1981.28,152.183 -1982.13,150.653C-1985.88,143.951 -1987.19,139.241 -1985.63,135.829C-1984.21,132.694 -1980.48,131.346 -1975.8,130.466C-1963.13,128.082 -1943.85,130.895 -1926.72,134.483C-1891.54,141.85 -1846.05,162.286 -1846.05,162.286C-1844.3,163.068 -1842.27,162.789 -1840.8,161.566C-1839.33,160.343 -1838.69,158.391 -1839.14,156.536C-1839.14,156.536 -1847.81,121.329 -1871.93,99.494C-1888.23,84.735 -1920.5,73.488 -1937.03,62.755C-1939.99,60.838 -1942.38,58.99 -1943.87,57.079C-1944.55,56.204 -1945.1,55.416 -1944.87,54.519C-1944.61,53.512 -1943.62,52.965 -1942.42,52.404C-1940.09,51.31 -1936.94,50.683 -1933.23,50.337C-1913.31,48.477 -1878.94,55.311 -1856.23,63.467C-1823.63,75.174 -1777.63,122.76 -1777.63,122.76C-1776.03,124.412 -1773.5,124.754 -1771.52,123.589C-1769.53,122.423 -1768.6,120.052 -1769.26,117.845C-1769.26,117.845 -1776.53,93.514 -1786,73.883C-1790.28,65.017 -1795.06,57.111 -1799.77,52.474C-1799.77,52.474 -1799.77,52.474 -1799.77,52.474C-1803.55,48.762 -1810.67,44.585 -1819.07,40.356C-1830.73,34.483 -1844.92,28.33 -1854.77,22.625C-1856.82,21.438 -1858.67,20.276 -1860.25,19.139C-1861.57,18.187 -1862.69,17.271 -1863.52,16.371C-1863.67,16.216 -1863.82,16.019 -1863.96,15.83Z" transform="translate(3099.3 753.375)"/><path fill="#4e2162" d="M122.293,-81.519L369.323,4.721C371.928,5.63 374.782,4.253 375.692,1.648C376.601,-0.957 375.224,-3.811 372.619,-4.721L125.589,-90.961C122.983,-91.87 120.13,-90.493 119.22,-87.888C118.311,-85.283 119.687,-82.429 122.293,-81.519Z" transform="translate(1975.17 2445.72)"/><path fill="#4e2162" d="M-30.547,-17.585L5.185,-17.585C7.944,-17.585 10.185,-15.345 10.185,-12.585C10.185,-9.825 7.944,-7.585 5.185,-7.585L-30.547,-7.585C-33.306,-7.585 -35.547,-9.825 -35.547,-12.585C-35.547,-15.345 -33.306,-17.585 -30.547,-17.585Z" transform="scale(-1 1) rotate(44.782 -3072.147 -2113.892)"/><path fill="#4e2162" d="M-2.505,-72.865L42.886,-46.585C40.268,-41.742 34.727,-33.652 25.716,-30.504C16.682,-27.348 4.511,-29.635 -11.705,-43.902C-13.777,-45.725 -16.939,-45.523 -18.762,-43.451C-20.585,-41.379 -20.383,-38.217 -18.311,-36.394C1.984,-18.539 17.707,-17.114 29.013,-21.063C46.286,-27.097 54.029,-46.814 54.029,-46.814C54.914,-49.109 53.998,-51.707 51.869,-52.939L2.505,-81.519C0.117,-82.902 -2.944,-82.085 -4.327,-79.697C-5.71,-77.309 -4.893,-74.248 -2.505,-72.865Z" transform="translate(2263.3 1669.38)"/><path fill="#4e2162" d="M4.96,22.248C4.96,22.248 5.923,14.666 3.931,7.31C2.406,1.678 -0.812,-3.697 -6.688,-6.441C-13.777,-9.75 -20.827,-7.497 -27.057,-1.995C-38.504,8.114 -47.047,29.866 -47.047,29.866C-48.043,32.44 -46.762,35.337 -44.188,36.333C-41.614,37.329 -38.717,36.048 -37.721,33.474C-37.721,33.474 -32.248,19.262 -24.292,9.564C-21.97,6.734 -19.464,4.278 -16.761,2.93C-14.887,1.996 -12.92,1.686 -10.918,2.621C-10.918,2.621 -10.918,2.621 -10.918,2.621C-7.887,4.036 -6.508,7.018 -5.721,9.924C-4.246,15.372 -4.96,20.988 -4.96,20.988C-5.308,23.725 -3.368,26.23 -0.63,26.578C2.107,26.926 4.612,24.986 4.96,22.248Z" transform="translate(2499.76 1672.7)"/><path fill="#4e2162" d="M11579,2400C11579,2400 11612.6,2399.61 11628.8,2407.5C11631.3,2408.7 11634.3,2407.67 11635.5,2405.18C11636.7,2402.7 11635.7,2399.71 11633.2,2398.5C11615.5,2389.9 11579,2390 11579,2390C11576.2,2390.02 11574,2392.28 11574,2395.03C11574,2397.8 11576.3,2400.02 11579,2400Z" transform="translate(-9000)"/><path fill="#4e2162" d="M11579,2400C11579,2400 11612.6,2399.61 11628.8,2407.5C11631.3,2408.7 11634.3,2407.67 11635.5,2405.18C11636.7,2402.7 11635.7,2399.71 11633.2,2398.5C11615.5,2389.9 11579,2390 11579,2390C11576.2,2390.02 11574,2392.28 11574,2395.03C11574,2397.8 11576.3,2400.02 11579,2400Z" transform="translate(-8995 -214)"/><path fill="#4e2162" d="M11579,2400C11579,2400 11612.6,2399.61 11628.8,2407.5C11631.3,2408.7 11634.3,2407.67 11635.5,2405.18C11636.7,2402.7 11635.7,2399.71 11633.2,2398.5C11615.5,2389.9 11579,2390 11579,2390C11576.2,2390.02 11574,2392.28 11574,2395.03C11574,2397.8 11576.3,2400.02 11579,2400Z" transform="translate(-9018 -375)"/></g></g></svg>